<?xml version="1.0" encoding="UTF-8" standalone="no"?>
<svg width="852px" height="310px" viewBox="0 0 852 310" version="1.1" xmlns="http://www.w3.org/2000/svg" xmlns:xlink="http://www.w3.org/1999/xlink">
    <!-- Generator: Sketch 3.6.1 (26313) - http://www.bohemiancoding.com/sketch -->
    <title>Artboard</title>
    <desc>Created with Sketch.</desc>
    <defs></defs>
    <g id="Page-1" stroke="none" stroke-width="1" fill="none" fill-rule="evenodd">
        <g id="Artboard" fill="#333333">
            <g id="adweek">
                <g id="Calque_1">
                    <path d="M0.05,309.05 L45.95,309.05 L53.35,240.45 L88.05,240.45 L94.55,309.05 L148.25,309.05 L112.55,0.05 L35.05,0.05 L0.05,309.05 L0.05,309.05 L0.05,309.05 Z M58.55,193.85 L70.65,72.15 L71.95,72.15 L83.25,193.85 L58.55,193.85 L58.55,193.85 L58.55,193.85 Z M153.15,309.05 L217.85,309.05 C254.25,309.05 281.25,288.25 281.25,248.85 L281.25,59.55 C281.25,21.85 254.35,0.05 218.85,0.05 L153.45,0.05 L153.45,309.05 L153.15,309.05 L153.15,309.05 Z M206.45,259.25 L206.45,49.55 L213.35,49.55 C224.15,49.55 227.65,56.05 227.65,64.75 L227.65,242.35 C227.65,252.35 224.65,259.25 213.35,259.25 L206.45,259.25 L206.45,259.25 L206.45,259.25 Z M316.45,309.95 L369.75,309.95 L387.05,121.35 L389.25,121.35 L406.15,309.95 L455.15,309.95 L491.45,0.15 L446.35,0.15 L432.95,173.85 L431.65,173.85 L416.05,0.15 L362.35,0.15 L346.75,175.75 L345.85,175.75 L331.55,0.15 L279.15,0.15 L316.45,309.95 L316.45,309.95 L316.45,309.95 Z M496.65,309.05 L600.65,309.05 L600.65,259.25 L549.55,259.25 L549.55,175.65 L589.85,175.65 L589.85,125.35 L549.55,125.35 L549.55,49.55 L599.85,49.55 L599.85,0.15 L496.85,0.15 L496.85,309.15 L496.65,309.15 L496.65,309.05 L496.65,309.05 Z M606.65,309.05 L710.65,309.05 L710.65,259.25 L659.55,259.25 L659.55,175.65 L699.85,175.65 L699.85,125.35 L659.55,125.35 L659.55,49.55 L709.85,49.55 L709.85,0.15 L606.85,0.15 L606.85,309.15 L606.65,309.15 L606.65,309.05 L606.65,309.05 Z M717.15,309.05 L770.45,309.05 L770.45,202.45 L779.55,172.15 L798.65,309.05 L851.95,309.05 L818.55,118.45 L851.05,0.15 L797.75,0.15 L770.45,127.55 L770.45,0.15 L717.15,0.15 L717.15,309.05 L717.15,309.05 L717.15,309.05 Z" id="Shape"></path>
                </g>
            </g>
        </g>
    </g>
</svg>