<?xml version="1.0" encoding="UTF-8" standalone="no"?>
<svg width="494px" height="130px" viewBox="0 0 494 130" version="1.1" xmlns="http://www.w3.org/2000/svg" xmlns:xlink="http://www.w3.org/1999/xlink" xmlns:sketch="http://www.bohemiancoding.com/sketch/ns">
    <!-- Generator: Sketch 3.1.1 (8761) - http://www.bohemiancoding.com/sketch -->
    <title>Artboard</title>
    <desc>Created with Sketch.</desc>
    <defs></defs>
    <g id="Page-1" stroke="none" stroke-width="1" fill="none" fill-rule="evenodd" sketch:type="MSPage">
        <g id="Artboard" sketch:type="MSArtboardGroup" fill="#FFFFFF">
            <g id="Remente(WHTE)" sketch:type="MSLayerGroup">
                <g id="Group" sketch:type="MSShapeGroup">
                    <g transform="translate(123.000000, 30.000000)" id="Shape">
                        <path d="M-0.165,0.183 L27.787,0.183 C35.774,0.183 42.182,2.597 46.268,6.683 C49.426,9.841 51.283,14.391 51.283,19.498 L51.283,19.683 C51.283,30.456 43.852,36.771 33.638,38.628 L53.605,65.187 L44.596,65.187 L25.745,39.928 L7.171,39.928 L7.171,65.187 L-0.165,65.187 L-0.165,0.183 L-0.165,0.183 Z M27.138,33.335 C36.888,33.335 43.853,28.32 43.853,19.963 L43.853,19.778 C43.853,11.791 37.725,6.963 27.231,6.963 L7.172,6.963 L7.172,33.335 L27.138,33.335 L27.138,33.335 Z"></path>
                        <path d="M81.367,60.081 C87.96,60.081 92.603,57.388 96.504,53.301 L100.962,57.295 C96.132,62.682 90.281,66.302 81.18,66.302 C67.995,66.302 57.222,56.18 57.222,41.23 C57.222,27.299 66.972,16.156 80.252,16.156 C94.46,16.156 102.633,27.486 102.633,41.6 C102.633,42.251 102.633,42.993 102.541,44.108 L64.467,44.108 C65.486,54.23 72.915,60.081 81.367,60.081 L81.367,60.081 Z M95.388,38.35 C94.554,29.621 89.539,22.192 80.066,22.192 C71.801,22.192 65.486,29.064 64.465,38.35 L95.388,38.35 L95.388,38.35 Z"></path>
                        <path d="M110.523,17.177 L117.674,17.177 L117.674,25.257 C120.832,20.52 125.103,16.156 133.183,16.156 C140.984,16.156 145.998,20.335 148.599,25.721 C152.034,20.427 157.141,16.156 165.5,16.156 C176.551,16.156 183.33,23.585 183.33,35.471 L183.33,65.188 L176.179,65.188 L176.179,37.143 C176.179,27.855 171.536,22.656 163.735,22.656 C156.491,22.656 150.455,28.043 150.455,37.513 L150.455,65.188 L143.396,65.188 L143.396,36.957 C143.396,27.95 138.661,22.656 131.045,22.656 C123.431,22.656 117.673,28.971 117.673,37.793 L117.673,65.188 L110.522,65.188 L110.522,17.177 L110.523,17.177 Z"></path>
                        <path d="M215.362,60.081 C221.955,60.081 226.598,57.388 230.499,53.301 L234.957,57.295 C230.127,62.682 224.276,66.302 215.175,66.302 C201.99,66.302 191.217,56.18 191.217,41.23 C191.217,27.299 200.967,16.156 214.247,16.156 C228.455,16.156 236.628,27.486 236.628,41.6 C236.628,42.251 236.628,42.993 236.535,44.108 L198.46,44.108 C199.481,54.23 206.91,60.081 215.362,60.081 L215.362,60.081 Z M229.383,38.35 C228.549,29.621 223.534,22.192 214.061,22.192 C205.796,22.192 199.481,29.064 198.46,38.35 L229.383,38.35 L229.383,38.35 Z"></path>
                        <path d="M244.516,17.177 L251.667,17.177 L251.667,25.534 C254.825,20.334 259.839,16.156 268.104,16.156 C279.711,16.156 286.491,23.956 286.491,35.379 L286.491,65.188 L279.342,65.188 L279.342,37.143 C279.342,28.227 274.512,22.656 266.062,22.656 C257.797,22.656 251.667,28.692 251.667,37.7 L251.667,65.188 L244.516,65.188 L244.516,17.177 L244.516,17.177 Z"></path>
                        <path d="M299.582,52.465 L299.582,23.492 L292.895,23.492 L292.895,17.177 L299.582,17.177 L299.582,2.69 L306.733,2.69 L306.733,17.177 L321.962,17.177 L321.962,23.492 L306.733,23.492 L306.733,51.537 C306.733,57.388 309.983,59.524 314.811,59.524 C317.227,59.524 319.269,59.06 321.775,57.852 L321.775,63.98 C319.269,65.28 316.575,66.024 313.14,66.024 C305.433,66.024 299.582,62.216 299.582,52.465 L299.582,52.465 Z"></path>
                        <path d="M349.728,60.081 C356.321,60.081 360.964,57.388 364.865,53.301 L369.323,57.295 C364.493,62.682 358.642,66.302 349.541,66.302 C336.356,66.302 325.583,56.18 325.583,41.23 C325.583,27.299 335.333,16.156 348.613,16.156 C362.821,16.156 370.994,27.486 370.994,41.6 C370.994,42.251 370.994,42.993 370.901,44.108 L332.827,44.108 C333.848,54.23 341.277,60.081 349.728,60.081 L349.728,60.081 Z M363.75,38.35 C362.916,29.621 357.901,22.192 348.428,22.192 C340.163,22.192 333.848,29.064 332.827,38.35 L363.75,38.35 L363.75,38.35 Z"></path>
                    </g>
                    <g id="Shape">
                        <path d="M66.768,30.486 C60.727,30.486 55.812,35.401 55.812,41.442 C55.812,47.483 60.727,52.398 66.768,52.398 C72.809,52.398 77.724,47.483 77.724,41.442 C77.724,35.401 72.81,30.486 66.768,30.486 L66.768,30.486 Z M66.768,46.174 C64.159,46.174 62.036,44.052 62.036,41.442 C62.036,38.832 64.159,36.71 66.768,36.71 C69.377,36.71 71.5,38.832 71.5,41.442 C71.5,44.052 69.378,46.174 66.768,46.174 L66.768,46.174 Z"></path>
                        <path d="M35.292,41.442 C35.292,35.401 30.377,30.486 24.336,30.486 C18.295,30.486 13.38,35.401 13.38,41.442 C13.38,47.483 18.295,52.398 24.336,52.398 C30.377,52.398 35.292,47.483 35.292,41.442 L35.292,41.442 Z M19.604,41.442 C19.604,38.833 21.726,36.71 24.336,36.71 C26.945,36.71 29.068,38.832 29.068,41.442 C29.068,44.052 26.946,46.174 24.336,46.174 C21.726,46.174 19.604,44.051 19.604,41.442 L19.604,41.442 Z"></path>
                        <path d="M89.048,1.976 C87.817,1.529 86.439,1.9 85.599,2.903 C80.772,8.669 74.74,7.157 64.494,3.986 C58.793,2.222 52.333,0.224 45.552,0.224 C38.771,0.224 32.311,2.223 26.61,3.986 C16.364,7.156 10.332,8.669 5.505,2.903 C4.665,1.899 3.286,1.528 2.056,1.976 C0.826,2.423 0.007,3.592 0.007,4.901 L0.007,41.442 C0.007,53.399 8.68,63.362 20.065,65.388 C18.407,66.32 16.845,67.486 15.435,68.897 C7.118,77.214 7.118,90.699 15.435,99.015 L39.972,123.552 L21.225,123.552 L21.225,129.776 L69.882,129.776 L69.882,123.552 L51.135,123.552 L75.671,99.015 C83.988,90.698 83.988,77.213 75.671,68.897 C74.26,67.486 72.698,66.32 71.041,65.388 C82.425,63.362 91.099,53.399 91.099,41.442 L91.099,4.901 C91.097,3.592 90.278,2.423 89.048,1.976 L89.048,1.976 Z M6.231,41.442 C6.231,31.459 14.352,23.338 24.336,23.338 C34.319,23.338 42.44,31.46 42.44,41.442 C42.44,51.425 34.318,59.547 24.336,59.547 C14.352,59.547 6.231,51.425 6.231,41.442 L6.231,41.442 Z M51.234,92.526 C51.197,92.64 51.166,92.756 51.142,92.875 C51.131,92.929 51.125,92.984 51.117,93.038 C51.11,93.084 51.101,93.129 51.097,93.176 C51.086,93.29 51.08,93.404 51.081,93.517 L51.081,114.802 L45.552,120.331 L39.538,114.318 L39.538,93.517 C39.539,93.404 39.534,93.29 39.522,93.176 C39.517,93.129 39.508,93.085 39.502,93.038 C39.494,92.983 39.488,92.929 39.477,92.874 C39.453,92.755 39.422,92.639 39.385,92.525 C36.693,83.78 30.925,76.193 23.006,70.87 C25.26,69.576 27.822,68.882 30.492,68.882 C34.518,68.882 38.303,70.45 41.15,73.297 L45.551,77.698 L49.953,73.297 C52.8,70.45 56.585,68.882 60.611,68.882 C63.177,68.882 65.644,69.522 67.835,70.721 C59.802,76.051 53.951,83.699 51.234,92.526 L51.234,92.526 Z M45.552,68.897 C42.603,65.948 39.004,64.051 35.217,63.193 C39.566,61.008 43.173,57.559 45.552,53.328 C47.931,57.559 51.538,61.008 55.887,63.193 C52.1,64.05 48.501,65.948 45.552,68.897 L45.552,68.897 Z M15.42,83.956 C15.42,80.768 16.406,77.734 18.229,75.194 C25.523,79.678 30.847,86.303 33.314,93.989 L33.314,108.093 L19.835,94.614 C16.988,91.767 15.42,87.982 15.42,83.956 L15.42,83.956 Z M75.684,83.956 C75.684,87.982 74.116,91.767 71.269,94.614 L57.306,108.577 L57.306,93.99 C59.812,86.185 65.262,79.474 72.73,74.99 C74.647,77.569 75.684,80.683 75.684,83.956 L75.684,83.956 Z M66.768,59.547 C56.785,59.547 48.664,51.425 48.664,41.442 C48.664,31.459 56.786,23.338 66.768,23.338 C76.751,23.338 84.873,31.46 84.873,41.442 C84.873,51.425 76.752,59.547 66.768,59.547 L66.768,59.547 Z M66.768,17.114 C57.668,17.114 49.724,22.139 45.552,29.558 C41.38,22.14 33.435,17.114 24.336,17.114 C17.153,17.114 10.689,20.246 6.231,25.212 L6.231,11.361 C12.969,14.721 20.811,12.296 28.45,9.933 C33.987,8.22 39.713,6.449 45.552,6.449 C51.392,6.449 57.117,8.22 62.654,9.933 C70.293,12.297 78.135,14.724 84.873,11.361 L84.873,25.213 C80.416,20.245 73.952,17.114 66.768,17.114 L66.768,17.114 Z"></path>
                    </g>
                </g>
            </g>
        </g>
    </g>
</svg>