<?xml version="1.0" encoding="utf-8"?>
<!-- Generator: Adobe Illustrator 18.1.1, SVG Export Plug-In . SVG Version: 6.00 Build 0)  -->
<svg version="1.1" id="Layer_1" xmlns="http://www.w3.org/2000/svg" xmlns:xlink="http://www.w3.org/1999/xlink" x="0px" y="0px"
	 viewBox="-743 745 512 512" enable-background="new -743 745 512 512" xml:space="preserve">
<g>
	<path fill="#FFFFFF" d="M-409.4,898.9c-33.6,0-47.8,16.5-71.2,16.5c-24,0-42.3-16.4-71.4-16.4c-28.5,0-58.9,17.9-78.2,48.4
		c-27.1,43-22.5,124,21.4,193c15.7,24.7,36.7,52.4,64.2,52.7c0.2,0,0.3,0,0.5,0c23.9,0,31-16.1,63.9-16.3c0.2,0,0.3,0,0.5,0
		c32.4,0,38.9,16.2,62.7,16.2c0.2,0,0.3,0,0.5,0c27.5-0.3,49.6-31,65.3-55.6c11.3-17.7,15.5-26.6,24.2-46.6
		c-63.5-24.8-73.7-117.4-10.9-152.9C-357.1,913.2-384,898.9-409.4,898.9L-409.4,898.9z"/>
	<path fill="#FFFFFF" d="M-416.8,809c-20,1.4-43.3,14.5-57,31.6c-12.4,15.5-22.6,38.5-18.6,60.8c0.5,0,1,0,1.6,0
		c21.3,0,43.1-13.2,55.8-30.1C-422.7,855.2-413.4,832.4-416.8,809L-416.8,809z"/>
</g>
</svg>
