<svg xmlns="http://www.w3.org/2000/svg" width="135" height="37" viewBox="0 0 135 37">
  <g fill="none" fill-rule="evenodd" transform="translate(1 1)">
    <path fill="#5A5E73" d="M54.689243,9.29482072 L51.438247,9.29482072 L51.438247,10.8247012 C51.438247,11.9243028 50.8406375,12.7609562 49.5976096,12.7609562 L49,12.7609562 L49,15.940239 L51.1035857,15.940239 L51.1035857,21.0318725 C51.1035857,23.3984064 52.6095618,24.8565737 55.0717131,24.8565737 C56.2191235,24.8565737 56.8167331,24.5936255 56.9601594,24.5219124 L56.9601594,21.5099602 C56.7450199,21.5577689 56.3864542,21.6294821 56.0039841,21.6294821 C55.2151394,21.6294821 54.689243,21.3665339 54.689243,20.3864542 L54.689243,15.940239 L57.0079681,15.940239 L57.0079681,12.7609562 L54.689243,12.7609562 L54.689243,9.29482072 Z M62.2191235,17.2788845 L66.9760956,17.2788845 C66.9282869,16.3705179 66.3067729,15.2709163 64.5856574,15.2709163 C63.0557769,15.2709163 62.2908367,16.3944223 62.2191235,17.2788845 Z M67.2390438,20.3625498 L70.2749004,21.2231076 C69.7011952,23.2788845 67.812749,25 64.8007968,25 C61.5258964,25 58.6095618,22.6573705 58.6095618,18.6653386 C58.6095618,14.8406375 61.4541833,12.4023904 64.5378486,12.4023904 C68.2191235,12.4023904 70.4900398,14.6733068 70.4900398,18.498008 C70.4900398,19 70.4422311,19.5498008 70.4183267,19.6215139 L62.1474104,19.6215139 C62.2191235,20.9601594 63.438247,21.9163347 64.8486056,21.9163347 C66.1633466,21.9163347 66.9043825,21.2948207 67.2390438,20.3625498 Z M80.3864542,12.7609562 C80.1474104,12.689243 79.7888446,12.6414343 79.4302789,12.6414343 C78.4741036,12.6414343 76.9681275,13.0239044 76.3466135,14.3625498 L76.3466135,12.7609562 L72.8326693,12.7609562 L72.8326693,24.6414343 L76.4661355,24.6414343 L76.4661355,19.4541833 C76.4661355,17.0876494 77.7808765,16.2270916 79.2390438,16.2270916 C79.5976096,16.2270916 79.9800797,16.250996 80.3864542,16.3466135 L80.3864542,12.7609562 Z M86.0996016,24.6414343 L86.0996016,17.8047809 C86.0996016,16.7290837 86.7928287,15.749004 88.059761,15.749004 C89.374502,15.749004 89.9721116,16.6334661 89.9721116,17.7569721 L89.9721116,24.6414343 L93.5577689,24.6414343 L93.5577689,17.7808765 C93.5577689,16.7290837 94.250996,15.749004 95.5418327,15.749004 C96.8326693,15.749004 97.4302789,16.6334661 97.4302789,17.7569721 L97.4302789,24.6414343 L100.944223,24.6414343 L100.944223,16.9442231 C100.944223,13.7171315 98.7928287,12.4023904 96.5458167,12.4023904 C94.9442231,12.4023904 93.7968127,12.9282869 92.8645418,14.2669323 C92.2669323,13.0956175 91.0478088,12.4023904 89.3505976,12.4023904 C88.059761,12.4023904 86.5298805,13.0717131 85.9322709,14.123506 L85.9322709,12.7609562 L82.4661355,12.7609562 L82.4661355,24.6414343 L86.0996016,24.6414343 Z M107.63745,24.6414343 L107.63745,12.7609562 L104.003984,12.7609562 L104.003984,24.6414343 L107.63745,24.6414343 Z M103.693227,9.12749004 C103.693227,10.2988048 104.649402,11.2549801 105.796813,11.2549801 C106.992032,11.2549801 107.948207,10.2988048 107.948207,9.12749004 C107.948207,7.9561753 106.992032,7 105.796813,7 C104.649402,7 103.693227,7.9561753 103.693227,9.12749004 Z M118.49004,24.6414343 L121.98008,24.6414343 C121.956175,24.4501992 121.860558,23.5896414 121.860558,22.5139442 L121.860558,12.7609562 L118.227092,12.7609562 L118.227092,19.5258964 C118.227092,20.7211155 117.462151,21.5577689 116.243028,21.5577689 C114.952191,21.5577689 114.330677,20.6494024 114.330677,19.501992 L114.330677,12.7609562 L110.697211,12.7609562 L110.697211,20.2669323 C110.697211,22.8007968 112.322709,24.9043825 115.215139,24.9043825 C116.410359,24.9043825 117.772908,24.4741036 118.394422,23.4462151 C118.394422,23.7569721 118.442231,24.4262948 118.49004,24.6414343 Z M124.083665,21.2709163 C124.179283,22.5856574 125.374502,25 129.103586,25 C132.282869,25 133.836653,23.0159363 133.836653,20.9840637 C133.836653,19.2390438 132.641434,17.7569721 130.179283,17.2549801 L128.601594,16.9442231 C128.075697,16.8486056 127.669323,16.561753 127.669323,16.059761 C127.669323,15.438247 128.266932,15.0318725 128.960159,15.0318725 C130.059761,15.0318725 130.561753,15.7011952 130.657371,16.4900398 L133.669323,15.940239 C133.549801,14.5537849 132.354582,12.4023904 128.912351,12.4023904 C126.258964,12.4023904 124.346614,14.1713147 124.346614,16.3466135 C124.346614,18.0199203 125.350598,19.4541833 127.884462,20.0039841 L129.247012,20.314741 C130.131474,20.5059761 130.418327,20.8645418 130.418327,21.2948207 C130.418327,21.8207171 129.964143,22.3227092 129.031873,22.3227092 C127.788845,22.3227092 127.215139,21.5338645 127.167331,20.7211155 L124.083665,21.2709163 Z"/>
    <path fill="#A4B3BA" fill-rule="nonzero" stroke="#A4B3BA" stroke-width=".5" d="M30.3906886,30.0944528 C30.248675,30.0944528 30.1062467,30.091552 29.9637103,30.0857715 C27.9512568,33.140977 24.5397399,35 20.839876,35 L20.839876,32.2135598 C23.8290505,32.2135598 26.5619152,30.5879169 27.9926285,27.9598388 L28.4482791,27.1228538 L29.3935116,27.2440854 C29.7243717,27.2865201 30.05977,27.3080126 30.3906886,27.3080126 C34.6753016,27.3080126 38.1633158,23.8199647 38.1633158,19.5353854 C38.1633158,17.2376263 37.0973279,14.9869533 35.3152924,13.5225438 L34.7657559,13.0709554 L34.8092224,12.3610025 C34.8182377,12.2137513 34.8227978,12.0639205 34.8227978,11.915563 C34.8227978,7.80385063 31.4752918,4.45637818 27.3634846,4.45637818 C25.8823949,4.45637818 24.455692,4.8887502 23.2249717,5.71020508 L22.1876447,6.40257797 L21.385087,5.44794258 C19.9602274,3.75308442 17.8863235,2.78644018 15.6732766,2.78644018 C11.5615307,2.78644018 8.2142202,6.13385126 8.2142202,10.245625 C8.2142202,10.3604532 8.21693685,10.4766172 8.22232359,10.5915702 L8.26667234,11.5379725 L7.40282259,11.927084 C4.5945697,13.1920304 2.78644018,15.9869869 2.78644018,19.0656712 C2.78644018,23.3791083 6.29779076,26.8905602 10.6110724,26.8905602 C11.0696226,26.8905602 11.5292512,26.8505412 11.9778049,26.7715705 L13.024007,26.5873799 L13.4785876,27.5474953 C14.8221206,30.385159 17.7058062,32.2135598 20.839876,32.2135598 L20.839876,35 C16.9715884,35 13.3969595,32.9336052 11.4419,29.6446954 C11.1655827,29.6661997 10.8882239,29.6770004 10.6110724,29.6770004 C4.75886435,29.6770004 0,24.9179988 0,19.0656712 C0,15.1988316 2.10242278,11.6633181 5.43734594,9.79981061 C5.67142804,4.35525451 10.171968,0 15.6732766,0 C18.3104446,0 20.8105916,1.0038097 22.7026778,2.79087177 C24.140645,2.05463483 25.7305168,1.669938 27.3634846,1.669938 C32.9860887,1.669938 37.5635026,6.21934079 37.6088974,11.8313271 C39.7159973,13.8155037 40.949756,16.6359904 40.949756,19.5353854 C40.949756,25.3588671 36.2142161,30.0944528 30.3906886,30.0944528 Z M26.1327206,21.0663011 C25.1864757,21.4282663 24.2548223,21.6115851 23.3586638,21.6115851 C22.4594501,21.6115851 21.5723786,21.4272253 20.724623,21.0646816 C20.6904298,21.0504511 20.6904298,21.0504511 20.6562917,21.0359241 C20.3438762,20.9014692 20.2100827,20.7395738 20.2100827,20.3843636 L20.2100827,19.9100268 C20.2100827,19.4929018 20.4504004,19.2244277 20.8420076,19.2244277 L20.929787,19.2363209 L20.953155,19.2454319 C21.7285766,19.5512461 22.5373157,19.7062122 23.3572513,19.7062122 C24.1804875,19.7062122 25.0424345,19.5501095 25.9188973,19.2417318 L25.9976923,19.2244277 L26.01965,19.2244277 C26.4113595,19.2244277 26.6517032,19.4928757 26.6517032,19.9100268 L26.6517032,20.3843636 C26.6517032,20.761896 26.5221434,20.8987848 26.1601197,21.0545563 L26.1327206,21.0663011 Z M14.5152784,16.5184662 C14.2492883,16.5742931 14.0509713,16.7849728 14.0509713,17.1672836 L14.0509713,17.9625105 C14.0509713,18.2628935 14.235394,18.4692382 14.5223869,18.4692382 C14.5895617,18.4692382 14.6585384,18.4580009 14.7359441,18.4351418 L19.3167913,16.9532807 C19.6645784,16.8373589 19.8554344,16.5583485 19.8554344,16.1763639 L19.8554344,15.5157079 C19.8554344,15.1336152 19.6643577,14.8547677 19.3171036,14.7390164 L14.7458743,13.2601803 C14.664738,13.2295786 14.5835157,13.212561 14.5051803,13.212561 C14.2628285,13.212561 14.0509713,13.3644929 14.0509713,13.7173625 L14.0509713,14.5247881 C14.0509713,14.8924346 14.2430052,15.1025309 14.5092296,15.1722231 L17.0765657,15.8461078 L14.5152784,16.5184662 Z"/>
  </g>
</svg>
