<svg xmlns="http://www.w3.org/2000/svg" viewBox="0 0 220.26 61.85"><g data-name="Layer 2"><path d="M12 49.17h7.65l-.89-27.62h-6zm58.63 4.62h-4.56v-3.13H7.64v3.13H3.13v4.52H0v3.12h73.72v-3.12h-3.13zm-1.58-40.33L36.88 0 4.67 13.46v2h64.38zm-6.15 3.48H10.77v3H62.9zm-8.79 32.23h7.64l-.94-27.62h-6zm-14.1 0h7.79l-.89-27.62h-6.15zm-14.1 0h7.8l-.9-27.62h-6zm84.74-16.7a7 7 0 0 0-1.39-4.38 8 8 0 0 0-3.82-2.66 7 7 0 0 0 2.83-2.54 6.81 6.81 0 0 0 1-3.64 6.33 6.33 0 0 0-2.84-5.43q-2.85-2-8.3-2H83.56v28.45h15.37c3.8 0 6.7-.67 8.71-2a6.57 6.57 0 0 0 3.01-5.8zM91.53 17.62h5.53q4.06 0 4.07 2.73t-4.07 2.76h-5.53zm6.75 16.84h-6.75v-5.78h6.75c2.82 0 4.23 1 4.23 2.89s-1.41 2.89-4.23 2.89zm27.66.28h12l2.23 5.53h8.38L136 11.8h-7.93l-12.58 28.47h8.21zm6-15l3.66 9.11h-7.3zm30.87 5.41l12.59 15.12h6.6V11.8h-7.89V27l-12.54-15.2h-6.63v28.47h7.89zm57.43 15.17L208 24.41l11.65-12.61h-8.87l-11 11.84V11.8h-8v28.47h8v-7.11l3-3.22 8.13 10.33zM83.62 50.08h4.54v11.48h4.19V50.08h4.53v-3.32H83.62zm29.53 5a5.24 5.24 0 0 0-2.34-7.61 8.52 8.52 0 0 0-3.49-.66h-6.77v14.8h4.19v-3.99H107l2.69 3.94h4.48L111 56.91a5.14 5.14 0 0 0 2.15-1.91zM109 53.83a2.92 2.92 0 0 1-1.94.56h-2.33v-4.34h2.33a2.86 2.86 0 0 1 1.94.58 2.27 2.27 0 0 1 0 3.2zm14.06-7.07l-6.53 14.8h4.27l1.2-2.88h6.26l1.17 2.88h4.35l-6.55-14.8zm.13 8.83l1.9-4.73 1.91 4.73zm23.83-1l-6.53-7.88h-3.45v14.8h4.1v-7.84l6.53 7.89h3.45v-14.8H147zm18.19-1.32a21.07 21.07 0 0 0-2.8-.77 13.15 13.15 0 0 1-2.18-.61 1 1 0 0 1-.67-.89 1.09 1.09 0 0 1 .57-1 3.42 3.42 0 0 1 1.82-.37 8.64 8.64 0 0 1 4.1 1.14l1.29-3.11a8.92 8.92 0 0 0-2.5-1 12.57 12.57 0 0 0-2.87-.33 9.16 9.16 0 0 0-3.61.63 5 5 0 0 0-2.21 1.73 4.26 4.26 0 0 0-.74 2.44 3.53 3.53 0 0 0 .81 2.45 4.55 4.55 0 0 0 1.93 1.42 20.52 20.52 0 0 0 2.79.78 12.54 12.54 0 0 1 2.21.64 1 1 0 0 1 .69.94c0 .81-.8 1.21-2.41 1.21a9.35 9.35 0 0 1-4.89-1.46l-1.37 3.09a8.68 8.68 0 0 0 2.75 1.18 13.52 13.52 0 0 0 3.49.44 8.94 8.94 0 0 0 3.59-.64 5.06 5.06 0 0 0 2.22-1.72 4.14 4.14 0 0 0 .74-2.42 3.52 3.52 0 0 0-.81-2.44 4.88 4.88 0 0 0-1.93-1.28zm6.79 8.29h4.19v-5.08h6.53v-3.23h-6.53V50h7.42v-3.24H172zm19.83-5.94h6.58v-3.13h-6.58V50h7.47v-3.24h-11.61v14.8h11.88v-3.24h-7.74zM216.6 55a5.23 5.23 0 0 0-2.33-7.61 8.52 8.52 0 0 0-3.49-.66H204v14.8h4.19v-3.91h2.28l2.69 3.94h4.48l-3.19-4.65A5.11 5.11 0 0 0 216.6 55zm-4.13-1.2a2.93 2.93 0 0 1-1.94.56h-2.33v-4.31h2.33a2.88 2.88 0 0 1 1.94.58 2.27 2.27 0 0 1 0 3.2z" fill="#090097" data-name="Layer 1"/></g></svg>