<svg xmlns="http://www.w3.org/2000/svg" viewBox="0 0 1266 250">
    <g fill="none" fill-rule="evenodd">
        <path fill="#FFF" d="M25.721 1.526h49.984l-9.422 52.182-7.266 41.378-7.265 39.922c-.291 2.33-.581 4.078-.581 6.12 0 12.821 10.463 16.026 28.77 16.026h11.626l-7.265 41.377c-5.814.876-11.045 1.458-18.601 1.458-27.608 0-65.096-7.87-65.096-48.954 0-5.247.579-10.199 1.452-15.444l7.264-40.505 7.267-41.378 9.133-52.182zm498.037 48.685L500.51 182.212c-7.556 43.42-38.94 66.73-77.884 66.73-25.574 0-54.054-10.197-73.234-32.635l29.06-33.51c14.53 12.53 26.737 21.272 44.174 21.272 14.53 0 24.991-6.122 28.191-23.314l.871-5.535c-9.3 6.411-20.634 10.2-33.712 10.2-30.515 0-50.277-21.274-50.277-48.665 0-4.662.582-10.78 1.454-15.443l12.498-71.1h49.983l-12.205 69.351c-.29 1.75-.582 3.788-.582 5.535 0 10.492 8.43 18.066 19.763 18.066 10.461 0 20.05-6.409 22.086-18.648l13.078-74.305h49.985zm-378.17 60.027h50.566c-.29-13.986-10.752-21.27-22.666-21.27-12.498 0-23.25 7.866-27.9 21.27zm95.814 2.623c0 10.781-2.614 21.855-5.81 29.432h-91.544c4.65 11.365 15.401 16.317 31.094 16.317 13.95 0 26.447-4.078 38.943-11.074l15.983 33.222c-18.309 12.82-37.778 19.231-59.285 19.231-46.207 0-77.012-29.722-77.012-70.227 0-44.292 36.617-79.55 81.954-79.55 40.975 0 65.677 29.138 65.677 62.65zm27.27-21.486h-22.43l6.868-41.209h22.796l8.514-48.64h49.983l-8.782 48.64h38.295l-6.868 41.21h-38.68l-.653 3.71-7.264 39.922c-.292 2.33-.582 4.08-.582 6.12 0 12.82 10.463 16.025 28.771 16.025h11.624L343 198.531c-5.813.876-11.045 1.458-18.6 1.458-27.61 0-65.097-7.869-65.097-48.955 0-5.246.58-10.198 1.453-15.442l7.264-40.506.652-3.71z"/>
        <path fill="#FCD31B" d="M1036.599 67.375c9.591-11.346 23.54-17.164 40.105-17.164 38.069 0 62.19 31.418 62.19 67.198 0 34.91-23.249 82.618-77.884 82.618-19.181 0-32.547-5.82-40.976-16.001l-11.043 64.578h-49.987l34.293-194.903h45.627l-2.325 13.674zm-6.395 58.764c-.289 17.453 11.335 29.086 27.03 29.086 17.144 0 30.223-14.252 30.513-32.288.289-16.871-11.043-27.927-26.737-27.927-17.146 0-30.514 13.091-30.806 31.129zm-221.572 2.287c0-44.507 38.652-77.96 83.116-77.96 43.01 0 75.849 31.127 75.849 71.855 0 44.504-38.942 77.668-83.697 77.668-43.301 0-75.268-31.125-75.268-71.563zm51.146-1.162c-.291 16.874 10.755 27.927 26.157 27.927 16.856 0 30.226-13.091 30.515-31.127.289-17.455-11.335-28.799-26.737-28.799-16.856 0-29.642 13.965-29.935 31.999zm294.575-30.546c0-28.798 22.959-46.252 54.345-46.252 24.411 0 43.882 8.727 57.25 25.018l-27.899 27.925c-9.009-9.599-19.759-14.252-28.188-14.252-5.814 0-8.429 2.325-8.429 5.816 0 3.783 2.906 5.527 7.847 7.563l13.078 4.946c23.541 9.308 39.231 21.817 39.231 42.762 0 20.946-15.402 49.745-59.284 49.745-28.189 0-52.601-11.927-65.388-32.871l29.353-27.055c10.752 12.509 21.503 21.236 36.325 21.236 6.393 0 12.205-1.746 12.205-6.401 0-3.49-2.905-5.525-7.846-7.563l-13.658-5.235c-23.25-9.308-38.942-21.818-38.942-45.382zm-478.035-94.3h49.985l-11.249 62.594c8.719-6.693 19.762-11.056 34.003-11.056 29.934 0 50.275 19.78 50.275 49.163 0 5.237-.582 10.471-1.744 16.869l-13.948 80.001h-49.985l13.368-77.671c.582-2.33.871-4.945.871-7.273 0-11.343-8.138-18.326-19.76-18.326-10.752 0-19.763 6.108-22.089 19.783l-14.528 83.487h-49.988L676.318 2.418zm-145.437 94.3c0-28.798 22.96-46.252 54.347-46.252 24.41 0 43.883 8.727 57.25 25.018l-27.899 27.925c-9.009-9.599-19.762-14.252-28.189-14.252-5.812 0-8.429 2.325-8.429 5.816 0 3.783 2.906 5.527 7.846 7.563l13.078 4.946c23.541 9.308 39.234 21.817 39.234 42.762 0 20.946-15.403 49.745-59.285 49.745-28.191 0-52.602-11.927-65.388-32.871l29.352-27.055c10.751 12.509 21.506 21.236 36.327 21.236 6.392 0 12.206-1.746 12.206-6.401 0-3.49-2.907-5.525-7.847-7.563l-13.66-5.235c-23.248-9.308-38.943-21.818-38.943-45.382z"/>
    </g>
</svg>
