<svg id="Lager_1" data-name="Lager 1" xmlns="http://www.w3.org/2000/svg" viewBox="0 0 32 32"><defs><style>.cls-1{fill:#19b91c}</style></defs><path class="cls-1" d="M16 0A16 16 0 0 0 0 16a15 15 0 0 0 3 9.3.5.5 0 0 1 0 .2.5.5 0 0 1 0 .3L.6 28.1A2.3 2.3 0 0 0 2 32a2.3 2.3 0 0 0 1.8-.7l2.3-2.2a.4.4 0 0 1 .5-.1 15.8 15.8 0 0 0 9.3 3 16 16 0 0 0 0-32zm0 28A12.3 12.3 0 0 1 4 16a12 12 0 1 1 12 12z"/><path class="cls-1" d="M22.7 12.2L16 7.6a.3.3 0 0 0-.4 0L9 12.1a.4.4 0 0 0-.1.3v8.8a.5.5 0 0 0 .5.5H13a.5.5 0 0 0 .5-.5v-5a.5.5 0 0 1 .5-.4h3.6a.5.5 0 0 1 .5.4v5a.5.5 0 0 0 .5.5h3.7a.5.5 0 0 0 .5-.5v-8.8a.4.4 0 0 0 0-.3z"/></svg>