<svg xmlns="http://www.w3.org/2000/svg" width="153" height="31" viewBox="0 0 153 31">
    <g fill="#FFF" fill-rule="evenodd">
        <path d="M53.478 14.718c-.304-3.1-2.082-5.737-5.463-5.737-2.948 0-5.19 2.445-5.56 5.737h11.023zm-4.982 7.72c2.355 0 4.005-.96 5.399-2.414l1.586 1.422c-1.714 1.918-3.797 3.197-7.05 3.197-4.693 0-8.539-3.596-8.539-8.918 0-4.954 3.477-8.917 8.203-8.917 5.063 0 7.979 4.027 7.979 9.045 0 .224 0 .495-.032.895h-13.57c.352 3.612 3.012 5.69 6.024 5.69zM58.75 15.741c0-4.826 3.764-8.917 8.763-8.917 3.236 0 5.255 1.358 6.841 3.036l-1.682 1.79c-1.362-1.422-2.884-2.573-5.191-2.573-3.477 0-6.12 2.94-6.12 6.6v.064c0 3.692 2.707 6.632 6.28 6.632 2.18 0 3.877-1.086 5.223-2.54l1.618 1.517c-1.714 1.918-3.765 3.292-6.969 3.292-4.999 0-8.764-4.059-8.764-8.837v-.064zM150.07 14.718c-.304-3.1-2.082-5.737-5.463-5.737-2.948 0-5.19 2.445-5.559 5.737h11.023zm-4.998 7.72c2.355 0 4.005-.96 5.4-2.414l1.585 1.422c-1.714 1.918-3.797 3.197-7.05 3.197-4.693 0-8.538-3.596-8.538-8.918 0-4.954 3.476-8.917 8.202-8.917 5.063 0 7.979 4.027 7.979 9.045 0 .224 0 .495-.032.895h-13.57c.368 3.612 3.012 5.69 6.024 5.69zM112.1 15.773v-.064c0-4.027-2.771-6.6-6.024-6.6-3.172 0-6.184 2.669-6.184 6.568v.064c0 3.963 3.012 6.6 6.184 6.6 3.3 0 6.024-2.445 6.024-6.568m-12.112 5.21v3.26h-2.547V.16h2.547v10.467c1.394-2.045 3.413-3.787 6.553-3.787 4.101 0 8.17 3.228 8.17 8.837v.064c0 5.577-4.037 8.885-8.17 8.885-3.172-.015-5.223-1.725-6.553-3.643M91.721 15.805v-.064c0-3.66-2.74-6.664-6.344-6.664-3.701 0-6.249 3.005-6.249 6.6v.064c0 3.66 2.708 6.632 6.313 6.632 3.7 0 6.28-2.972 6.28-6.568m-15.22 0v-.064c0-4.826 3.765-8.917 8.94-8.917 5.127 0 8.908 4.027 8.908 8.837v.064c0 4.826-3.797 8.917-8.972 8.917-5.143 0-8.876-4.01-8.876-8.837M131.198 14.718c-.305-3.1-2.083-5.737-5.464-5.737-2.948 0-5.19 2.445-5.56 5.737h11.024zm-4.983 7.72c2.355 0 4.005-.96 5.4-2.414l1.585 1.422c-1.714 1.918-3.797 3.197-7.05 3.197-4.694 0-8.539-3.596-8.539-8.918 0-4.954 3.477-8.917 8.203-8.917 5.063 0 7.979 4.027 7.979 9.045 0 .224 0 .495-.032.895h-13.57c.352 3.612 3.012 5.69 6.024 5.69zM27.973 28.046c-.257.368-4.47-.287-5.8-7.287s1.698-7.575 1.698-7.575 3.83-1.102 5.704 6.904c1.714 7.287-1.602 7.958-1.602 7.958m-11.776-9.652l-.016-.016s-.016 0-.016-.016h-.016c-2.05-1.358-2.788-2.589-2.788-2.589 1.746-.256 3.797-1.326 3.797-1.326l1.138.799.016.016h.016l1.153.767s-.256 2.301.144 4.01c0 0-1.41-.239-3.428-1.645M2.755 10.979s-.593-3.356 6.89-4.443c8.218-1.198 8.603 2.797 8.603 2.797s.576 3.036-6.489 4.379c-7.081 1.326-9.244-2.366-9.004-2.733m19.77-8.55a1.868 1.868 0 0 1 .497 2.59 1.879 1.879 0 0 1-2.595.494 1.865 1.865 0 0 1-.497-2.588c.577-.863 1.73-1.071 2.595-.496m6.217 4.22a1.868 1.868 0 0 1 .496 2.588 1.879 1.879 0 0 1-2.595.495 1.868 1.868 0 0 1-.497-2.588c.577-.863 1.73-1.071 2.596-.496M32.25 21.43c-.512-4.267-2.803-7.67-3.7-8.645 0 0-.08-.032-.017-.208.064-.176.225-.687.225-.687s0-.048.096-.08 1.17-.256 1.986-1.454c.817-1.199 1.362-3.708-1.458-5.626 0 0-.016-.016-.032-.127-.016-.112-.48-2.174-1.714-3.005-1.25-.847-3.316-.511-3.428-.48-.129.017-.145.017-.145.017-2.803-1.902-4.95-.496-5.783.703-.817 1.198-.625 2.27-.625 2.381 0 .112-.048.128-.048.128s-.417.335-.56.463c-.145.128-.193.064-.193.064-1.234-.463-5.255-1.342-9.42-.255C3.267 5.705 1.617 7.239.72 8.582c-.913 1.342-1.425 4.011 1.426 5.96 2.852 1.934 6.921 1.759 6.921 1.759.129-.017.145.08.145.08.993 3.5 4.261 5.545 4.486 5.689.208.16 3.332 2.445 6.953 2.077 0 0 .096-.016.128.096 0 0 1.314 3.835 4.182 5.77 2.851 1.949 5.174.479 6.088-.848.88-1.39 1.714-3.484 1.201-7.735m-13.842 4.3s-2.74.11-5.88-2.015c-3.14-2.14-4.037-4.73-4.037-4.73-.064-.207-.144-.08-.144-.08-.85 1.23-1.106 1.95-.625 3.916.464 1.901 2.755 3.515 2.916 3.627.16.112 2.515 1.646 4.453 1.375 2.003-.288 2.58-.767 3.429-2.014.016.016.112-.096-.112-.08m-6.168 3.324s-1.33 0-2.724-.927l-.705 1.04.705-1.04c-1.394-.943-1.874-2.189-1.874-2.189-.225-.336-.273 0-.273 0-.769 2.956.545 4.25.657 4.347v.016c.128.064 1.81.815 4.294-.975.016-.016.32-.192-.08-.272"/>
    </g>
</svg>
