<?xml version="1.0" encoding="UTF-8" standalone="no"?>
<svg width="1707px" height="302px" viewBox="0 0 1707 302" version="1.1" xmlns="http://www.w3.org/2000/svg" xmlns:xlink="http://www.w3.org/1999/xlink">
    <!-- Generator: Sketch 3.6.1 (26313) - http://www.bohemiancoding.com/sketch -->
    <title>Artboard</title>
    <desc>Created with Sketch.</desc>
    <defs></defs>
    <g id="Page-1" stroke="none" stroke-width="1" fill="none" fill-rule="evenodd">
        <g id="Artboard">
            <path d="M111.460186,72.5413256 L76.3588353,72.5413256 L76.5571471,35.0602103 L24.5992141,42.7944076 L24.5992141,71.7480646 L1.00000001,75.3176921 L1.00000001,98.3219654 L25.3924644,98.3219654 L25.1941525,199.263154 C25.3652726,202.894609 31.1961801,235.650085 66.641511,233.571253 C106.847487,231.213207 110.27031,226.630303 113.83994,224.25056 C113.556501,224.545361 113.83994,204.617596 113.83994,204.617596 L92.0255404,205.212525 C92.0255404,205.212525 79.7301508,204.419277 77.7470239,190.735696 C77.6709786,190.74643 77.3503987,98.7186027 77.3503987,98.7186027 L111.460186,98.9169078 L111.460186,72.5413256 L111.460186,72.5413256 Z" id="path2384" fill="#B2C9D9"></path>
            <path d="M186.967757,1.00000035 L116.81463,11.0643708 L116.913787,24.4504805 L135.555187,32.7796202 L135.753492,207.988904 L118.103664,214.929854 L118.301975,229.30753 L204.369701,229.406683 L204.369701,215.128173 L187.01734,207.592281 L187.116493,103.973891 C187.116493,103.973891 196.932975,99.6110028 210.51739,99.6110028 C224.101819,99.6110028 230.34866,108.336766 230.34866,113.691207 L230.34866,207.889752 L214.483641,214.929854 L214.483641,229.406683 L300.35306,229.406683 L300.35306,215.524797 L282.703227,206.898186 L282.703227,100.701722 C282.703227,100.701722 283.099838,66.9885658 244.032241,68.6742135 C220.26204,68.8180002 203.427718,76.3092582 186.868605,89.3978968 C186.868605,89.3483137 186.868591,1.09916641 186.967757,1.00000035 L186.967757,1.00000035 Z" id="path2396" fill="#B2C9D9"></path>
            <path d="M397.5879,134.800592 L353.97691,136.763794 C353.97691,136.763794 353.688662,114.480153 358.13146,100.33146 C361.676869,89.0406481 368.845885,85.3126301 377.114573,85.3000219 C390.887449,85.2790129 394.329485,93.0021663 395.877522,102.490244 C398.105131,116.143538 397.739185,134.649308 397.5879,134.800592 L397.5879,134.800592 Z M448.630992,155.133693 L354.117136,155.133693 C354.117136,155.133693 353.55716,201.005815 402.355665,201.338913 C422.969219,201.47914 442.601173,195.58956 442.601173,195.58956 L442.601173,210.383629 C442.601173,210.383629 427.456517,232.399478 385.668502,233.801759 C332.775883,232.986639 304.617605,212.685969 300.690162,158.078496 C300.269482,124.283475 308.900165,71.9932963 377.2548,68.7530852 C447.008817,65.4465296 450.623901,120.563237 448.630992,155.133693 L448.630992,155.133693 Z" id="path2400" fill="#B2C9D9"></path>
            <path d="M560.737667,114.484455 L560.737667,129.457073 C560.737667,129.457073 563.315728,156.427598 542.889516,156.526751 C522.463304,156.625917 523.058246,140.860051 523.058246,129.457073 L523.058246,111.807241 C523.058246,111.807241 521.868362,86.2248931 541.203855,86.1257405 C560.539348,86.0265879 560.638501,106.056163 560.737667,114.484455 L560.737667,114.484455 Z M623.801103,67.4843422 L580.271465,75.5160107 C580.271465,75.5160107 557.663816,67.286037 541.600479,67.286037 C530.791985,67.286037 475.062778,71.5700943 473.03071,120.497311 C471.596093,155.039421 500.748068,167.929741 500.549749,167.929741 C500.351431,167.929741 472.785964,184.984631 472.587659,206.204091 C472.38934,227.42355 497.575064,233.372934 497.575064,233.372934 C497.62694,232.85418 459.495231,239.161837 459.49902,265.102971 C459.502526,289.099633 499.16156,300.799259 541.203855,300.997578 C583.24615,301.195883 629.453016,289.297129 629.453016,239.520636 C629.453016,189.744143 581.064713,195.495208 581.064713,195.495208 L518.794524,195.495208 C518.794524,195.495208 509.473818,194.503642 509.077194,184.984631 C508.680571,175.46562 515.423202,173.085864 515.423202,173.085864 C515.423202,173.085864 528.710159,177.052129 542.592045,177.052129 C556.473931,177.052129 611.009936,171.301468 611.009936,124.102632 C611.009936,102.661917 594.153351,90.3894629 594.153351,90.3894629 L624.310364,98.4700133 L623.801103,67.4843422 L623.801103,67.4843422 Z M509.275513,242.991098 C509.275513,242.991098 502.235411,247.651457 502.235411,258.955282 C502.235411,270.259107 512.547669,281.959555 541.303008,281.959555 C570.058359,281.959555 584.039411,271.949461 584.039411,255.187336 C584.039411,244.278341 571.644854,242.891945 571.644854,242.891945 L509.275513,242.991098 L509.275513,242.991098 Z" id="path3181" fill="#00417B"></path>
            <path d="M699.457416,68.3767558 L629.254711,79.2839568 L629.254711,92.9675242 L647.301167,101.693288 L647.301167,189.942449 C647.301167,189.942449 648.239509,233.28113 690.731652,233.769558 C725.238069,234.166181 742.491277,210.170342 742.491277,210.170342 L742.491277,233.372934 L810.512531,225.242113 L810.512531,212.748417 L793.130302,202.712769 L793.130302,68.7733795 L723.254936,79.6805806 L723.254936,92.7692191 L741.698016,102.089911 L741.698016,196.288456 C741.698016,196.288456 736.938517,200.254707 721.668441,201.444592 C706.398352,202.634463 699.457416,188.157635 699.457416,188.157635 L699.457416,68.3767558 L699.457416,68.3767558 Z" id="path3188" fill="#00417B"></path>
            <path d="M824.86344,79.6908828 C824.86344,79.6908828 858.377994,67.4910305 886.002969,67.4910305 C913.627943,67.4910305 953.592997,76.88632 953.592997,111.242248 L953.592997,206.457238 L970.700841,215.431847 L970.700841,226.790339 C970.700841,226.790339 958.500989,233.381065 940.551771,233.381065 C922.602552,233.381065 907.037217,224.266229 907.037217,210.523855 C903.136325,210.593989 901.716662,233.100612 859.640048,233.100612 C810.560159,233.100612 814.346323,189.629848 814.346323,188.788487 C814.346323,187.947113 812.935074,156.337359 848.702251,149.524567 C884.039767,142.793614 900.446476,140.129264 900.446476,140.129264 L900.273657,108.157218 C900.273657,108.157218 897.36146,88.8057187 880.674297,88.9459455 C863.987133,89.0861858 864.12736,89.2264126 864.12736,89.2264126 L852.348188,121.338685 L824.723213,121.338685 L824.86344,79.6908828 L824.86344,79.6908828 Z M901.778651,199.515938 L901.778651,156.325641 C901.778651,156.325641 866.579812,153.170585 866.511242,181.356386 C866.459623,202.575535 879.793844,205.054957 885.862742,205.054957 C892.804784,204.611541 897.412891,202.167598 901.778651,199.515938 L901.778651,199.515938 Z" id="path3190" fill="#00417B"></path>
            <path d="M1042.49773,66.9301099 L973.926098,77.7276942 L973.926098,92.0309754 L991.594862,100.444677 L991.594862,206.597465 L975.188152,215.011167 L975.188152,228.473087 L1065.49515,228.473087 L1065.49515,215.572087 L1043.90001,206.877932 L1044.04024,119.235256 C1044.04024,119.235256 1057.7826,113.766357 1071.6652,113.766357 C1085.5478,113.766357 1092.41899,115.308866 1092.41899,115.308866 L1092.41899,69.4542191 C1092.41899,69.4542191 1063.0328,60.250061 1042.21726,101.286038 C1042.21727,101.426265 1042.49773,66.9301099 1042.49773,66.9301099 L1042.49773,66.9301099 Z" id="path3195" fill="#00417B"></path>
            <path d="M1178.37892,14.6249635 L1178.37892,28.5075643 L1195.62699,36.7810394 L1195.62699,74.3622108 C1195.62699,74.3622108 1183.56736,68.6128584 1168.98362,68.6128584 C1154.39988,68.6128584 1094.80286,70.8565005 1093.12013,152.74981 C1091.43739,234.64312 1155.10103,233.521305 1154.54011,233.521305 C1153.9792,233.521305 1183.70759,234.362666 1197.1695,216.974369 C1197.09939,216.974369 1197.02927,233.451185 1197.02927,233.451185 L1264.40897,225.24783 L1264.40897,211.92615 L1248.21259,203.652675 L1248.07236,3.68716587 L1178.37892,14.6249635 L1178.37892,14.6249635 Z M1195.55688,95.8171392 L1195.55688,202.250394 C1195.55688,202.250394 1189.99745,205.054957 1179.64097,205.054957 C1162.79936,205.054957 1148.54858,193.594049 1148.65051,156.676201 C1148.73992,124.423823 1153.44723,99.0846837 1167.5532,92.4507658 C1181.65356,85.8194908 1194.9029,94.9298767 1195.55688,95.8171392 L1195.55688,95.8171392 Z" id="path3197" fill="#00417B"></path>
            <path d="M1341.19753,29.8049082 C1341.19753,45.6231349 1328.35954,58.4611209 1312.5413,58.4611209 C1296.72308,58.4611209 1283.88509,45.6231349 1283.88509,29.8049082 C1283.88509,13.9866815 1296.72308,1.1486955 1312.5413,1.1486955 C1328.35954,1.1486955 1341.19753,13.9866815 1341.19753,29.8049082 L1341.19753,29.8049082 Z M1340.00751,67.5834947 L1268.81324,77.6974482 L1268.81324,91.3810291 L1287.45464,100.503416 L1287.45464,206.799033 L1270.39973,214.53323 L1270.39973,229.010059 L1356.07082,229.010059 L1356.07082,215.128173 L1339.80919,207.195657 L1340.00751,67.5834947 L1340.00751,67.5834947 Z" id="path3220" fill="#00417B"></path>
            <path d="M1372.50792,79.5140183 C1372.50792,79.5140183 1406.02252,67.314166 1433.64743,67.314166 C1461.27247,67.314166 1501.23744,76.7094554 1501.23744,111.065384 L1501.23744,206.280373 L1518.34527,215.254982 L1518.34527,226.613474 C1518.34527,226.613474 1506.14545,233.204201 1488.19631,233.204201 C1470.24704,233.204201 1454.68171,224.089365 1454.68171,210.346991 C1450.78088,210.417124 1449.36108,232.923747 1407.28455,232.923747 C1358.20463,232.923747 1361.99085,189.452983 1361.99085,188.611622 C1361.99085,187.770248 1360.57954,156.160494 1396.34675,149.347702 C1431.6842,142.616749 1448.09096,139.952399 1448.09096,139.952399 L1447.91809,107.980354 C1447.91809,107.980354 1445.00594,88.6288541 1428.31883,88.7690809 C1411.63159,88.9093212 1411.77183,89.049548 1411.77183,89.049548 L1399.99273,121.161821 L1372.36768,121.161821 L1372.50792,79.5140183 L1372.50792,79.5140183 Z M1449.42311,199.339073 L1449.42311,156.148776 C1449.42311,156.148776 1414.22428,152.99372 1414.15578,181.179521 C1414.10413,202.398671 1427.43829,204.878092 1433.50719,204.878092 C1440.44921,204.434676 1445.05732,201.990733 1449.42311,199.339073 L1449.42311,199.339073 Z" id="path3224" fill="#00417B"></path>
            <path d="M1590.87309,67.186871 L1520.86865,78.2923906 L1520.86865,91.5793343 L1539.70845,100.503416 L1539.70845,207.592281 L1522.45525,214.53323 L1522.45525,229.406683 L1608.12629,229.406683 L1608.12629,214.731536 L1592.26134,207.195657 L1592.26134,103.67642 C1592.26134,103.67642 1600.78875,99.7101688 1613.28241,99.7101688 C1625.7762,99.7101688 1635.4935,105.262915 1635.4935,117.558306 L1635.4935,207.195657 L1617.9156,215.833379 L1617.84359,229.010059 L1705.10122,229.010059 L1705.10122,214.929854 L1688.04639,207.790599 L1688.04639,108.435919 C1688.04639,108.435919 1689.23627,68.7733795 1648.97868,68.7733795 C1608.72123,68.7733795 1591.07145,89.9928392 1591.07145,89.9928392 L1590.87309,67.186871 L1590.87309,67.186871 Z" id="path3228" fill="#00417B"></path>
        </g>
    </g>
</svg>