<?xml version="1.0" encoding="UTF-8" standalone="no"?>
<svg width="290px" height="80px" viewBox="0 0 290 80" version="1.1" xmlns="http://www.w3.org/2000/svg" xmlns:xlink="http://www.w3.org/1999/xlink">
    <!-- Generator: Sketch 3.6.1 (26313) - http://www.bohemiancoding.com/sketch -->
    <title>Artboard</title>
    <desc>Created with Sketch.</desc>
    <defs></defs>
    <g id="Page-1" stroke="none" stroke-width="1" fill="none" fill-rule="evenodd">
        <g id="Artboard" fill="#A2C056">
            <g id="Group" transform="translate(201.000000, 1.000000)">
                <path d="M16.637,43.182 L16.327,42.625 L16.149,42.313 L16.149,42.311 L16.149,42.311 L28.559,21.273 L28.962,20.585 L29.1,20.355 L28.24,20.355 L21.295,20.355 L21.295,20.356 L20.842,21.108 L20.842,21.108 L21.018,20.818 L20.842,21.108 L13.323,33.56 L9.802,39.394 C9.614,39.717 9.448,40.005 9.31,40.267 C9.289,40.298 9.275,40.329 9.259,40.357 C9.208,40.453 9.157,40.545 9.114,40.628 C9.093,40.668 9.076,40.707 9.054,40.744 C9.027,40.801 8.998,40.852 8.976,40.911 C8.965,40.926 8.956,40.942 8.951,40.96 C8.931,41.001 8.917,41.04 8.898,41.078 C8.871,41.141 8.843,41.203 8.818,41.266 C8.804,41.301 8.794,41.34 8.777,41.376 C8.756,41.434 8.736,41.49 8.722,41.545 C8.709,41.581 8.701,41.617 8.691,41.65 C8.673,41.704 8.666,41.757 8.655,41.806 C8.648,41.841 8.64,41.874 8.636,41.91 C8.626,41.961 8.622,42.012 8.618,42.064 C8.613,42.093 8.611,42.125 8.611,42.158 C8.607,42.211 8.611,42.263 8.613,42.314 C8.613,42.343 8.613,42.373 8.618,42.398 C8.626,42.459 8.636,42.513 8.642,42.576 C8.648,42.597 8.648,42.621 8.654,42.642 C8.671,42.714 8.691,42.788 8.715,42.862 C8.72,42.875 8.722,42.883 8.726,42.892 C8.833,43.23 9.017,43.599 9.275,44.062 C9.289,44.085 9.3,44.109 9.314,44.132 C9.388,44.259 9.463,44.394 9.543,44.532 L22.579,67.261 L30.069,67.261 L30.126,67.261 L16.637,43.182 L16.637,43.182 Z" id="Shape"></path>
                <path d="M0.971,0.286 L0.971,0.693 L0.971,1.203 L0.971,30.396 L0.971,67.27 L1.428,67.27 L7.832,67.27 L7.832,1.203 L7.832,0.516 L7.832,0.286 L0.971,0.286 Z" id="Shape"></path>
            </g>
            <path d="M288.589,21.721 C288.108,21.52 287.619,21.34 287.108,21.185 C286.964,21.143 286.826,21.103 286.677,21.064 C286.671,21.062 286.656,21.059 286.647,21.057 C286.526,21.024 286.399,20.993 286.268,20.962 C286.254,20.959 286.239,20.957 286.223,20.953 C286.11,20.927 285.994,20.9 285.874,20.877 C285.862,20.876 285.853,20.874 285.846,20.872 C285.057,20.716 284.188,20.614 283.19,20.584 C283.085,20.582 282.983,20.581 282.878,20.581 L282.878,20.581 L282.878,20.581 L282.857,20.581 C282.613,20.582 282.375,20.589 282.13,20.602 C282.064,20.604 281.997,20.61 281.927,20.616 C281.76,20.627 281.593,20.637 281.424,20.656 C281.335,20.663 281.247,20.675 281.16,20.684 C281.014,20.702 280.871,20.72 280.724,20.741 C280.636,20.754 280.548,20.767 280.457,20.782 C280.311,20.806 280.169,20.833 280.025,20.86 C279.968,20.874 279.911,20.881 279.851,20.892 C279.828,20.897 279.802,20.906 279.779,20.911 C279.614,20.945 279.451,20.984 279.29,21.027 C279.23,21.043 279.174,21.055 279.115,21.069 C278.9,21.128 278.693,21.189 278.482,21.257 C278.47,21.261 278.46,21.263 278.447,21.267 C278.426,21.273 278.403,21.285 278.383,21.29 C278.087,21.389 277.799,21.493 277.517,21.608 C277.484,21.622 277.455,21.632 277.421,21.645 C277.138,21.762 276.855,21.892 276.579,22.029 C276.551,22.045 276.519,22.056 276.487,22.071 C276.464,22.085 276.437,22.099 276.411,22.112 C276.22,22.213 276.029,22.313 275.843,22.422 C275.841,22.423 275.837,22.426 275.833,22.427 C275.808,22.442 275.783,22.456 275.759,22.47 C275.577,22.578 275.396,22.69 275.214,22.806 C275.171,22.835 275.128,22.866 275.083,22.894 C275.062,22.91 275.043,22.921 275.02,22.936 C274.887,23.026 274.757,23.12 274.625,23.212 C274.593,23.234 274.563,23.258 274.531,23.281 C274.5,23.302 274.469,23.326 274.436,23.348 C274.268,23.474 274.104,23.602 273.946,23.735 C273.944,23.736 273.944,23.737 273.944,23.738 C273.917,23.759 273.885,23.784 273.86,23.805 C273.86,23.806 273.858,23.807 273.858,23.807 C273.699,23.941 273.545,24.078 273.393,24.217 C273.333,24.27 273.281,24.326 273.221,24.381 C273.108,24.487 272.997,24.598 272.885,24.71 C272.86,24.737 272.833,24.764 272.807,24.792 C272.78,24.822 272.751,24.85 272.725,24.879 C272.676,24.928 272.63,24.981 272.583,25.031 C272.488,25.133 272.395,25.232 272.309,25.337 L272.307,25.337 C272.28,25.365 272.258,25.392 272.235,25.42 C272.233,25.422 272.229,25.423 272.229,25.423 C272.1,25.581 271.967,25.737 271.844,25.9 C271.795,25.963 271.749,26.022 271.7,26.086 C271.629,26.182 271.559,26.279 271.489,26.377 C271.466,26.407 271.442,26.437 271.424,26.467 C271.401,26.498 271.379,26.53 271.358,26.562 C271.337,26.593 271.315,26.625 271.295,26.657 C271.177,26.83 271.061,27.004 270.951,27.181 C270.951,27.182 270.951,27.183 270.949,27.184 C270.93,27.21 270.916,27.238 270.899,27.265 C270.832,27.376 270.768,27.493 270.705,27.604 C270.668,27.671 270.623,27.738 270.589,27.806 C270.579,27.82 270.569,27.833 270.567,27.846 C270.541,27.899 270.51,27.952 270.481,28.006 C270.409,28.146 270.335,28.287 270.262,28.43 L270.262,28.433 C270.241,28.475 270.219,28.515 270.2,28.558 C270.185,28.582 270.178,28.609 270.164,28.634 C270.111,28.741 270.064,28.852 270.018,28.962 C269.979,29.05 269.936,29.137 269.899,29.225 C269.895,29.234 269.893,29.245 269.889,29.253 C269.884,29.264 269.876,29.275 269.874,29.29 C269.85,29.348 269.828,29.406 269.809,29.465 C269.75,29.605 269.694,29.745 269.643,29.885 C269.618,29.956 269.593,30.026 269.573,30.093 C269.516,30.248 269.469,30.403 269.42,30.559 C269.409,30.596 269.399,30.631 269.389,30.667 C269.379,30.702 269.368,30.732 269.358,30.767 C269.296,30.986 269.235,31.205 269.18,31.426 L269.18,31.427 L269.178,31.427 L269.178,31.429 L269.178,31.44 C269.097,31.777 269.03,32.119 268.973,32.461 C268.969,32.47 268.969,32.48 268.965,32.489 C268.944,32.623 268.925,32.755 268.907,32.887 C268.897,32.96 268.886,33.033 268.876,33.104 C268.871,33.137 268.871,33.171 268.867,33.208 C268.842,33.435 268.817,33.665 268.805,33.894 C268.803,33.907 268.801,33.919 268.801,33.933 C268.799,33.942 268.799,33.953 268.797,33.959 C268.786,34.168 268.781,34.38 268.777,34.59 C268.773,34.666 268.771,34.743 268.771,34.819 L268.771,34.82 L268.771,35.737 L268.771,35.741 L268.771,68.27 L269.228,68.27 L275.631,68.27 L275.631,34.82 L275.631,34.819 C275.631,32.9 276.501,30.881 277.875,29.439 C277.992,29.315 278.113,29.198 278.238,29.082 C278.351,28.981 278.463,28.885 278.581,28.792 C279.384,28.141 280.31,27.683 281.314,27.515 C281.437,27.495 281.56,27.479 281.687,27.467 C281.839,27.452 281.992,27.444 282.148,27.444 L289.607,27.616 C289.67,26.506 289.73,25.3 289.795,23.946 C289.797,23.851 289.805,23.758 289.809,23.662 C289.809,23.639 289.811,23.612 289.811,23.589 C289.819,23.392 289.831,23.192 289.836,22.986 L289.836,22.986 C289.836,22.971 289.84,22.957 289.84,22.942 L289.84,22.9 L289.84,22.898 C289.85,22.701 289.858,22.502 289.864,22.298 C289.445,22.091 289.02,21.898 288.589,21.721 L288.589,21.721 Z" id="Shape"></path>
            <path d="M260.615,33.527 C260.612,33.503 260.61,33.477 260.61,33.451 C260.596,33.255 260.584,33.058 260.565,32.866 L260.565,32.849 C260.561,32.818 260.553,32.787 260.551,32.756 C260.539,32.645 260.526,32.536 260.512,32.426 C260.499,32.357 260.492,32.287 260.485,32.218 L260.485,32.217 C260.475,32.155 260.464,32.092 260.457,32.032 C260.434,31.883 260.403,31.734 260.377,31.588 C260.365,31.521 260.35,31.453 260.335,31.385 C260.311,31.267 260.282,31.147 260.254,31.031 C260.252,31.01 260.244,30.993 260.241,30.971 C260.239,30.971 260.239,30.969 260.239,30.969 C260.221,30.902 260.21,30.835 260.19,30.768 C260.169,30.685 260.141,30.601 260.122,30.518 C260.101,30.455 260.086,30.391 260.065,30.328 C260.05,30.275 260.037,30.222 260.018,30.168 C260.01,30.144 260.002,30.122 259.997,30.098 C259.94,29.927 259.887,29.756 259.825,29.588 C259.807,29.547 259.794,29.507 259.776,29.467 C259.719,29.317 259.666,29.168 259.604,29.021 C259.574,28.952 259.545,28.881 259.514,28.812 C259.479,28.733 259.444,28.654 259.409,28.579 C259.397,28.553 259.388,28.524 259.374,28.497 C259.256,28.247 259.137,27.998 259.004,27.757 C258.983,27.721 258.964,27.685 258.942,27.651 C258.829,27.436 258.701,27.226 258.573,27.02 C258.531,26.952 258.49,26.885 258.444,26.817 C258.326,26.632 258.203,26.454 258.072,26.275 C258.047,26.235 258.018,26.192 257.989,26.152 C257.979,26.141 257.971,26.129 257.965,26.118 C257.8,25.896 257.629,25.681 257.451,25.471 C257.401,25.413 257.352,25.354 257.302,25.299 C257.141,25.111 256.979,24.93 256.805,24.752 C256.795,24.739 256.784,24.73 256.774,24.717 C256.759,24.702 256.749,24.687 256.731,24.673 C256.555,24.493 256.373,24.321 256.184,24.153 C256.166,24.136 256.151,24.118 256.131,24.099 L256.131,24.099 C256.084,24.058 256.037,24.017 255.987,23.976 C255.979,23.969 255.973,23.962 255.966,23.955 C255.787,23.799 255.607,23.648 255.419,23.502 C255.379,23.472 255.341,23.439 255.302,23.408 L255.302,23.407 C255.079,23.238 254.853,23.078 254.625,22.924 C254.575,22.89 254.525,22.859 254.476,22.827 C254.472,22.823 254.462,22.818 254.46,22.814 C254.263,22.687 254.064,22.565 253.859,22.45 C253.826,22.429 253.794,22.409 253.755,22.388 C253.737,22.377 253.724,22.367 253.703,22.357 C253.461,22.22 253.212,22.091 252.96,21.97 C252.939,21.96 252.918,21.951 252.897,21.941 C252.867,21.926 252.833,21.911 252.798,21.897 C252.635,21.823 252.469,21.752 252.305,21.684 C252.256,21.663 252.207,21.64 252.157,21.621 C252.095,21.595 252.031,21.568 251.967,21.544 C251.705,21.441 251.438,21.349 251.167,21.265 C251.118,21.25 251.069,21.24 251.022,21.224 C250.793,21.155 250.555,21.092 250.321,21.036 C250.252,21.019 250.175,21.002 250.1,20.985 C249.825,20.923 249.541,20.869 249.254,20.824 C249.225,20.819 249.19,20.816 249.156,20.811 C248.899,20.773 248.635,20.745 248.372,20.723 C248.297,20.717 248.219,20.71 248.141,20.704 C248.128,20.704 248.114,20.704 248.098,20.703 C247.835,20.684 247.577,20.674 247.307,20.672 C247.286,20.672 247.27,20.671 247.25,20.671 C247.067,20.671 246.887,20.677 246.703,20.685 C246.578,20.691 246.446,20.697 246.32,20.707 C246.174,20.716 246.032,20.724 245.887,20.739 C245.807,20.747 245.725,20.759 245.643,20.769 C245.544,20.781 245.445,20.794 245.342,20.809 C245.303,20.814 245.262,20.817 245.225,20.823 L245.225,20.824 C245.135,20.838 245.046,20.853 244.954,20.871 C244.862,20.886 244.768,20.902 244.678,20.92 C244.643,20.927 244.608,20.932 244.573,20.939 C244.479,20.96 244.385,20.982 244.293,21.003 C244.171,21.028 244.05,21.056 243.932,21.086 C243.837,21.109 243.744,21.138 243.649,21.164 C243.533,21.196 243.42,21.227 243.303,21.263 C243.21,21.292 243.119,21.324 243.028,21.353 C243.028,21.354 243.022,21.354 243.02,21.355 C242.989,21.368 242.958,21.379 242.924,21.389 C242.844,21.415 242.768,21.442 242.686,21.47 C242.594,21.503 242.504,21.54 242.414,21.574 C242.305,21.617 242.194,21.66 242.085,21.705 C241.991,21.745 241.899,21.785 241.813,21.825 C241.737,21.858 241.659,21.894 241.581,21.929 C241.554,21.943 241.526,21.953 241.497,21.968 C241.409,22.01 241.324,22.054 241.235,22.097 C241.131,22.151 241.024,22.204 240.923,22.26 C240.835,22.306 240.75,22.354 240.666,22.403 C240.562,22.46 240.463,22.517 240.365,22.577 C240.28,22.626 240.198,22.679 240.114,22.731 C240.016,22.793 239.922,22.855 239.826,22.919 C239.742,22.973 239.666,23.027 239.584,23.085 L239.584,23.085 C239.571,23.093 239.563,23.1 239.552,23.107 C239.468,23.167 239.384,23.226 239.301,23.286 C239.223,23.344 239.149,23.401 239.072,23.461 C238.978,23.533 238.884,23.605 238.797,23.678 C238.724,23.739 238.65,23.801 238.576,23.863 C238.486,23.939 238.398,24.015 238.31,24.093 C238.24,24.156 238.166,24.22 238.101,24.285 C238.013,24.366 237.927,24.448 237.845,24.531 C237.842,24.531 237.842,24.531 237.842,24.532 C237.773,24.595 237.708,24.663 237.644,24.728 C237.627,24.749 237.609,24.767 237.593,24.787 C237.527,24.853 237.461,24.921 237.402,24.987 C237.402,24.987 237.398,24.991 237.396,24.991 C237.334,25.058 237.275,25.126 237.213,25.194 C237.211,25.195 237.211,25.195 237.209,25.195 C237.129,25.285 237.051,25.377 236.978,25.466 C236.976,25.469 236.972,25.47 236.972,25.473 C236.912,25.542 236.857,25.61 236.799,25.68 C236.799,25.68 236.799,25.68 236.799,25.681 C236.769,25.719 236.737,25.76 236.707,25.799 C236.664,25.854 236.62,25.908 236.578,25.964 C236.572,25.968 236.568,25.972 236.566,25.975 C236.515,26.045 236.462,26.117 236.408,26.186 L236.408,26.189 C236.387,26.219 236.363,26.252 236.345,26.281 C236.295,26.347 236.248,26.415 236.199,26.483 C236.197,26.489 236.193,26.494 236.189,26.499 C236.14,26.568 236.087,26.639 236.043,26.711 C236.041,26.714 236.041,26.715 236.041,26.717 C236.015,26.756 235.99,26.794 235.965,26.832 C235.927,26.895 235.885,26.957 235.849,27.02 C235.843,27.028 235.838,27.035 235.832,27.041 C235.788,27.111 235.744,27.182 235.702,27.253 C235.697,27.255 235.697,27.257 235.695,27.26 C235.656,27.326 235.619,27.394 235.583,27.461 C235.562,27.501 235.539,27.539 235.517,27.577 C235.515,27.586 235.507,27.595 235.501,27.603 C235.462,27.672 235.424,27.742 235.383,27.811 C235.383,27.815 235.383,27.817 235.379,27.818 C235.357,27.868 235.332,27.921 235.306,27.968 C235.275,28.03 235.247,28.087 235.217,28.146 C235.209,28.161 235.2,28.173 235.196,28.187 C235.162,28.252 235.129,28.319 235.094,28.387 C235.092,28.388 235.092,28.392 235.09,28.394 C235.041,28.5 234.995,28.608 234.945,28.717 C234.942,28.725 234.936,28.732 234.936,28.738 C234.932,28.742 234.932,28.746 234.93,28.75 C234.922,28.764 234.916,28.777 234.91,28.792 C234.885,28.854 234.85,28.914 234.827,28.975 C234.827,28.979 234.827,28.98 234.824,28.984 C234.774,29.104 234.727,29.227 234.68,29.349 C234.647,29.429 234.618,29.508 234.587,29.589 C234.538,29.723 234.493,29.858 234.451,29.994 C234.428,30.065 234.401,30.136 234.381,30.206 C234.311,30.438 234.244,30.678 234.186,30.915 L234.186,30.918 C234.182,30.918 234.182,30.919 234.182,30.919 C234.182,30.931 234.178,30.942 234.178,30.957 C234.133,31.13 234.092,31.304 234.057,31.478 C234.039,31.564 234.024,31.653 234.006,31.74 L234.006,31.745 L234.006,31.755 C233.984,31.879 233.958,32.005 233.94,32.133 C233.924,32.232 233.916,32.334 233.901,32.435 L233.901,32.439 C233.901,32.445 233.901,32.45 233.897,32.456 C233.881,32.569 233.87,32.683 233.854,32.796 C233.842,32.905 233.836,33.015 233.831,33.125 C233.818,33.225 233.811,33.322 233.81,33.424 C233.81,33.436 233.806,33.451 233.806,33.465 C233.787,33.713 233.783,33.963 233.783,34.215 L233.783,34.22 L233.783,55.488 C233.783,55.763 233.794,56.038 233.81,56.309 C233.812,56.383 233.818,56.458 233.824,56.531 C233.843,56.768 233.863,57 233.89,57.233 C233.896,57.276 233.898,57.319 233.905,57.36 C233.939,57.627 233.982,57.891 234.033,58.153 C234.046,58.227 234.06,58.299 234.074,58.37 C234.119,58.585 234.168,58.798 234.22,59.01 C234.234,59.072 234.245,59.131 234.261,59.191 C234.33,59.45 234.407,59.706 234.487,59.96 C234.505,60.022 234.529,60.083 234.549,60.145 C234.618,60.352 234.692,60.553 234.768,60.753 C234.791,60.818 234.817,60.887 234.844,60.948 C234.94,61.198 235.046,61.441 235.157,61.679 C235.176,61.724 235.194,61.764 235.217,61.805 C235.317,62.011 235.416,62.214 235.528,62.417 C235.544,62.44 235.553,62.465 235.567,62.491 C235.588,62.53 235.61,62.571 235.631,62.61 C235.721,62.772 235.817,62.932 235.911,63.089 C235.938,63.141 235.969,63.19 236,63.236 C236.128,63.441 236.262,63.64 236.397,63.839 C236.428,63.884 236.46,63.929 236.495,63.971 C236.602,64.123 236.715,64.276 236.828,64.418 C236.878,64.48 236.928,64.543 236.975,64.604 C237.082,64.737 237.192,64.869 237.305,64.997 C237.354,65.051 237.401,65.106 237.451,65.161 C237.598,65.324 237.75,65.483 237.907,65.638 C237.919,65.654 237.93,65.666 237.942,65.678 C238.115,65.846 238.293,66.009 238.473,66.166 C238.518,66.207 238.567,66.245 238.618,66.285 C238.753,66.401 238.891,66.514 239.036,66.628 C239.096,66.671 239.15,66.712 239.208,66.756 C239.356,66.866 239.512,66.976 239.667,67.078 C239.71,67.108 239.754,67.141 239.799,67.17 C240.004,67.303 240.213,67.431 240.426,67.552 C240.438,67.558 240.447,67.564 240.458,67.57 C240.656,67.683 240.861,67.788 241.068,67.886 C241.121,67.909 241.178,67.935 241.231,67.961 C241.405,68.041 241.581,68.113 241.754,68.187 C241.813,68.208 241.868,68.23 241.924,68.25 C242.137,68.334 242.354,68.405 242.57,68.476 C242.588,68.482 242.603,68.489 242.622,68.495 C242.867,68.568 243.113,68.635 243.369,68.691 C243.398,68.7 243.433,68.708 243.47,68.712 C243.681,68.759 243.898,68.8 244.119,68.833 C244.179,68.843 244.235,68.852 244.298,68.859 C244.507,68.887 244.716,68.912 244.929,68.926 C244.98,68.931 245.031,68.937 245.08,68.941 C245.347,68.961 245.611,68.971 245.886,68.971 C246.576,68.971 247.289,68.911 248.023,68.783 L256.254,67.495 C256.233,67.319 256.216,67.147 256.197,66.974 C256.187,66.87 256.176,66.769 256.168,66.665 C256.162,66.591 256.156,66.519 256.148,66.444 C256.138,66.328 256.127,66.212 256.123,66.091 C256.116,66.028 256.11,65.964 256.105,65.903 C256.095,65.778 256.085,65.651 256.077,65.522 C256.074,65.466 256.07,65.414 256.066,65.354 C256.056,65.215 256.046,65.081 256.039,64.934 C256.039,64.893 256.036,64.848 256.03,64.805 C256.003,64.311 255.976,63.787 255.954,63.22 C255.951,63.177 255.949,63.136 255.947,63.092 L255.947,63.075 C255.937,62.857 255.927,62.636 255.92,62.4 C255.92,62.342 255.916,62.292 255.912,62.228 L255.912,62.172 L247.249,62.172 C247.038,62.172 246.833,62.159 246.626,62.138 C246.591,62.136 246.55,62.132 246.513,62.127 C246.308,62.106 246.105,62.077 245.908,62.034 L245.904,62.034 C245.71,61.993 245.519,61.942 245.332,61.885 C245.321,61.882 245.314,61.882 245.311,61.879 C245.28,61.871 245.254,61.862 245.225,61.853 C245.037,61.793 244.852,61.724 244.671,61.65 C244.658,61.644 244.649,61.638 244.637,61.63 C244.467,61.56 244.299,61.48 244.137,61.39 C244.108,61.372 244.077,61.359 244.051,61.343 C243.879,61.249 243.713,61.148 243.555,61.037 C243.537,61.022 243.522,61.013 243.504,61.003 C243.358,60.898 243.214,60.79 243.078,60.676 C243.055,60.657 243.031,60.637 243.008,60.618 C242.862,60.495 242.719,60.363 242.585,60.225 C242.565,60.207 242.548,60.186 242.527,60.163 C242.408,60.041 242.291,59.91 242.178,59.773 C242.157,59.751 242.139,59.728 242.118,59.707 C242.001,59.559 241.889,59.407 241.784,59.25 C241.762,59.218 241.745,59.186 241.722,59.153 C241.683,59.09 241.638,59.035 241.605,58.966 C241.601,58.966 241.601,58.965 241.601,58.962 C241.556,58.888 241.519,58.812 241.472,58.733 C241.451,58.698 241.433,58.663 241.415,58.627 C241.324,58.459 241.242,58.287 241.169,58.108 C241.155,58.074 241.142,58.036 241.126,57.999 C241.063,57.851 241.013,57.698 240.962,57.543 C240.948,57.501 240.935,57.456 240.923,57.409 C240.864,57.221 240.819,57.033 240.777,56.842 C240.771,56.814 240.769,56.787 240.761,56.76 C240.728,56.589 240.703,56.418 240.687,56.243 C240.679,56.192 240.673,56.138 240.669,56.086 C240.648,55.885 240.64,55.683 240.64,55.474 L240.64,48.187 L240.64,48.187 L257.194,48.187 C258.134,48.187 258.993,47.824 259.614,47.209 C260.237,46.601 260.624,45.742 260.624,44.755 L260.624,34.22 C260.633,33.989 260.625,33.758 260.615,33.527 L260.615,33.527 Z M253.857,34.22 L253.857,41.423 L253.629,41.423 L241.796,41.423 L241.108,41.423 L240.649,41.423 L240.649,34.22 L240.649,34.22 C240.649,31.223 242.574,28.68 245.272,27.831 C245.897,27.636 246.561,27.53 247.252,27.53 C247.457,27.53 247.653,27.542 247.854,27.56 C247.917,27.565 247.975,27.574 248.034,27.581 C248.18,27.599 248.323,27.622 248.463,27.647 C248.525,27.659 248.584,27.669 248.645,27.682 C248.815,27.721 248.989,27.765 249.158,27.817 C249.174,27.823 249.194,27.828 249.21,27.833 C249.397,27.892 249.579,27.962 249.758,28.037 C249.809,28.058 249.86,28.081 249.908,28.104 C250.04,28.163 250.166,28.224 250.291,28.292 C250.344,28.321 250.397,28.349 250.451,28.378 C250.592,28.458 250.727,28.543 250.862,28.633 C250.887,28.651 250.917,28.666 250.94,28.684 C251.098,28.792 251.253,28.91 251.399,29.031 C251.44,29.063 251.477,29.1 251.52,29.135 C251.626,29.228 251.733,29.324 251.833,29.423 C251.878,29.467 251.922,29.51 251.963,29.555 C252.067,29.664 252.17,29.777 252.27,29.893 C252.296,29.926 252.326,29.956 252.354,29.99 C252.473,30.136 252.586,30.292 252.694,30.448 C252.723,30.492 252.753,30.538 252.781,30.582 C252.858,30.702 252.93,30.823 253.001,30.948 C253.032,31.006 253.065,31.062 253.098,31.121 C253.165,31.249 253.227,31.379 253.286,31.51 C253.307,31.559 253.332,31.608 253.349,31.656 C253.355,31.669 253.363,31.681 253.369,31.694 C253.374,31.706 253.376,31.717 253.382,31.729 C253.41,31.809 253.437,31.891 253.469,31.973 C253.5,32.07 253.539,32.166 253.57,32.265 C253.605,32.382 253.633,32.5 253.662,32.619 C253.687,32.711 253.714,32.803 253.732,32.895 C253.761,33.037 253.777,33.181 253.796,33.327 C253.806,33.401 253.82,33.473 253.829,33.548 C253.846,33.768 253.857,33.992 253.857,34.22 L253.857,34.22 L253.857,34.22 Z" id="Shape"></path>
            <path d="M187.934,35.145 C187.989,35.144 188.042,35.143 188.094,35.141 C188.202,35.137 188.317,35.134 188.427,35.131 C188.573,35.126 188.721,35.122 188.872,35.117 C188.958,35.115 189.044,35.111 189.131,35.109 C189.346,35.105 189.563,35.099 189.781,35.095 L189.791,35.095 C190.627,35.076 191.514,35.062 192.464,35.04 C192.688,35.035 192.914,35.027 193.145,35.022 C193.192,35.021 193.237,35.021 193.285,35.019 C193.598,35.01 193.923,35.001 194.256,34.99 L194.256,34.133 C194.256,33.97 194.248,33.806 194.241,33.644 L194.241,33.549 C194.233,33.431 194.225,33.317 194.22,33.201 C194.21,33.089 194.202,32.976 194.194,32.865 C194.184,32.756 194.173,32.646 194.159,32.537 C194.157,32.519 194.157,32.505 194.153,32.489 C194.141,32.389 194.13,32.291 194.112,32.191 C194.1,32.087 194.082,31.98 194.065,31.878 C194.044,31.765 194.024,31.649 194.003,31.537 C193.982,31.432 193.96,31.328 193.935,31.224 C193.914,31.115 193.888,31.003 193.863,30.892 C193.837,30.789 193.806,30.686 193.781,30.583 C193.779,30.577 193.779,30.571 193.775,30.563 C193.75,30.459 193.715,30.355 193.685,30.252 C193.656,30.151 193.623,30.052 193.591,29.953 C193.56,29.859 193.528,29.766 193.496,29.675 C193.488,29.665 193.484,29.652 193.482,29.642 L193.482,29.641 C193.447,29.541 193.412,29.441 193.373,29.343 C193.339,29.249 193.301,29.156 193.263,29.063 C193.259,29.055 193.255,29.047 193.251,29.038 C193.211,28.937 193.168,28.838 193.126,28.74 C193.101,28.682 193.073,28.63 193.048,28.574 C193.039,28.55 193.027,28.525 193.017,28.502 C192.904,28.26 192.788,28.021 192.663,27.786 C192.651,27.767 192.643,27.752 192.635,27.734 C192.635,27.731 192.635,27.73 192.631,27.729 L192.631,27.728 C192.498,27.477 192.352,27.232 192.196,26.994 C192.173,26.951 192.145,26.912 192.12,26.872 C192.108,26.854 192.099,26.838 192.088,26.822 C191.946,26.608 191.807,26.399 191.651,26.194 C191.633,26.167 191.614,26.137 191.596,26.11 C191.422,25.882 191.245,25.662 191.065,25.444 C191.022,25.397 190.979,25.349 190.938,25.302 C190.774,25.115 190.608,24.932 190.434,24.754 C190.419,24.74 190.407,24.729 190.393,24.714 C190.378,24.696 190.362,24.678 190.342,24.659 C190.145,24.458 189.936,24.263 189.725,24.076 C189.678,24.037 189.633,23.999 189.587,23.96 C189.401,23.8 189.215,23.646 189.024,23.495 C188.987,23.469 188.958,23.441 188.92,23.415 C188.914,23.411 188.911,23.406 188.901,23.403 L188.901,23.401 C188.672,23.229 188.438,23.065 188.206,22.908 C188.162,22.88 188.12,22.853 188.079,22.826 C187.872,22.691 187.658,22.563 187.444,22.44 C187.395,22.412 187.342,22.382 187.296,22.354 C187.046,22.215 186.79,22.085 186.531,21.961 C186.5,21.947 186.466,21.932 186.434,21.917 C186.424,21.914 186.416,21.909 186.411,21.907 L186.411,21.907 C186.239,21.829 186.063,21.756 185.889,21.683 C185.832,21.661 185.78,21.634 185.725,21.612 C185.663,21.589 185.602,21.563 185.541,21.541 C185.27,21.438 185,21.344 184.725,21.26 C184.716,21.258 184.71,21.255 184.704,21.254 C184.675,21.244 184.644,21.237 184.613,21.228 C184.37,21.157 184.124,21.09 183.874,21.033 C183.804,21.016 183.732,21.001 183.666,20.983 C183.395,20.924 183.122,20.874 182.849,20.831 C182.833,20.83 182.818,20.825 182.806,20.823 C182.783,20.821 182.757,20.817 182.732,20.813 C182.67,20.803 182.603,20.799 182.542,20.792 C182.337,20.767 182.133,20.74 181.925,20.722 L181.922,20.722 C181.845,20.715 181.771,20.71 181.693,20.704 C181.396,20.683 181.098,20.67 180.797,20.67 C180.675,20.67 180.555,20.676 180.435,20.68 L180.429,20.68 L180.429,20.68 C180.325,20.682 180.224,20.683 180.122,20.687 C180.112,20.688 180.105,20.688 180.099,20.688 L180.099,20.688 L180.099,20.688 C179.984,20.695 179.87,20.707 179.759,20.714 C179.756,20.715 179.749,20.715 179.744,20.715 C179.636,20.722 179.527,20.729 179.421,20.74 L179.42,20.74 C179.31,20.752 179.2,20.768 179.092,20.782 C179.087,20.783 179.078,20.785 179.072,20.785 C178.966,20.799 178.857,20.809 178.751,20.825 L178.751,20.825 C178.683,20.837 178.612,20.849 178.544,20.863 C178.5,20.871 178.455,20.879 178.41,20.885 C178.394,20.887 178.378,20.891 178.362,20.893 C178.274,20.91 178.184,20.923 178.095,20.94 C178.095,20.94 178.095,20.94 178.093,20.943 C177.972,20.967 177.854,20.997 177.737,21.026 C177.731,21.026 177.724,21.029 177.716,21.031 C177.628,21.052 177.538,21.071 177.448,21.093 L177.447,21.094 C177.349,21.118 177.255,21.148 177.158,21.176 C177.13,21.183 177.097,21.192 177.068,21.201 C176.985,21.224 176.899,21.247 176.817,21.271 L176.814,21.273 L176.814,21.273 C176.796,21.279 176.779,21.285 176.759,21.291 C176.683,21.316 176.609,21.342 176.53,21.369 C176.489,21.383 176.45,21.395 176.411,21.411 C176.338,21.435 176.265,21.457 176.193,21.484 C176.193,21.484 176.193,21.484 176.19,21.484 C176.19,21.484 176.19,21.484 176.19,21.485 C176.164,21.493 176.135,21.506 176.108,21.516 C176.026,21.546 175.948,21.579 175.866,21.613 C175.827,21.628 175.791,21.641 175.754,21.657 C175.698,21.678 175.643,21.699 175.59,21.722 L175.586,21.722 C175.584,21.723 175.582,21.725 175.578,21.727 C175.465,21.777 175.348,21.831 175.231,21.885 C175.19,21.905 175.149,21.92 175.108,21.939 C175.072,21.957 175.034,21.972 174.999,21.992 L174.995,21.992 C174.855,22.058 174.718,22.134 174.58,22.206 C174.555,22.221 174.522,22.235 174.495,22.25 C174.474,22.263 174.445,22.273 174.422,22.289 C174.422,22.289 174.422,22.289 174.418,22.29 C174.317,22.346 174.217,22.407 174.112,22.466 C174.104,22.47 174.102,22.473 174.095,22.475 C174.02,22.517 173.948,22.56 173.874,22.604 C173.87,22.605 173.864,22.608 173.861,22.611 C173.86,22.612 173.858,22.615 173.856,22.615 C173.849,22.617 173.849,22.619 173.845,22.621 C173.686,22.718 173.532,22.819 173.375,22.922 C173.284,22.982 173.2,23.044 173.112,23.106 C173.004,23.184 172.891,23.259 172.786,23.34 C172.723,23.389 172.659,23.44 172.596,23.49 C172.491,23.573 172.381,23.657 172.278,23.742 C172.211,23.799 172.144,23.856 172.08,23.915 C171.983,23.999 171.887,24.082 171.789,24.168 C171.735,24.217 171.685,24.268 171.632,24.32 C171.526,24.419 171.42,24.517 171.319,24.622 C171.28,24.663 171.241,24.705 171.2,24.747 C171.092,24.861 170.981,24.974 170.878,25.09 C170.716,25.271 170.558,25.456 170.405,25.645 C170.35,25.712 170.299,25.784 170.248,25.852 C170.144,25.981 170.047,26.112 169.95,26.245 C169.934,26.265 169.922,26.288 169.905,26.308 C169.864,26.369 169.821,26.428 169.782,26.49 C169.69,26.622 169.604,26.754 169.518,26.889 C169.491,26.929 169.463,26.972 169.439,27.012 C169.417,27.05 169.392,27.086 169.369,27.124 C169.288,27.257 169.214,27.394 169.137,27.531 C169.114,27.571 169.09,27.611 169.069,27.653 C169.048,27.692 169.02,27.732 169.001,27.773 C168.883,27.995 168.772,28.22 168.668,28.448 C168.659,28.459 168.656,28.469 168.65,28.48 C168.629,28.536 168.603,28.591 168.579,28.646 C168.505,28.816 168.432,28.986 168.361,29.16 C168.336,29.23 168.306,29.305 168.28,29.375 C168.277,29.383 168.274,29.388 168.274,29.394 C168.208,29.571 168.146,29.748 168.086,29.927 C168.065,29.995 168.043,30.062 168.022,30.133 C167.952,30.36 167.883,30.589 167.827,30.821 C167.826,30.838 167.819,30.855 167.814,30.872 C167.814,30.874 167.812,30.876 167.812,30.879 L167.812,30.879 L167.812,30.88 C167.555,31.922 167.416,33.009 167.416,34.132 L167.416,35.022 L167.416,55.574 C167.416,55.61 167.418,55.641 167.418,55.678 C167.42,55.907 167.428,56.138 167.44,56.362 C167.442,56.462 167.456,56.556 167.463,56.656 C167.475,56.824 167.488,56.994 167.51,57.162 C167.522,57.26 167.532,57.359 167.547,57.46 C167.569,57.636 167.6,57.811 167.631,57.984 C167.645,58.064 167.655,58.146 167.674,58.228 C167.725,58.48 167.778,58.726 167.842,58.969 C167.854,59.015 167.868,59.056 167.877,59.103 C167.934,59.306 167.992,59.509 168.058,59.709 C168.083,59.789 168.11,59.866 168.137,59.942 C168.194,60.115 168.256,60.281 168.32,60.449 C168.349,60.524 168.381,60.596 168.407,60.677 C168.487,60.865 168.567,61.05 168.651,61.236 C168.674,61.283 168.693,61.329 168.714,61.375 C168.823,61.604 168.939,61.831 169.062,62.057 C169.068,62.072 169.078,62.086 169.085,62.1 C169.097,62.121 169.108,62.143 169.123,62.164 C169.232,62.359 169.349,62.557 169.471,62.749 C169.509,62.812 169.548,62.874 169.59,62.939 C169.71,63.123 169.832,63.299 169.96,63.476 C169.988,63.517 170.018,63.562 170.049,63.599 C170.201,63.81 170.364,64.017 170.531,64.215 C170.574,64.269 170.619,64.321 170.665,64.371 C170.796,64.52 170.929,64.672 171.064,64.815 C171.122,64.876 171.173,64.932 171.233,64.994 C171.393,65.159 171.562,65.323 171.733,65.483 C171.755,65.503 171.775,65.522 171.798,65.544 C171.986,65.718 172.184,65.885 172.386,66.048 C172.447,66.101 172.511,66.148 172.574,66.201 C172.726,66.313 172.881,66.43 173.035,66.545 C173.101,66.59 173.167,66.638 173.228,66.683 C173.441,66.831 173.659,66.972 173.879,67.107 C173.913,67.128 173.949,67.15 173.986,67.17 C174.177,67.282 174.372,67.394 174.568,67.495 C174.642,67.534 174.716,67.573 174.792,67.61 C174.974,67.704 175.15,67.787 175.337,67.872 C175.399,67.895 175.462,67.929 175.525,67.957 C175.765,68.06 176.007,68.155 176.257,68.247 C176.314,68.267 176.374,68.287 176.433,68.304 C176.63,68.373 176.829,68.441 177.031,68.499 C177.112,68.52 177.19,68.545 177.271,68.563 C177.488,68.625 177.706,68.678 177.925,68.725 C177.972,68.735 178.018,68.747 178.064,68.757 C178.33,68.813 178.595,68.858 178.865,68.897 C178.937,68.911 179.009,68.918 179.085,68.923 C179.292,68.953 179.501,68.973 179.714,68.991 C179.794,68.998 179.874,69.005 179.956,69.011 C180.23,69.026 180.511,69.039 180.795,69.039 C181.013,69.039 181.229,69.032 181.445,69.019 C181.515,69.015 181.587,69.008 181.656,69.004 C181.802,68.995 181.945,68.988 182.089,68.972 C182.173,68.963 182.255,68.952 182.339,68.944 C182.467,68.926 182.597,68.915 182.725,68.894 C182.815,68.881 182.903,68.866 182.991,68.849 C183.112,68.83 183.233,68.81 183.352,68.788 C183.444,68.767 183.532,68.749 183.623,68.729 C183.737,68.703 183.854,68.678 183.973,68.651 C184.063,68.628 184.153,68.602 184.241,68.58 C184.354,68.549 184.47,68.518 184.583,68.486 C184.674,68.461 184.759,68.43 184.847,68.402 C184.96,68.367 185.071,68.331 185.181,68.292 C185.27,68.263 185.356,68.23 185.444,68.197 C185.551,68.158 185.661,68.116 185.766,68.075 C185.854,68.041 185.938,68.005 186.024,67.968 C186.128,67.923 186.235,67.878 186.341,67.829 C186.425,67.791 186.506,67.753 186.589,67.714 C186.693,67.663 186.796,67.612 186.901,67.56 C186.983,67.517 187.059,67.474 187.14,67.433 C187.243,67.376 187.344,67.324 187.446,67.263 C187.524,67.218 187.602,67.172 187.679,67.126 C187.78,67.064 187.878,67.006 187.977,66.943 C188.052,66.893 188.126,66.842 188.205,66.796 C188.304,66.734 188.397,66.666 188.493,66.599 C188.563,66.548 188.64,66.498 188.711,66.446 C188.807,66.378 188.899,66.308 188.993,66.235 C189.063,66.179 189.134,66.131 189.2,66.073 C189.295,65.999 189.388,65.924 189.477,65.845 C189.542,65.788 189.606,65.736 189.671,65.679 C189.764,65.599 189.854,65.517 189.942,65.433 C190.004,65.374 190.065,65.321 190.128,65.261 C190.217,65.176 190.303,65.088 190.391,65 C190.45,64.94 190.508,64.885 190.565,64.824 C190.651,64.733 190.737,64.637 190.821,64.546 C190.876,64.484 190.928,64.429 190.979,64.37 C191.067,64.268 191.151,64.169 191.233,64.068 C191.28,64.008 191.333,63.954 191.375,63.893 C191.464,63.786 191.548,63.67 191.634,63.557 C191.671,63.505 191.711,63.454 191.749,63.406 C191.842,63.278 191.93,63.145 192.02,63.014 C192.045,62.973 192.073,62.936 192.098,62.895 C192.21,62.727 192.319,62.553 192.423,62.377 C192.425,62.374 192.425,62.373 192.427,62.371 C192.641,62.012 192.835,61.641 193.015,61.259 C193.032,61.229 193.046,61.197 193.059,61.161 C193.133,61.006 193.204,60.848 193.27,60.687 C193.291,60.632 193.31,60.581 193.333,60.527 C193.39,60.386 193.444,60.249 193.495,60.107 C193.517,60.043 193.54,59.974 193.561,59.912 C193.604,59.779 193.653,59.644 193.694,59.51 C193.715,59.438 193.735,59.369 193.757,59.297 C193.795,59.166 193.829,59.033 193.863,58.901 C193.884,58.825 193.9,58.749 193.918,58.672 C193.951,58.541 193.98,58.411 194.011,58.28 C194.025,58.201 194.039,58.122 194.055,58.041 C194.079,57.91 194.101,57.781 194.123,57.646 C194.133,57.567 194.146,57.485 194.156,57.405 C194.169,57.318 194.177,57.23 194.189,57.144 C194.191,57.109 194.197,57.073 194.199,57.04 C194.22,56.846 194.234,56.653 194.248,56.46 C194.254,56.416 194.258,56.372 194.26,56.328 C194.26,56.303 194.268,56.276 194.268,56.25 C194.113,56.25 192.871,56.188 191.168,56.078 C190.601,56.04 189.982,56.002 189.338,55.955 C188.738,55.914 188.117,55.866 187.49,55.82 C187.486,55.968 187.47,56.114 187.459,56.258 C187.451,56.333 187.451,56.411 187.441,56.487 C187.382,56.938 187.279,57.372 187.131,57.787 C186.226,60.374 183.71,62.169 180.799,62.169 C180.599,62.169 180.402,62.157 180.206,62.14 C180.156,62.135 180.111,62.13 180.062,62.126 C179.872,62.106 179.68,62.078 179.49,62.041 C179.476,62.037 179.466,62.034 179.451,62.031 C179.271,61.996 179.1,61.95 178.93,61.899 C178.891,61.889 178.852,61.878 178.814,61.868 C178.811,61.867 178.808,61.867 178.802,61.863 C178.622,61.803 178.446,61.744 178.274,61.673 C178.253,61.664 178.234,61.656 178.216,61.648 C178.058,61.583 177.904,61.506 177.754,61.429 C177.72,61.409 177.68,61.392 177.644,61.372 C177.484,61.283 177.324,61.184 177.171,61.085 C177.148,61.072 177.128,61.056 177.108,61.042 C176.967,60.948 176.835,60.847 176.702,60.741 C176.674,60.72 176.647,60.698 176.623,60.673 C176.477,60.556 176.34,60.433 176.209,60.3 C176.188,60.279 176.168,60.261 176.149,60.24 C176.028,60.12 175.918,59.994 175.807,59.862 C175.786,59.84 175.767,59.815 175.746,59.792 C175.629,59.646 175.516,59.495 175.409,59.338 C175.391,59.316 175.377,59.286 175.358,59.261 C175.317,59.199 175.275,59.134 175.233,59.072 C175.231,59.069 175.229,59.064 175.227,59.06 C175.182,58.987 175.141,58.908 175.098,58.831 C175.082,58.801 175.063,58.769 175.047,58.738 C174.959,58.568 174.875,58.393 174.8,58.217 C174.787,58.185 174.777,58.154 174.764,58.119 C174.702,57.967 174.645,57.809 174.595,57.651 C174.582,57.608 174.57,57.569 174.556,57.526 C174.501,57.337 174.452,57.141 174.41,56.945 C174.406,56.925 174.406,56.907 174.402,56.889 C174.367,56.706 174.339,56.52 174.318,56.33 C174.316,56.285 174.308,56.241 174.306,56.195 C174.286,55.989 174.277,55.777 174.277,55.56 L174.277,34.134 C174.277,32.108 175.199,30.273 176.646,29.053 C177.773,28.105 179.216,27.532 180.793,27.532 C181.002,27.532 181.207,27.544 181.41,27.562 C181.472,27.568 181.53,27.576 181.593,27.583 C181.739,27.602 181.882,27.623 182.029,27.649 C182.092,27.661 182.154,27.671 182.217,27.685 C182.385,27.722 182.549,27.763 182.713,27.813 C182.738,27.822 182.771,27.828 182.799,27.834 C182.986,27.894 183.17,27.962 183.35,28.037 C183.404,28.058 183.454,28.081 183.502,28.104 C183.633,28.163 183.764,28.224 183.889,28.292 C183.945,28.321 184,28.35 184.055,28.38 C184.189,28.455 184.32,28.533 184.451,28.617 C184.486,28.64 184.521,28.661 184.557,28.686 C184.715,28.793 184.87,28.909 185.021,29.03 C185.057,29.059 185.092,29.092 185.128,29.124 C185.238,29.219 185.35,29.317 185.455,29.42 C185.5,29.462 185.546,29.507 185.588,29.551 C185.691,29.655 185.785,29.76 185.881,29.871 C185.914,29.909 185.947,29.944 185.982,29.983 C186.103,30.132 186.221,30.286 186.331,30.443 C186.351,30.471 186.367,30.502 186.386,30.531 C186.476,30.664 186.56,30.8 186.64,30.938 C186.668,30.99 186.697,31.042 186.724,31.095 C186.794,31.223 186.857,31.352 186.912,31.482 C186.933,31.533 186.96,31.581 186.98,31.629 C186.992,31.656 187.001,31.681 187.01,31.706 C187.019,31.718 187.021,31.728 187.027,31.74 C187.056,31.82 187.085,31.901 187.109,31.983 C187.137,32.066 187.172,32.148 187.201,32.233 C187.234,32.351 187.264,32.473 187.294,32.594 C187.315,32.679 187.342,32.762 187.356,32.848 C187.385,32.982 187.405,33.121 187.419,33.259 C187.433,33.332 187.448,33.405 187.456,33.48 C187.477,33.696 187.487,33.913 187.487,34.131 L187.487,35.16 C187.628,35.157 187.782,35.15 187.934,35.145 L187.934,35.145 Z" id="Shape"></path>
            <path d="M158.228,34.657 C158.224,34.526 158.224,34.397 158.218,34.267 C158.213,34.176 158.206,34.084 158.199,33.993 C158.193,33.907 158.187,33.822 158.181,33.735 C158.177,33.693 158.175,33.653 158.172,33.611 C158.172,33.611 158.172,33.611 158.172,33.61 C158.163,33.509 158.151,33.411 158.142,33.311 L158.142,33.304 C158.127,33.186 158.115,33.067 158.099,32.95 L158.099,32.947 C158.085,32.856 158.072,32.765 158.056,32.676 C158.056,32.668 158.056,32.662 158.054,32.656 C158.044,32.586 158.033,32.515 158.021,32.447 C158.011,32.395 158.005,32.343 157.997,32.29 C157.997,32.29 157.995,32.289 157.995,32.287 C157.981,32.205 157.964,32.126 157.949,32.045 C157.945,32.032 157.943,32.019 157.939,32.006 C157.93,31.954 157.918,31.901 157.908,31.85 C157.891,31.779 157.88,31.709 157.862,31.638 L157.862,31.633 C157.841,31.543 157.818,31.452 157.798,31.361 L157.798,31.361 C157.781,31.297 157.765,31.233 157.747,31.169 C157.73,31.11 157.72,31.052 157.704,30.994 C157.7,30.993 157.7,30.991 157.7,30.99 C157.679,30.912 157.655,30.833 157.634,30.755 C157.63,30.744 157.63,30.734 157.626,30.724 C157.603,30.648 157.577,30.57 157.556,30.495 C157.538,30.449 157.526,30.402 157.513,30.358 L157.513,30.357 C157.484,30.269 157.456,30.181 157.425,30.094 C157.447,30.157 157.468,30.221 157.487,30.286 C157.467,30.221 157.448,30.157 157.425,30.093 C157.383,29.975 157.341,29.857 157.298,29.739 C157.266,29.653 157.234,29.567 157.199,29.48 C157.197,29.479 157.195,29.476 157.195,29.472 C157.158,29.382 157.12,29.288 157.081,29.197 C157.074,29.177 157.064,29.16 157.06,29.142 C157.019,29.046 156.979,28.951 156.935,28.855 C156.919,28.819 156.902,28.785 156.884,28.749 C156.87,28.719 156.857,28.687 156.843,28.657 C156.744,28.448 156.642,28.242 156.533,28.039 C156.512,27.998 156.492,27.958 156.471,27.917 C156.46,27.896 156.45,27.878 156.441,27.858 C156.304,27.609 156.167,27.364 156.015,27.124 C155.994,27.09 155.97,27.057 155.947,27.023 C155.818,26.816 155.681,26.612 155.54,26.414 C155.519,26.385 155.5,26.355 155.477,26.327 C155.452,26.293 155.428,26.26 155.403,26.226 C155.257,26.022 155.102,25.822 154.94,25.627 C154.922,25.602 154.903,25.576 154.883,25.553 C154.704,25.338 154.516,25.132 154.325,24.928 L154.325,24.926 C154.318,24.92 154.313,24.915 154.307,24.909 C154.258,24.857 154.209,24.806 154.159,24.756 C154.028,24.624 153.897,24.494 153.764,24.367 C153.739,24.346 153.717,24.323 153.696,24.303 C153.693,24.3 153.693,24.3 153.693,24.299 C153.637,24.249 153.585,24.199 153.532,24.149 C153.326,23.963 153.114,23.783 152.899,23.609 C152.899,23.609 152.899,23.609 152.897,23.609 C152.86,23.581 152.822,23.552 152.785,23.524 C152.774,23.515 152.762,23.505 152.748,23.497 C152.572,23.358 152.391,23.226 152.205,23.097 C152.135,23.047 152.063,22.997 151.991,22.95 C151.776,22.807 151.559,22.671 151.339,22.538 C151.325,22.533 151.315,22.523 151.303,22.517 C151.289,22.509 151.278,22.502 151.264,22.495 C151.022,22.353 150.768,22.222 150.514,22.095 C150.436,22.056 150.359,22.02 150.281,21.984 C150.08,21.888 149.868,21.796 149.657,21.71 C149.637,21.702 149.62,21.692 149.598,21.686 C149.551,21.666 149.504,21.646 149.458,21.628 C149.187,21.523 148.913,21.424 148.633,21.335 L148.633,21.335 C148.569,21.314 148.502,21.296 148.437,21.276 L148.434,21.274 C148.368,21.254 148.296,21.238 148.227,21.218 C148.066,21.171 147.903,21.125 147.74,21.085 C147.728,21.082 147.716,21.081 147.705,21.077 C147.635,21.06 147.565,21.042 147.493,21.026 L147.493,21.026 C147.417,21.008 147.336,20.998 147.258,20.979 C147.033,20.932 146.814,20.883 146.582,20.849 L146.582,20.84 L146.575,20.84 C146.557,20.838 146.541,20.837 146.521,20.833 C146.23,20.791 145.934,20.755 145.633,20.728 C145.58,20.723 145.529,20.719 145.475,20.716 C145.448,20.715 145.422,20.712 145.396,20.71 C145.296,20.703 145.192,20.702 145.091,20.694 C144.908,20.685 144.727,20.673 144.541,20.672 C144.475,20.671 144.407,20.667 144.342,20.667 L144.307,20.667 L144.205,20.667 C144.136,20.668 144.065,20.668 143.996,20.669 C143.631,20.681 143.258,20.706 142.878,20.74 C142.86,20.741 142.846,20.742 142.83,20.745 C142.463,20.78 142.091,20.825 141.717,20.879 C141.697,20.882 141.68,20.884 141.659,20.887 C141.288,20.942 140.913,21.005 140.54,21.077 L140.531,21.077 C140.517,21.08 140.506,21.083 140.491,21.086 C140.171,21.148 139.85,21.218 139.532,21.29 C139.479,21.301 139.426,21.311 139.372,21.323 L139.371,21.323 C139.351,21.327 139.335,21.332 139.315,21.337 C138.797,21.457 138.291,21.587 137.798,21.726 C137.791,21.729 137.785,21.731 137.777,21.732 C137.768,21.736 137.759,21.738 137.754,21.742 C137.525,21.805 137.301,21.872 137.082,21.94 C137.073,21.941 137.065,21.944 137.057,21.946 C137.044,21.951 137.032,21.956 137.018,21.96 C136.789,22.029 136.563,22.103 136.344,22.176 C136.315,22.185 136.285,22.197 136.255,22.207 C136.18,22.23 136.106,22.258 136.03,22.283 C135.994,22.295 135.958,22.306 135.922,22.319 C135.879,22.334 135.836,22.349 135.794,22.366 C135.695,22.399 135.599,22.433 135.506,22.468 C135.51,22.589 135.518,22.702 135.522,22.816 C135.523,22.832 135.524,22.845 135.524,22.861 C135.528,22.914 135.53,22.966 135.532,23.017 C135.54,23.137 135.546,23.256 135.551,23.372 C135.567,23.639 135.578,23.89 135.594,24.139 C135.608,24.39 135.622,24.641 135.637,24.898 L135.637,24.914 C135.642,24.988 135.647,25.067 135.651,25.144 C135.651,25.179 135.653,25.215 135.656,25.25 C135.658,25.305 135.662,25.361 135.665,25.418 C135.666,25.46 135.67,25.501 135.672,25.542 C135.676,25.611 135.68,25.684 135.682,25.758 C135.684,25.786 135.686,25.812 135.686,25.841 C135.691,25.935 135.696,26.029 135.701,26.127 C135.705,26.184 135.707,26.242 135.71,26.3 C135.712,26.357 135.716,26.411 135.717,26.47 C135.72,26.524 135.721,26.578 135.725,26.633 C135.727,26.695 135.731,26.758 135.733,26.821 C135.736,26.88 135.737,26.937 135.741,26.998 C135.743,27.067 135.747,27.142 135.75,27.214 C135.752,27.269 135.755,27.324 135.756,27.381 C135.762,27.512 135.766,27.648 135.771,27.789 C135.909,27.78 136.053,27.77 136.194,27.762 C136.31,27.755 136.427,27.746 136.548,27.741 C136.735,27.726 136.921,27.717 137.11,27.702 C137.342,27.685 137.575,27.669 137.811,27.651 C137.939,27.643 138.066,27.633 138.194,27.625 C138.982,27.565 139.784,27.504 140.579,27.445 C140.689,27.438 140.799,27.428 140.907,27.422 C141.174,27.402 141.436,27.383 141.7,27.364 C141.881,27.351 142.054,27.341 142.232,27.329 C142.43,27.315 142.627,27.303 142.819,27.292 C143.047,27.276 143.264,27.266 143.485,27.254 C143.627,27.247 143.77,27.236 143.909,27.231 C144.264,27.214 144.612,27.199 144.948,27.189 L144.862,27.189 L144.861,27.189 C145.222,27.151 145.566,27.133 145.893,27.133 L145.893,27.133 L145.893,27.133 L145.893,27.133 C146.122,27.133 146.338,27.144 146.55,27.161 C146.605,27.166 146.656,27.17 146.712,27.178 C146.917,27.199 147.117,27.225 147.309,27.263 C147.311,27.264 147.316,27.265 147.324,27.266 C147.512,27.304 147.695,27.352 147.872,27.407 C147.92,27.423 147.965,27.435 148.01,27.451 C148.18,27.508 148.344,27.568 148.5,27.639 C148.508,27.641 148.514,27.645 148.521,27.648 C148.678,27.719 148.826,27.801 148.969,27.887 C149.008,27.91 149.046,27.933 149.085,27.957 C149.222,28.043 149.353,28.134 149.477,28.232 C149.483,28.237 149.492,28.244 149.498,28.249 C149.626,28.352 149.741,28.46 149.855,28.572 C149.887,28.606 149.918,28.636 149.948,28.671 C150.055,28.781 150.154,28.899 150.253,29.019 C150.259,29.028 150.267,29.039 150.274,29.048 C150.369,29.173 150.456,29.306 150.545,29.443 C150.567,29.483 150.592,29.523 150.616,29.564 C150.69,29.694 150.763,29.829 150.83,29.965 C150.84,29.985 150.849,30.001 150.856,30.02 C150.907,30.129 150.957,30.244 151.002,30.357 C151.002,30.36 151.005,30.363 151.006,30.369 C151.011,30.387 151.016,30.405 151.024,30.426 C151.192,30.864 151.319,31.333 151.402,31.824 C151.417,31.898 151.426,31.97 151.438,32.047 C151.465,32.231 151.486,32.418 151.504,32.608 C151.51,32.683 151.52,32.758 151.525,32.837 C151.545,33.096 151.554,33.358 151.554,33.626 L151.554,38.17 L151.554,39.027 C151.486,39.009 151.42,38.99 151.352,38.97 C151.343,38.968 151.333,38.965 151.325,38.962 C151.313,38.961 151.304,38.958 151.297,38.954 C151.241,38.939 151.189,38.926 151.133,38.908 C151.104,38.901 151.075,38.894 151.049,38.887 C151.016,38.878 150.983,38.868 150.946,38.86 C150.946,38.859 150.942,38.859 150.94,38.859 C150.928,38.855 150.914,38.851 150.901,38.848 C150.872,38.84 150.841,38.832 150.811,38.825 C150.764,38.812 150.718,38.803 150.671,38.791 C150.652,38.786 150.638,38.782 150.622,38.777 C150.573,38.765 150.522,38.756 150.477,38.741 C150.463,38.737 150.449,38.735 150.438,38.732 C150.389,38.721 150.34,38.709 150.289,38.696 C150.239,38.686 150.188,38.675 150.139,38.661 C150.077,38.648 150.02,38.635 149.959,38.621 L149.956,38.621 C149.902,38.609 149.849,38.6 149.793,38.587 L149.793,38.587 C149.735,38.577 149.68,38.566 149.62,38.554 L149.62,38.553 C149.559,38.54 149.501,38.53 149.438,38.518 L149.438,38.518 C149.382,38.506 149.327,38.498 149.272,38.488 C149.206,38.476 149.139,38.466 149.072,38.454 C149.022,38.445 148.969,38.437 148.92,38.43 C148.893,38.426 148.865,38.423 148.84,38.419 C148.788,38.411 148.743,38.404 148.694,38.396 L148.694,38.396 C148.648,38.391 148.602,38.385 148.557,38.378 C148.557,38.378 148.557,38.378 148.554,38.377 C148.543,38.377 148.531,38.375 148.519,38.374 C148.447,38.363 148.375,38.353 148.297,38.345 C148.262,38.341 148.221,38.337 148.182,38.332 C148.145,38.328 148.107,38.323 148.071,38.32 C148.01,38.312 147.951,38.303 147.886,38.299 L147.886,38.299 C147.859,38.296 147.83,38.294 147.801,38.291 L147.799,38.291 C147.686,38.28 147.571,38.27 147.451,38.26 L147.451,38.26 C147.442,38.26 147.432,38.26 147.423,38.257 C147.423,38.257 147.423,38.257 147.42,38.257 L147.42,38.257 L147.42,38.257 C147.25,38.241 147.071,38.233 146.891,38.223 C146.822,38.22 146.751,38.216 146.676,38.211 C146.673,38.211 146.67,38.21 146.665,38.21 L146.665,38.21 C146.547,38.205 146.42,38.198 146.293,38.195 C146.289,38.195 146.286,38.195 146.282,38.194 C146.221,38.193 146.165,38.187 146.102,38.187 C146.073,38.186 146.043,38.185 146.014,38.185 C145.905,38.182 145.792,38.179 145.679,38.176 C145.637,38.176 145.593,38.176 145.549,38.175 L145.53,38.175 C145.521,38.174 145.515,38.174 145.509,38.174 L145.505,38.174 L145.435,38.174 C145.408,38.172 145.378,38.172 145.35,38.172 C145.224,38.171 145.095,38.17 144.963,38.17 L144.963,38.17 L144.943,38.17 C144.863,38.17 144.783,38.174 144.703,38.175 C144.548,38.176 144.391,38.179 144.235,38.185 L144.227,38.185 C144.206,38.185 144.182,38.185 144.16,38.187 C144.074,38.189 143.99,38.197 143.906,38.204 L143.9,38.204 C143.774,38.21 143.646,38.218 143.521,38.225 L143.52,38.225 C143.478,38.228 143.435,38.234 143.392,38.238 C143.324,38.241 143.255,38.252 143.188,38.257 C143.12,38.264 143.051,38.273 142.98,38.278 C142.929,38.285 142.878,38.291 142.828,38.296 L142.828,38.296 C142.749,38.307 142.671,38.317 142.593,38.328 C142.562,38.331 142.531,38.335 142.501,38.338 C142.427,38.348 142.351,38.361 142.275,38.374 C142.234,38.381 142.191,38.385 142.15,38.394 L142.147,38.394 C142.043,38.412 141.938,38.428 141.835,38.446 L141.834,38.446 C141.772,38.459 141.712,38.472 141.65,38.483 C141.591,38.498 141.532,38.507 141.474,38.519 C141.469,38.521 141.466,38.521 141.46,38.521 C141.367,38.541 141.275,38.559 141.187,38.581 L141.185,38.582 C141.098,38.602 141.014,38.625 140.929,38.644 C140.878,38.659 140.825,38.672 140.775,38.684 C140.771,38.685 140.766,38.687 140.761,38.688 C140.661,38.713 140.562,38.738 140.464,38.768 C140.452,38.771 140.443,38.774 140.433,38.778 C140.278,38.822 140.122,38.868 139.97,38.918 L139.97,38.918 C139.886,38.944 139.808,38.977 139.726,39.003 C139.722,39.003 139.717,39.006 139.712,39.007 C139.602,39.045 139.488,39.085 139.378,39.125 C139.378,39.125 139.377,39.126 139.374,39.128 C139.29,39.157 139.206,39.192 139.121,39.228 C139.12,39.228 139.117,39.228 139.115,39.231 C139.01,39.273 138.904,39.314 138.8,39.361 C138.8,39.361 138.8,39.361 138.798,39.361 C138.717,39.397 138.636,39.434 138.556,39.469 C138.554,39.469 138.552,39.47 138.55,39.472 C138.548,39.472 138.546,39.472 138.545,39.474 C138.502,39.494 138.46,39.513 138.419,39.533 C138.359,39.561 138.302,39.589 138.245,39.616 C138.24,39.617 138.238,39.618 138.234,39.62 C138.158,39.66 138.081,39.696 138.003,39.737 C138.002,39.738 138,39.738 138,39.738 C137.947,39.766 137.898,39.794 137.849,39.82 C137.799,39.847 137.747,39.875 137.696,39.902 C137.691,39.904 137.687,39.908 137.681,39.91 C137.614,39.948 137.545,39.985 137.48,40.024 L137.476,40.024 C137.383,40.081 137.293,40.135 137.202,40.191 C137.177,40.209 137.148,40.224 137.123,40.241 C137.109,40.25 137.099,40.256 137.087,40.262 C137.049,40.284 137.011,40.307 136.975,40.332 C136.975,40.332 136.974,40.332 136.974,40.334 C136.811,40.438 136.653,40.545 136.497,40.657 L136.494,40.657 C136.445,40.691 136.398,40.73 136.349,40.765 C136.343,40.769 136.337,40.773 136.33,40.78 C136.228,40.855 136.13,40.929 136.031,41.009 C136.029,41.012 136.027,41.012 136.025,41.014 C135.968,41.059 135.914,41.106 135.857,41.151 C135.853,41.155 135.851,41.158 135.847,41.161 C135.757,41.235 135.671,41.309 135.583,41.385 L135.583,41.385 C135.579,41.388 135.578,41.392 135.574,41.394 C135.519,41.441 135.466,41.493 135.412,41.541 C135.407,41.544 135.404,41.546 135.4,41.55 C135.32,41.623 135.24,41.698 135.165,41.777 C135.161,41.779 135.156,41.782 135.154,41.785 C135.15,41.788 135.147,41.79 135.144,41.795 C135.093,41.844 135.041,41.893 134.993,41.945 C134.99,41.947 134.987,41.949 134.984,41.951 C134.913,42.025 134.838,42.103 134.766,42.18 C134.757,42.189 134.746,42.201 134.738,42.213 C134.732,42.218 134.727,42.222 134.722,42.228 C134.681,42.273 134.638,42.318 134.597,42.363 C134.595,42.365 134.593,42.368 134.592,42.369 C134.495,42.478 134.402,42.591 134.307,42.702 C134.298,42.716 134.286,42.728 134.275,42.741 C134.259,42.762 134.245,42.779 134.226,42.8 C134.224,42.802 134.223,42.803 134.222,42.805 C134.103,42.954 133.988,43.108 133.875,43.26 C133.875,43.26 133.872,43.264 133.87,43.266 C133.849,43.295 133.827,43.329 133.807,43.358 C133.799,43.369 133.791,43.379 133.786,43.387 C133.771,43.408 133.759,43.426 133.745,43.449 C133.678,43.546 133.611,43.637 133.548,43.737 C133.547,43.737 133.546,43.74 133.544,43.74 C133.511,43.794 133.481,43.844 133.447,43.891 C133.443,43.899 133.439,43.905 133.437,43.912 C133.372,44.016 133.306,44.121 133.243,44.227 C133.24,44.231 133.239,44.233 133.237,44.237 C133.206,44.294 133.173,44.35 133.14,44.408 C133.137,44.41 133.136,44.414 133.134,44.419 C133.077,44.519 133.021,44.621 132.968,44.728 C132.964,44.732 132.961,44.738 132.958,44.748 L132.956,44.748 C132.954,44.751 132.953,44.756 132.951,44.758 C132.921,44.815 132.89,44.872 132.861,44.93 C132.86,44.934 132.857,44.938 132.857,44.94 C132.852,44.951 132.847,44.961 132.843,44.97 C132.789,45.074 132.739,45.182 132.691,45.289 C132.687,45.292 132.685,45.302 132.681,45.308 C132.659,45.36 132.633,45.411 132.611,45.46 C132.61,45.465 132.609,45.467 132.608,45.467 C132.544,45.613 132.482,45.764 132.423,45.912 C132.419,45.921 132.415,45.927 132.411,45.933 C132.402,45.955 132.391,45.98 132.384,45.998 C132.384,46.003 132.384,46.003 132.382,46.007 C132.312,46.193 132.243,46.381 132.179,46.571 L132.178,46.571 C132.169,46.595 132.163,46.623 132.154,46.647 C132.152,46.657 132.148,46.668 132.145,46.678 C132.126,46.737 132.109,46.795 132.091,46.856 C132.062,46.949 132.03,47.044 132.005,47.138 C132.003,47.141 132.003,47.141 132.003,47.143 C131.986,47.192 131.976,47.245 131.962,47.296 C131.96,47.301 131.958,47.307 131.957,47.315 C131.956,47.317 131.956,47.323 131.954,47.326 C131.933,47.405 131.913,47.49 131.891,47.567 C131.877,47.621 131.865,47.671 131.852,47.725 C131.852,47.727 131.85,47.727 131.85,47.729 C131.835,47.794 131.821,47.862 131.805,47.929 C131.805,47.932 131.804,47.936 131.804,47.938 C131.789,48.002 131.778,48.071 131.763,48.133 C131.753,48.184 131.742,48.235 131.731,48.283 C131.709,48.414 131.684,48.545 131.666,48.674 C131.648,48.772 131.633,48.872 131.619,48.972 C131.598,49.112 131.582,49.254 131.565,49.393 C131.555,49.49 131.544,49.581 131.535,49.676 C131.519,49.834 131.511,49.992 131.5,50.155 C131.495,50.233 131.487,50.311 131.483,50.393 C131.471,50.634 131.467,50.876 131.467,51.122 L131.467,55.327 L131.467,55.33 C131.467,55.594 131.475,55.853 131.489,56.111 C131.494,56.193 131.502,56.273 131.51,56.357 C131.524,56.538 131.541,56.717 131.562,56.898 C131.573,56.984 131.584,57.075 131.596,57.168 C131.621,57.344 131.651,57.522 131.683,57.698 C131.697,57.777 131.71,57.853 131.727,57.931 C131.775,58.181 131.831,58.428 131.893,58.674 C131.899,58.689 131.904,58.702 131.91,58.718 C131.969,58.947 132.037,59.175 132.108,59.4 C132.133,59.478 132.162,59.555 132.188,59.632 C132.244,59.796 132.301,59.958 132.364,60.116 C132.397,60.2 132.43,60.284 132.467,60.37 C132.53,60.528 132.601,60.686 132.671,60.84 C132.705,60.916 132.737,60.989 132.773,61.064 C132.877,61.286 132.989,61.503 133.107,61.719 C133.114,61.73 133.123,61.742 133.13,61.759 C133.135,61.771 133.144,61.78 133.15,61.791 C133.265,62.001 133.387,62.201 133.512,62.403 C133.558,62.475 133.604,62.549 133.651,62.62 C133.758,62.782 133.869,62.942 133.983,63.102 C134.026,63.164 134.07,63.229 134.116,63.289 C134.268,63.497 134.428,63.7 134.594,63.895 C134.636,63.949 134.682,63.997 134.726,64.049 C134.856,64.199 134.991,64.348 135.126,64.492 C135.187,64.558 135.248,64.624 135.309,64.685 C135.455,64.831 135.602,64.978 135.752,65.123 C135.797,65.161 135.838,65.204 135.883,65.244 C136.071,65.419 136.269,65.587 136.469,65.75 C136.529,65.8 136.591,65.848 136.653,65.896 C136.806,66.017 136.965,66.133 137.122,66.248 C137.188,66.297 137.256,66.348 137.323,66.394 C137.539,66.54 137.757,66.687 137.979,66.825 C137.996,66.835 138.006,66.842 138.018,66.846 C138.235,66.979 138.456,67.102 138.68,67.218 C138.748,67.257 138.817,67.292 138.887,67.324 C139.073,67.42 139.26,67.512 139.449,67.595 C139.51,67.622 139.568,67.653 139.629,67.677 C139.877,67.783 140.127,67.885 140.381,67.982 C140.422,67.993 140.465,68.006 140.508,68.023 C140.725,68.097 140.946,68.171 141.166,68.238 C141.236,68.259 141.307,68.278 141.378,68.3 C141.607,68.363 141.842,68.421 142.078,68.473 C142.112,68.483 142.145,68.493 142.181,68.5 C142.455,68.559 142.731,68.605 143.011,68.646 C143.069,68.653 143.124,68.662 143.182,68.667 C143.411,68.698 143.641,68.723 143.873,68.739 C143.937,68.746 144.006,68.75 144.071,68.757 C144.356,68.776 144.643,68.786 144.932,68.786 C147.776,68.786 150.399,67.879 152.555,66.344 C154.243,65.143 155.641,63.557 156.629,61.715 C157.647,59.807 158.225,57.627 158.225,55.322 L158.225,35.824 L158.225,35.421 L158.225,35.185 L158.225,34.908 C158.232,34.822 158.228,34.741 158.228,34.657 L158.228,34.657 Z M139.294,58.805 C139.249,58.731 139.211,58.657 139.169,58.581 C139.148,58.544 139.126,58.507 139.106,58.467 C139.019,58.301 138.938,58.128 138.864,57.954 C138.846,57.915 138.834,57.876 138.818,57.837 C138.76,57.691 138.709,57.544 138.662,57.395 C138.645,57.344 138.629,57.295 138.612,57.249 C138.559,57.065 138.512,56.881 138.473,56.69 C138.465,56.653 138.461,56.619 138.453,56.58 C138.424,56.425 138.399,56.265 138.382,56.101 C138.375,56.04 138.369,55.978 138.362,55.918 C138.346,55.731 138.337,55.55 138.336,55.36 C138.336,55.345 138.334,55.335 138.334,55.319 L138.334,50.34 C138.334,48.499 139.063,46.848 140.253,45.656 C141.442,44.466 143.094,43.734 144.938,43.734 L151.542,43.734 L151.542,43.734 L151.542,44.656 L151.542,44.656 L151.542,48.167 L151.542,55.316 L151.542,55.316 C151.542,56.084 151.407,56.822 151.175,57.507 C150.357,59.913 148.232,61.701 145.619,61.968 C145.394,61.992 145.168,62.004 144.936,62.004 C144.731,62.004 144.528,61.99 144.33,61.972 C144.28,61.968 144.233,61.963 144.186,61.957 C143.989,61.936 143.794,61.908 143.604,61.869 C143.587,61.865 143.572,61.86 143.557,61.856 C143.379,61.819 143.203,61.77 143.03,61.715 C143.02,61.715 143.009,61.713 142.998,61.708 C142.965,61.698 142.935,61.687 142.901,61.677 C142.718,61.618 142.541,61.555 142.366,61.481 C142.345,61.471 142.321,61.46 142.299,61.451 C142.143,61.385 141.987,61.305 141.84,61.225 C141.803,61.204 141.764,61.188 141.729,61.164 C141.565,61.072 141.406,60.975 141.25,60.87 C141.225,60.849 141.201,60.835 141.175,60.814 C141.039,60.72 140.906,60.62 140.779,60.515 C140.75,60.489 140.717,60.464 140.688,60.439 C140.545,60.319 140.411,60.194 140.278,60.058 C140.254,60.037 140.229,60.006 140.205,59.98 C140.093,59.865 139.982,59.744 139.878,59.618 C139.856,59.591 139.831,59.558 139.809,59.535 C139.693,59.389 139.583,59.237 139.48,59.084 C139.458,59.048 139.434,59.016 139.411,58.979 C139.374,58.92 139.334,58.863 139.299,58.801 C139.296,58.809 139.296,58.807 139.294,58.805 L139.294,58.805 Z" id="Shape"></path>
            <path d="M123.067,34.641 C123.066,34.421 123.059,34.203 123.048,33.984 C123.048,33.981 123.048,33.979 123.047,33.977 C123.043,33.893 123.035,33.809 123.029,33.724 C123.028,33.715 123.028,33.706 123.027,33.698 C123.016,33.542 123.005,33.386 122.989,33.233 C122.988,33.23 122.986,33.226 122.986,33.222 C122.977,33.126 122.965,33.032 122.954,32.934 C122.954,32.928 122.953,32.921 122.952,32.915 C122.933,32.77 122.916,32.628 122.891,32.484 C122.89,32.481 122.89,32.478 122.89,32.473 C122.888,32.461 122.886,32.451 122.884,32.436 C122.869,32.349 122.856,32.26 122.839,32.173 L122.839,32.164 C122.813,32.021 122.785,31.88 122.757,31.741 C122.757,31.736 122.757,31.733 122.755,31.73 C122.741,31.667 122.729,31.603 122.714,31.541 C122.708,31.507 122.7,31.474 122.693,31.438 C122.69,31.437 122.69,31.434 122.689,31.431 C122.654,31.282 122.62,31.132 122.579,30.984 C122.577,30.976 122.576,30.969 122.574,30.963 C122.553,30.883 122.533,30.801 122.511,30.722 C122.511,30.719 122.511,30.718 122.509,30.716 C122.449,30.502 122.384,30.288 122.315,30.077 C122.314,30.073 122.313,30.071 122.312,30.066 C122.3,30.031 122.288,29.995 122.274,29.959 C122.274,29.957 122.273,29.957 122.273,29.957 C122.215,29.784 122.152,29.614 122.086,29.443 C122.071,29.408 122.06,29.369 122.046,29.333 L122.046,29.332 C122.027,29.29 122.011,29.249 121.993,29.207 C121.978,29.175 121.967,29.143 121.952,29.108 C121.889,28.955 121.825,28.8 121.758,28.65 C121.737,28.606 121.717,28.563 121.696,28.519 C121.685,28.497 121.675,28.474 121.665,28.451 C121.566,28.243 121.465,28.038 121.358,27.834 C121.339,27.802 121.322,27.767 121.306,27.732 C121.292,27.71 121.282,27.687 121.269,27.665 C121.165,27.47 121.05,27.28 120.937,27.091 C120.909,27.044 120.882,26.995 120.853,26.948 L120.853,26.946 C120.844,26.931 120.835,26.919 120.828,26.905 C120.807,26.874 120.786,26.842 120.765,26.809 C120.713,26.724 120.657,26.644 120.602,26.562 C120.581,26.53 120.559,26.499 120.537,26.467 C120.522,26.443 120.509,26.421 120.493,26.398 C120.457,26.345 120.424,26.293 120.387,26.241 L120.387,26.241 C120.344,26.178 120.301,26.116 120.256,26.055 C120.256,26.055 120.256,26.054 120.254,26.054 C120.094,25.831 119.926,25.61 119.752,25.398 C119.75,25.395 119.749,25.394 119.748,25.393 C119.576,25.183 119.395,24.982 119.213,24.784 C119.212,24.783 119.211,24.78 119.207,24.779 C119.18,24.749 119.151,24.717 119.123,24.688 C119.102,24.665 119.078,24.64 119.055,24.616 L119.055,24.615 C118.899,24.451 118.739,24.29 118.576,24.136 L118.576,24.135 C118.537,24.1 118.501,24.061 118.463,24.026 C118.262,23.841 118.057,23.665 117.849,23.492 C118.043,23.65 118.233,23.817 118.418,23.989 C118.231,23.817 118.043,23.65 117.848,23.491 C117.815,23.464 117.78,23.436 117.745,23.41 C117.731,23.398 117.717,23.387 117.702,23.377 C117.528,23.238 117.35,23.104 117.172,22.974 C117.116,22.935 117.065,22.896 117.01,22.858 C116.782,22.704 116.555,22.551 116.321,22.412 C116.299,22.397 116.276,22.387 116.256,22.373 C116.041,22.247 115.822,22.127 115.602,22.012 C115.541,21.98 115.48,21.95 115.417,21.919 C115.188,21.806 114.959,21.7 114.725,21.601 C114.719,21.599 114.715,21.597 114.711,21.595 C114.694,21.59 114.682,21.582 114.666,21.575 C114.41,21.471 114.147,21.374 113.885,21.286 C113.86,21.276 113.832,21.269 113.807,21.261 C113.774,21.252 113.743,21.241 113.711,21.233 C113.487,21.162 113.264,21.097 113.036,21.04 C113.01,21.033 112.981,21.026 112.956,21.019 C112.931,21.012 112.903,21.004 112.88,20.998 C112.607,20.934 112.329,20.875 112.049,20.831 C112.008,20.824 111.967,20.819 111.927,20.813 C111.684,20.775 111.438,20.746 111.191,20.724 C111.126,20.719 111.058,20.713 110.995,20.707 C110.976,20.707 110.962,20.706 110.943,20.705 C110.746,20.689 110.545,20.682 110.343,20.677 C110.269,20.675 110.197,20.672 110.122,20.672 L110.102,20.672 L110.102,20.672 L110.098,20.672 L110.097,20.672 L110.081,20.672 L110.081,20.672 L110.07,20.672 L110.07,20.672 C110.07,20.672 110.07,20.672 110.068,20.672 L110.068,20.672 L110.068,20.672 L110.066,20.672 L110.031,20.672 C109.827,20.673 109.614,20.676 109.392,20.682 L109.386,20.682 C109.37,20.682 109.355,20.684 109.341,20.684 L109.339,20.684 L109.339,20.684 C109.316,20.684 109.292,20.686 109.269,20.687 L109.253,20.687 L109.224,20.687 C109.222,20.687 109.222,20.688 109.221,20.688 C109.064,20.692 108.902,20.698 108.738,20.707 C108.686,20.709 108.632,20.712 108.579,20.715 C108.566,20.715 108.553,20.716 108.538,20.717 C108.524,20.718 108.513,20.718 108.499,20.719 L108.493,20.719 L108.49,20.719 L108.49,20.719 C108.488,20.72 108.485,20.72 108.484,20.72 C108.341,20.727 108.202,20.735 108.057,20.744 C107.943,20.753 107.828,20.761 107.713,20.768 C107.709,20.769 107.705,20.769 107.701,20.769 C107.701,20.769 107.701,20.77 107.698,20.77 L107.693,20.77 L107.693,20.77 L107.693,20.77 L107.686,20.77 C107.552,20.782 107.418,20.794 107.285,20.806 C107.417,20.794 107.551,20.782 107.681,20.77 C107.672,20.77 107.66,20.77 107.649,20.772 C107.582,20.777 107.513,20.783 107.443,20.791 C107.279,20.804 107.113,20.82 106.948,20.838 L106.936,20.838 C106.929,20.839 106.92,20.839 106.913,20.84 C106.885,20.843 106.854,20.846 106.827,20.848 L106.823,20.848 L106.822,20.848 L106.82,20.848 C106.642,20.869 106.466,20.89 106.29,20.911 C106.193,20.923 106.098,20.932 106.003,20.943 C105.999,20.945 105.995,20.945 105.993,20.947 C105.983,20.948 105.974,20.948 105.967,20.95 C105.865,20.963 105.767,20.978 105.668,20.994 C105.498,21.017 105.327,21.041 105.161,21.069 C105.159,21.069 105.157,21.072 105.156,21.072 C105.084,21.082 105.014,21.095 104.944,21.109 C104.892,21.12 104.841,21.13 104.791,21.138 C104.648,21.165 104.506,21.189 104.37,21.218 L104.37,21.219 L104.365,21.219 L104.365,21.219 C104.349,21.222 104.335,21.225 104.319,21.23 C104.096,21.278 103.884,21.329 103.679,21.383 L103.675,21.383 C103.66,21.387 103.646,21.391 103.632,21.394 C103.622,21.397 103.611,21.4 103.602,21.402 L103.599,21.402 C103.458,21.44 103.322,21.48 103.192,21.521 C103.185,21.523 103.179,21.525 103.172,21.527 L103.172,21.527 L103.172,21.527 L103.172,20.67 L103.172,2.032 L103.172,2.032 L103.172,1.344 L103.172,1.115 L103.172,1.115 L96.312,1.115 L96.312,1.521 L96.312,2.032 L96.312,68.267 L96.77,68.267 L103.171,68.267 L103.171,35.651 L103.171,28.13 L103.171,28.13 L103.171,28.13 L109.691,28.13 C109.711,28.13 109.729,28.132 109.75,28.132 C109.936,28.134 110.117,28.144 110.299,28.16 C110.369,28.165 110.44,28.175 110.51,28.182 C110.645,28.199 110.781,28.218 110.913,28.244 C110.983,28.256 111.053,28.269 111.123,28.284 C111.275,28.317 111.429,28.355 111.58,28.398 C111.619,28.409 111.659,28.419 111.696,28.431 C111.883,28.488 112.06,28.552 112.237,28.624 C112.296,28.646 112.351,28.673 112.41,28.698 C112.534,28.753 112.656,28.809 112.776,28.872 C112.838,28.901 112.896,28.934 112.956,28.966 C113.084,29.036 113.209,29.11 113.331,29.189 C113.372,29.214 113.415,29.239 113.454,29.265 C113.611,29.37 113.765,29.483 113.912,29.599 C113.952,29.633 113.991,29.668 114.029,29.702 C114.138,29.794 114.246,29.887 114.346,29.984 C114.393,30.031 114.439,30.076 114.484,30.122 C114.585,30.221 114.679,30.325 114.771,30.433 C114.805,30.473 114.842,30.511 114.875,30.552 C114.996,30.698 115.111,30.848 115.219,31.004 C115.244,31.041 115.266,31.076 115.289,31.111 C115.371,31.236 115.451,31.365 115.525,31.496 C115.555,31.552 115.588,31.609 115.619,31.666 C115.682,31.787 115.742,31.91 115.799,32.037 C115.824,32.092 115.85,32.144 115.873,32.201 C115.883,32.222 115.894,32.244 115.901,32.265 C115.905,32.276 115.909,32.286 115.914,32.297 C115.944,32.375 115.971,32.457 115.997,32.537 C116.028,32.624 116.061,32.711 116.09,32.801 C116.13,32.927 116.158,33.056 116.192,33.186 C116.211,33.264 116.233,33.342 116.251,33.422 C116.28,33.578 116.303,33.737 116.321,33.897 C116.33,33.954 116.342,34.009 116.347,34.066 C116.369,34.287 116.381,34.508 116.381,34.735 L116.381,68.27 L116.838,68.27 L123.068,68.27 L123.068,40.106 L123.068,35.651 L123.068,35.636 L123.068,34.734 C123.069,34.703 123.068,34.671 123.067,34.641 L123.067,34.641 Z" id="Shape"></path>
            <path d="M88.245,33.881 L88.245,33.872 C88.244,33.684 88.238,33.499 88.229,33.313 L88.229,33.272 C88.228,33.256 88.227,33.241 88.225,33.225 C88.22,33.138 88.211,33.05 88.205,32.961 C88.205,32.96 88.205,32.957 88.204,32.956 C88.192,32.804 88.183,32.649 88.166,32.501 L88.166,32.5 C88.154,32.388 88.139,32.279 88.124,32.17 L88.124,32.167 C88.104,32.022 88.087,31.88 88.064,31.738 L88.064,31.738 C88.048,31.637 88.029,31.541 88.012,31.443 C88.009,31.429 88.007,31.418 88.005,31.403 C88.005,31.403 88.005,31.403 88.005,31.402 C88.002,31.381 87.997,31.358 87.992,31.337 C87.971,31.221 87.95,31.106 87.926,30.989 C87.905,30.897 87.885,30.805 87.864,30.716 C87.859,30.697 87.855,30.676 87.85,30.656 L87.849,30.656 C87.833,30.59 87.817,30.523 87.8,30.458 C87.783,30.39 87.768,30.322 87.75,30.254 C87.734,30.198 87.719,30.144 87.703,30.089 C87.686,30.034 87.673,29.979 87.657,29.925 L87.657,29.925 C87.619,29.793 87.578,29.662 87.537,29.531 C87.502,29.422 87.466,29.315 87.429,29.21 C87.384,29.081 87.338,28.951 87.288,28.824 C87.248,28.719 87.209,28.616 87.165,28.511 C87.113,28.384 87.061,28.259 87.004,28.135 C86.974,28.064 86.942,27.992 86.908,27.92 C86.888,27.877 86.869,27.833 86.849,27.79 C86.825,27.734 86.797,27.68 86.77,27.626 C86.692,27.465 86.61,27.305 86.527,27.147 C86.51,27.116 86.496,27.084 86.479,27.053 L86.48,27.053 C86.378,26.867 86.273,26.685 86.167,26.502 C86.156,26.488 86.146,26.473 86.14,26.459 C86.121,26.431 86.103,26.4 86.085,26.373 C85.998,26.23 85.909,26.091 85.817,25.952 C85.786,25.905 85.754,25.855 85.72,25.807 C85.671,25.734 85.618,25.661 85.566,25.59 C85.374,25.317 85.175,25.048 84.964,24.79 C84.964,24.79 84.964,24.79 84.964,24.789 C84.928,24.746 84.892,24.704 84.856,24.659 C84.752,24.533 84.644,24.409 84.536,24.286 C84.536,24.286 84.535,24.285 84.535,24.284 C84.512,24.258 84.488,24.23 84.465,24.206 C84.453,24.191 84.442,24.179 84.431,24.166 L84.431,24.166 C84.384,24.113 84.334,24.063 84.285,24.013 C84.189,23.91 84.095,23.806 83.997,23.707 L83.997,23.707 C83.991,23.701 83.984,23.696 83.979,23.69 C83.963,23.673 83.946,23.66 83.93,23.642 C83.803,23.514 83.671,23.388 83.539,23.265 C83.495,23.225 83.451,23.186 83.407,23.146 C83.312,23.061 83.217,22.978 83.12,22.895 C83.086,22.866 83.05,22.834 83.016,22.804 L83.015,22.803 C82.985,22.78 82.957,22.753 82.928,22.728 L82.927,22.728 C82.815,22.634 82.699,22.546 82.587,22.457 C82.535,22.417 82.483,22.374 82.431,22.335 L82.431,22.335 C82.394,22.307 82.358,22.28 82.32,22.252 C82.319,22.252 82.319,22.251 82.317,22.25 C82.183,22.15 82.046,22.053 81.908,21.958 C81.908,21.956 81.907,21.956 81.907,21.956 C81.861,21.924 81.813,21.892 81.765,21.858 L81.765,21.857 C81.599,21.748 81.432,21.637 81.261,21.533 C81.26,21.533 81.26,21.532 81.259,21.532 C81.251,21.525 81.242,21.519 81.233,21.514 L81.232,21.513 C81.102,21.434 80.97,21.359 80.837,21.284 C80.785,21.254 80.733,21.221 80.681,21.193 L80.68,21.191 C80.642,21.172 80.605,21.152 80.568,21.131 C80.556,21.126 80.547,21.119 80.536,21.113 C80.458,21.072 80.379,21.032 80.3,20.992 C80.231,20.955 80.163,20.918 80.092,20.884 C80.092,20.884 80.091,20.883 80.09,20.883 C80.065,20.871 80.041,20.86 80.017,20.847 C79.995,20.835 79.971,20.824 79.948,20.813 C79.79,20.737 79.629,20.665 79.469,20.593 C79.435,20.578 79.401,20.56 79.365,20.545 L79.365,20.545 C79.356,20.542 79.346,20.537 79.339,20.535 C79.331,20.532 79.322,20.528 79.315,20.526 C79.315,20.525 79.313,20.525 79.312,20.525 C79.309,20.521 79.306,20.521 79.304,20.52 L79.303,20.52 C79.302,20.52 79.302,20.518 79.302,20.518 L79.301,20.518 C79.125,20.445 78.949,20.375 78.772,20.308 L78.772,20.307 C78.715,20.286 78.661,20.266 78.603,20.246 L78.6,20.246 C78.438,20.185 78.273,20.13 78.109,20.078 L78.107,20.077 C78.065,20.061 78.024,20.049 77.982,20.035 L77.982,20.035 C77.8,19.977 77.616,19.927 77.431,19.877 C77.407,19.872 77.385,19.863 77.36,19.857 C77.317,19.845 77.272,19.835 77.229,19.824 L77.227,19.824 C77.194,19.814 77.161,19.808 77.127,19.8 C76.989,19.767 76.854,19.736 76.716,19.705 C76.686,19.698 76.654,19.692 76.625,19.684 C76.595,19.679 76.564,19.672 76.535,19.666 L76.534,19.666 C76.38,19.635 76.222,19.606 76.064,19.581 C75.869,19.55 75.671,19.519 75.473,19.496 L75.468,19.496 C75.313,19.477 75.158,19.458 75.001,19.444 C74.849,19.43 74.696,19.419 74.543,19.411 L74.543,19.411 C74.507,19.408 74.473,19.403 74.439,19.401 C74.417,19.401 74.396,19.401 74.374,19.4 C74.37,19.4 74.365,19.399 74.36,19.399 L74.36,19.399 C74.272,19.394 74.182,19.394 74.095,19.391 C73.955,19.387 73.817,19.38 73.677,19.38 C73.538,19.38 73.4,19.386 73.261,19.391 L73.26,19.391 L73.254,19.391 C73.231,19.392 73.209,19.393 73.187,19.393 C73.133,19.393 73.082,19.395 73.028,19.396 C72.988,19.398 72.948,19.399 72.907,19.4 L72.907,19.4 L72.907,19.4 C72.771,19.407 72.638,19.421 72.505,19.43 C72.501,19.43 72.495,19.431 72.488,19.431 C72.407,19.436 72.327,19.444 72.247,19.45 C72.218,19.453 72.189,19.454 72.161,19.457 C72.016,19.473 71.875,19.493 71.732,19.513 C71.629,19.526 71.524,19.535 71.424,19.552 C71.278,19.574 71.135,19.602 70.991,19.63 C70.93,19.641 70.87,19.651 70.808,19.662 C70.772,19.669 70.735,19.675 70.697,19.682 C70.697,19.682 70.697,19.682 70.696,19.682 C70.594,19.703 70.493,19.729 70.392,19.753 C70.361,19.759 70.331,19.767 70.298,19.774 C70.286,19.778 70.274,19.781 70.261,19.783 C70.229,19.791 70.198,19.798 70.166,19.805 C70.105,19.818 70.046,19.831 69.984,19.846 C69.845,19.884 69.71,19.924 69.57,19.964 C69.561,19.967 69.551,19.969 69.543,19.973 C69.458,19.997 69.372,20.02 69.289,20.046 L69.287,20.047 C69.272,20.051 69.26,20.056 69.245,20.061 C69.139,20.095 69.033,20.134 68.927,20.169 C68.902,20.177 68.877,20.185 68.853,20.194 C68.778,20.219 68.703,20.244 68.627,20.27 C68.62,20.273 68.611,20.276 68.605,20.277 C68.538,20.303 68.47,20.332 68.401,20.359 L68.275,20.41 C68.24,20.424 68.208,20.436 68.172,20.451 C68.095,20.482 68.017,20.51 67.94,20.543 L67.938,20.543 C67.901,20.559 67.867,20.575 67.831,20.592 C67.747,20.63 67.66,20.668 67.575,20.709 C67.548,20.72 67.52,20.731 67.494,20.745 C67.428,20.776 67.357,20.805 67.293,20.836 L67.293,20.837 C67.179,20.892 67.067,20.95 66.957,21.01 C66.921,21.03 66.885,21.047 66.848,21.067 C66.786,21.099 66.723,21.13 66.661,21.162 C66.66,21.162 66.659,21.163 66.656,21.165 C66.577,21.209 66.499,21.257 66.42,21.301 C66.351,21.34 66.284,21.379 66.217,21.419 C66.161,21.452 66.103,21.483 66.048,21.517 C66.048,21.517 66.047,21.518 66.045,21.519 C65.98,21.56 65.915,21.602 65.852,21.644 C65.849,21.646 65.847,21.646 65.841,21.65 C65.824,21.661 65.809,21.671 65.791,21.682 C65.726,21.724 65.659,21.766 65.594,21.807 C65.548,21.84 65.499,21.868 65.454,21.9 C65.453,21.901 65.452,21.902 65.45,21.903 C65.372,21.956 65.297,22.01 65.221,22.065 C65.145,22.119 65.069,22.171 64.995,22.226 C64.957,22.254 64.916,22.281 64.879,22.308 C64.877,22.31 64.877,22.311 64.875,22.313 C64.855,22.327 64.838,22.342 64.819,22.356 C64.796,22.375 64.771,22.394 64.747,22.415 C64.638,22.498 64.531,22.582 64.425,22.669 C64.393,22.695 64.359,22.72 64.328,22.746 C64.326,22.747 64.323,22.749 64.321,22.751 L64.32,22.752 C64.313,22.757 64.307,22.763 64.302,22.768 C64.272,22.793 64.243,22.819 64.214,22.843 C64.098,22.944 63.982,23.042 63.866,23.145 C63.844,23.167 63.818,23.186 63.796,23.208 C63.793,23.211 63.791,23.212 63.789,23.215 C63.781,23.221 63.773,23.229 63.766,23.236 C63.619,23.373 63.475,23.509 63.333,23.652 C63.317,23.667 63.303,23.68 63.288,23.696 C63.217,23.767 63.148,23.842 63.078,23.916 C63.041,23.959 63,24 62.962,24.042 C62.922,24.084 62.881,24.125 62.842,24.168 C62.83,24.18 62.818,24.19 62.806,24.205 C62.672,24.353 62.545,24.51 62.416,24.663 C62.416,24.664 62.415,24.664 62.415,24.664 C62.41,24.671 62.403,24.678 62.397,24.683 C62.36,24.727 62.321,24.77 62.286,24.815 C62.266,24.839 62.246,24.862 62.226,24.887 C62.121,25.018 62.023,25.156 61.923,25.288 C61.845,25.392 61.763,25.494 61.687,25.601 C61.533,25.821 61.385,26.046 61.243,26.274 C61.227,26.299 61.21,26.323 61.194,26.347 C61.173,26.385 61.151,26.424 61.129,26.463 C61.081,26.54 61.039,26.62 60.994,26.699 C60.894,26.868 60.803,27.04 60.711,27.213 C60.69,27.254 60.665,27.295 60.643,27.337 C60.592,27.437 60.542,27.536 60.495,27.637 C60.468,27.697 60.443,27.752 60.416,27.809 C60.346,27.957 60.275,28.105 60.211,28.256 C60.165,28.361 60.121,28.466 60.078,28.573 C59.988,28.793 59.908,29.016 59.829,29.244 C59.795,29.338 59.761,29.431 59.728,29.527 L59.728,29.53 C59.719,29.562 59.709,29.592 59.701,29.627 C59.608,29.916 59.522,30.207 59.45,30.503 L59.448,30.503 C59.447,30.506 59.447,30.508 59.447,30.512 C59.166,31.644 59.014,32.83 59.014,34.047 L59.014,34.952 L59.014,49.139 L59.014,54.29 C59.014,54.3 59.015,54.312 59.015,54.324 C59.017,54.605 59.026,54.884 59.042,55.162 C59.048,55.249 59.053,55.334 59.06,55.421 C59.078,55.657 59.099,55.893 59.126,56.126 C59.134,56.186 59.139,56.248 59.147,56.309 C59.184,56.592 59.229,56.872 59.281,57.156 C59.297,57.235 59.313,57.313 59.33,57.391 C59.375,57.612 59.424,57.831 59.476,58.049 C59.497,58.126 59.513,58.203 59.534,58.281 C59.605,58.553 59.682,58.827 59.769,59.095 C59.79,59.16 59.811,59.222 59.832,59.283 C59.903,59.501 59.981,59.718 60.063,59.932 C60.094,60.012 60.126,60.096 60.158,60.176 C60.262,60.438 60.371,60.696 60.487,60.947 C60.502,60.978 60.516,61.009 60.531,61.04 C60.64,61.269 60.759,61.503 60.879,61.728 C60.894,61.756 60.909,61.786 60.923,61.81 C60.955,61.872 60.987,61.927 61.022,61.99 C61.104,62.136 61.191,62.288 61.281,62.435 C61.33,62.517 61.377,62.597 61.426,62.674 C61.564,62.892 61.703,63.112 61.853,63.32 C61.873,63.346 61.891,63.372 61.907,63.395 C62.043,63.583 62.181,63.772 62.323,63.955 C62.378,64.022 62.434,64.09 62.489,64.159 C62.604,64.298 62.718,64.434 62.839,64.572 C62.899,64.637 62.959,64.711 63.021,64.776 C63.154,64.922 63.292,65.065 63.431,65.206 C63.477,65.252 63.521,65.3 63.568,65.347 C63.755,65.529 63.943,65.702 64.135,65.872 C64.189,65.918 64.245,65.962 64.3,66.008 C64.446,66.132 64.595,66.251 64.747,66.37 C64.819,66.426 64.893,66.479 64.968,66.536 C65.112,66.643 65.258,66.747 65.406,66.847 C65.478,66.898 65.55,66.947 65.622,66.993 C65.834,67.131 66.048,67.261 66.268,67.386 C66.294,67.403 66.323,67.415 66.35,67.431 C66.557,67.544 66.768,67.657 66.982,67.756 C67.063,67.794 67.147,67.832 67.229,67.87 C67.391,67.944 67.555,68.015 67.719,68.081 C67.81,68.116 67.9,68.154 67.99,68.186 C68.17,68.252 68.349,68.315 68.533,68.374 C68.607,68.395 68.679,68.422 68.756,68.444 C69.006,68.519 69.261,68.589 69.52,68.648 C69.599,68.666 69.679,68.679 69.761,68.699 C69.949,68.737 70.138,68.774 70.331,68.803 C70.435,68.822 70.538,68.833 70.641,68.848 C70.823,68.872 71.007,68.891 71.192,68.91 C71.293,68.918 71.392,68.931 71.495,68.938 C71.747,68.954 72.001,68.962 72.259,68.963 C72.287,68.963 72.316,68.965 72.345,68.965 C72.717,68.965 73.094,68.95 73.478,68.915 C73.855,68.887 74.241,68.837 74.63,68.771 L83.507,67.422 L84.236,67.316 L84.034,62.045 L83.929,59.226 L83.916,58.888 L83.901,58.534 L83.892,58.304 L73.67,58.304 L73.612,58.304 C73.474,58.302 73.34,58.293 73.206,58.28 C73.147,58.273 73.093,58.261 73.036,58.254 C72.938,58.241 72.843,58.221 72.748,58.199 C72.693,58.187 72.641,58.175 72.588,58.158 C72.583,58.157 72.578,58.157 72.573,58.154 C72.477,58.128 72.385,58.093 72.293,58.064 C72.244,58.043 72.191,58.03 72.145,58.005 C72.012,57.951 71.882,57.896 71.757,57.826 C71.739,57.817 71.724,57.805 71.708,57.797 C71.592,57.733 71.479,57.66 71.369,57.584 C71.33,57.56 71.291,57.526 71.252,57.495 C71.171,57.434 71.092,57.373 71.015,57.307 C70.976,57.27 70.939,57.237 70.901,57.203 C70.825,57.13 70.752,57.054 70.68,56.975 C70.652,56.945 70.621,56.912 70.594,56.878 C70.501,56.77 70.413,56.655 70.332,56.534 C70.329,56.531 70.327,56.526 70.322,56.523 L70.322,56.523 C70.259,56.427 70.201,56.329 70.145,56.23 C70.125,56.197 70.11,56.164 70.093,56.129 C70.054,56.058 70.019,55.981 69.985,55.902 C69.969,55.87 69.955,55.835 69.939,55.798 C69.9,55.699 69.862,55.601 69.83,55.496 C69.827,55.485 69.821,55.475 69.818,55.464 C69.785,55.353 69.756,55.238 69.731,55.125 C69.724,55.085 69.716,55.046 69.71,55.007 C69.694,54.925 69.681,54.843 69.671,54.759 C69.667,54.716 69.662,54.677 69.657,54.634 C69.647,54.525 69.641,54.411 69.64,54.296 C69.64,54.287 69.639,54.278 69.639,54.271 L69.639,49.64 L82.932,49.64 C85.848,49.64 88.249,47.324 88.249,44.324 L88.249,34.934 L88.249,34.029 C88.25,33.992 88.247,33.938 88.245,33.881 L88.245,33.881 Z M69.639,39.021 L69.639,34.045 C69.639,31.816 71.439,30.015 73.67,30.015 C73.691,30.015 73.713,30.018 73.734,30.019 C73.832,30.019 73.927,30.024 74.022,30.034 C74.07,30.038 74.118,30.046 74.165,30.052 C74.237,30.062 74.31,30.073 74.38,30.086 C74.428,30.095 74.476,30.106 74.524,30.115 C74.596,30.133 74.669,30.151 74.739,30.173 C74.78,30.185 74.823,30.194 74.864,30.209 C74.97,30.244 75.075,30.283 75.178,30.327 C75.208,30.34 75.237,30.354 75.267,30.369 C75.343,30.403 75.418,30.439 75.491,30.478 C75.531,30.501 75.57,30.522 75.608,30.545 C75.671,30.583 75.734,30.622 75.796,30.662 C75.834,30.686 75.871,30.711 75.905,30.735 C75.973,30.784 76.04,30.836 76.104,30.888 C76.129,30.909 76.156,30.926 76.18,30.95 C76.268,31.022 76.351,31.099 76.432,31.181 C76.453,31.203 76.474,31.226 76.495,31.248 C76.555,31.311 76.612,31.375 76.669,31.441 C76.693,31.471 76.718,31.504 76.743,31.534 C76.793,31.598 76.842,31.666 76.889,31.732 C76.911,31.762 76.932,31.793 76.952,31.824 C77.01,31.912 77.066,32.004 77.117,32.098 C77.124,32.107 77.129,32.117 77.135,32.126 C77.19,32.231 77.242,32.341 77.29,32.453 C77.301,32.478 77.31,32.505 77.319,32.533 C77.341,32.589 77.367,32.645 77.386,32.703 C77.386,32.703 77.386,32.703 77.386,32.705 C77.396,32.732 77.404,32.762 77.414,32.79 C77.426,32.831 77.436,32.872 77.451,32.913 C77.472,32.991 77.493,33.071 77.511,33.151 C77.522,33.196 77.532,33.238 77.539,33.283 C77.556,33.37 77.567,33.458 77.579,33.548 C77.585,33.584 77.59,33.621 77.593,33.656 C77.605,33.784 77.613,33.913 77.613,34.043 L77.613,39.019 L77.613,39.019 L77.384,39.019 L70.784,39.019 L70.095,39.019 L70.095,39.019 L69.639,39.021 L69.639,39.021 L69.639,39.021 Z" id="Shape"></path>
            <path d="M54.689,1.788 L54.689,1.788 L54.684,1.901 L54.687,1.788 L54.687,1.788 L54.718,1.116 C54.649,1.07 54.548,1.016 54.426,0.958 C54.4,0.945 54.366,0.933 54.339,0.919 C54.369,0.934 54.402,0.945 54.43,0.96 C54.553,1.017 54.649,1.069 54.718,1.114 C54.65,1.069 54.552,1.016 54.431,0.96 C54.399,0.943 54.357,0.929 54.322,0.912 C54.292,0.897 54.26,0.886 54.229,0.871 C54.215,0.866 54.206,0.859 54.19,0.854 C54.148,0.837 54.102,0.818 54.057,0.802 C54.003,0.781 53.949,0.76 53.89,0.74 C53.811,0.711 53.729,0.681 53.64,0.652 C53.633,0.651 53.625,0.647 53.616,0.645 C53.514,0.612 53.405,0.58 53.292,0.544 C53.268,0.538 53.246,0.53 53.221,0.523 C53.217,0.523 53.212,0.521 53.207,0.519 L53.205,0.519 C53.195,0.516 53.189,0.515 53.182,0.513 C53.134,0.499 53.084,0.487 53.036,0.474 C53.004,0.465 52.97,0.455 52.936,0.448 C52.913,0.441 52.89,0.434 52.866,0.428 C52.843,0.421 52.816,0.416 52.792,0.41 C52.777,0.406 52.764,0.403 52.748,0.398 C52.669,0.378 52.59,0.359 52.506,0.34 L52.504,0.34 C52.475,0.334 52.443,0.328 52.415,0.321 C52.317,0.3 52.22,0.278 52.117,0.258 C52.095,0.254 52.07,0.25 52.048,0.245 C52.023,0.24 51.996,0.236 51.97,0.231 C51.886,0.215 51.8,0.199 51.712,0.184 L51.711,0.184 C51.689,0.18 51.664,0.178 51.642,0.173 C51.634,0.173 51.625,0.171 51.618,0.169 C51.509,0.153 51.399,0.135 51.287,0.121 L51.284,0.121 C51.258,0.117 51.227,0.114 51.199,0.11 C51.191,0.109 51.184,0.109 51.178,0.107 C51.176,0.107 51.175,0.106 51.173,0.106 C51.164,0.106 51.152,0.105 51.146,0.105 C51.046,0.091 50.945,0.08 50.842,0.069 C50.842,0.069 50.842,0.069 50.841,0.069 C50.801,0.063 50.76,0.061 50.719,0.058 L50.719,0.058 C50.607,0.046 50.495,0.037 50.379,0.029 C50.356,0.028 50.332,0.027 50.308,0.025 C50.28,0.023 50.253,0.021 50.225,0.02 L50.215,0.02 C50.112,0.013 50.01,0.008 49.905,0.003 C49.872,0.002 49.836,0.002 49.801,0.001 L49.738,0.001 C49.727,0.001 49.716,0.001 49.703,0 L49.702,0 C49.602,0.003 49.502,0 49.399,0 L49.399,0 L49.399,0 C49.17,0 48.943,0.007 48.716,0.019 C48.685,0.022 48.654,0.024 48.623,0.026 C48.58,0.029 48.538,0.034 48.495,0.037 C48.341,0.046 48.186,0.058 48.034,0.077 C47.948,0.085 47.865,0.097 47.78,0.106 C47.637,0.125 47.497,0.144 47.355,0.168 C47.272,0.18 47.185,0.194 47.1,0.211 C46.958,0.236 46.816,0.266 46.674,0.296 C46.596,0.314 46.515,0.329 46.437,0.348 C46.276,0.385 46.116,0.428 45.957,0.472 C45.9,0.486 45.843,0.5 45.786,0.517 C45.574,0.58 45.362,0.645 45.154,0.717 C45.093,0.738 45.032,0.762 44.972,0.784 C44.824,0.837 44.676,0.89 44.53,0.95 C44.448,0.981 44.37,1.016 44.289,1.051 C44.164,1.103 44.039,1.158 43.915,1.214 C43.838,1.25 43.761,1.286 43.685,1.32 C43.5,1.409 43.319,1.5 43.141,1.592 C43.092,1.618 43.043,1.642 42.995,1.67 C42.777,1.787 42.563,1.912 42.352,2.042 C42.351,2.042 42.349,2.042 42.347,2.043 C42.286,2.082 42.224,2.121 42.162,2.161 C42.204,2.135 42.244,2.104 42.286,2.08 C42.244,2.104 42.204,2.135 42.162,2.161 C42.114,2.19 42.069,2.222 42.022,2.253 C41.912,2.325 41.798,2.397 41.689,2.471 C41.627,2.515 41.562,2.558 41.5,2.603 L41.5,2.603 C41.299,2.748 41.101,2.895 40.904,3.047 C40.904,3.047 40.903,3.047 40.903,3.048 C40.861,3.08 40.822,3.114 40.78,3.147 C40.812,3.122 40.844,3.092 40.879,3.066 C40.844,3.091 40.813,3.122 40.779,3.149 C40.698,3.213 40.623,3.281 40.544,3.346 C40.467,3.41 40.388,3.472 40.313,3.538 C40.29,3.559 40.266,3.58 40.242,3.601 C40.203,3.635 40.164,3.67 40.125,3.705 C39.973,3.842 39.822,3.981 39.675,4.125 C39.638,4.161 39.6,4.195 39.562,4.232 C39.468,4.327 39.378,4.423 39.287,4.519 C39.208,4.602 39.126,4.685 39.047,4.768 C38.994,4.828 38.942,4.886 38.889,4.946 L38.889,4.95 L38.886,4.95 C38.76,5.09 38.637,5.231 38.517,5.377 L38.517,5.38 C38.469,5.439 38.418,5.498 38.371,5.557 C38.277,5.671 38.19,5.788 38.101,5.904 C38.036,5.987 37.97,6.066 37.91,6.15 C37.895,6.169 37.884,6.185 37.872,6.204 C37.849,6.236 37.824,6.269 37.802,6.304 C37.775,6.342 37.75,6.38 37.722,6.419 C37.635,6.543 37.548,6.668 37.462,6.795 C37.437,6.833 37.412,6.872 37.387,6.91 C37.366,6.939 37.345,6.972 37.326,7.003 L37.324,7.003 C37.204,7.191 37.087,7.383 36.972,7.576 L36.972,7.576 C36.954,7.605 36.935,7.635 36.918,7.665 L36.918,7.666 C36.791,7.886 36.672,8.107 36.556,8.334 C36.547,8.351 36.537,8.369 36.529,8.387 C36.504,8.439 36.478,8.491 36.452,8.541 C36.452,8.544 36.451,8.545 36.451,8.545 C36.362,8.723 36.278,8.9 36.196,9.082 C36.196,9.083 36.195,9.084 36.195,9.085 C36.169,9.147 36.138,9.208 36.112,9.269 C36.087,9.331 36.064,9.391 36.039,9.45 C35.964,9.625 35.891,9.799 35.824,9.976 C35.819,9.986 35.816,9.997 35.813,10.007 C35.795,10.056 35.776,10.107 35.758,10.154 C35.725,10.243 35.696,10.334 35.666,10.422 C35.63,10.526 35.593,10.63 35.559,10.735 C35.551,10.76 35.543,10.789 35.537,10.814 C35.52,10.861 35.505,10.909 35.49,10.957 C35.429,11.154 35.376,11.354 35.321,11.559 C35.309,11.607 35.294,11.655 35.28,11.704 L35.28,11.705 L35.28,11.705 C35.28,11.705 35.28,11.705 35.28,11.706 L35.28,11.706 L35.28,11.706 L35.28,11.706 L35.28,11.707 L35.28,11.707 C35.279,11.709 35.279,11.709 35.278,11.711 C35.274,11.729 35.27,11.748 35.265,11.766 C35.27,11.748 35.274,11.728 35.279,11.71 C35.279,11.71 35.279,11.71 35.28,11.708 C35.266,11.758 35.259,11.807 35.247,11.855 C35.255,11.826 35.259,11.795 35.266,11.766 C35.202,12.033 35.142,12.3 35.089,12.57 C35.088,12.581 35.085,12.591 35.083,12.599 C35.08,12.614 35.079,12.628 35.076,12.642 L35.076,12.642 L35.076,12.642 C35.028,12.896 34.987,13.153 34.954,13.412 C34.941,13.499 34.933,13.586 34.923,13.676 C34.9,13.869 34.881,14.064 34.868,14.259 C34.859,14.35 34.851,14.439 34.847,14.53 C34.832,14.791 34.822,15.051 34.822,15.313 C34.822,15.328 34.82,15.341 34.82,15.356 L34.82,16.274 L34.82,79.508 L35.279,79.484 L45.456,78.912 L45.456,40.395 L45.457,40.395 L45.457,40.395 L53.432,40.395 L53.432,30.676 L53.432,29.988 L53.432,29.76 L46.602,29.76 L45.915,29.76 L45.915,29.76 L45.457,29.76 L45.457,29.759 L45.456,29.759 L45.456,15.351 C45.456,13.122 47.256,11.321 49.399,11.321 L54.289,11.321 L54.681,2.008 L54.681,2.008 L54.689,1.788 L54.689,1.788 L54.718,1.115 L54.689,1.788 L54.689,1.788 Z" id="Shape"></path>
            <path d="M10.635,2.26 L10.635,2.26 L10.635,2.289 L0.458,1.633 L0,1.603 L0,2.818 L0,68.27 L0.458,68.27 L10.635,68.27 L10.635,2.326 L10.635,2.289 L10.635,2.26 Z" id="Shape"></path>
            <g id="Group" transform="translate(16.000000, 5.000000)">
                <path d="M12.788,5.908 C12.787,5.901 12.787,5.895 12.787,5.887 L12.787,5.887 C12.787,5.887 12.787,5.886 12.786,5.885 C12.78,5.829 12.767,5.776 12.762,5.72 C12.762,5.715 12.76,5.709 12.76,5.704 C12.741,5.568 12.725,5.433 12.697,5.3 C12.697,5.297 12.695,5.293 12.695,5.289 C12.68,5.219 12.661,5.149 12.644,5.079 C12.642,5.078 12.642,5.076 12.642,5.074 C12.629,5.019 12.614,4.967 12.6,4.913 C12.585,4.852 12.573,4.794 12.553,4.734 C12.53,4.658 12.5,4.581 12.474,4.503 C12.474,4.502 12.474,4.501 12.473,4.5 C12.446,4.422 12.418,4.345 12.387,4.27 C12.377,4.244 12.368,4.214 12.358,4.188 C12.358,4.186 12.358,4.185 12.357,4.184 C12.336,4.134 12.314,4.085 12.292,4.035 C12.292,4.034 12.29,4.032 12.287,4.029 C12.236,3.916 12.183,3.801 12.126,3.692 C12.125,3.691 12.125,3.689 12.124,3.687 C12.098,3.637 12.071,3.588 12.044,3.54 L12.043,3.538 C12,3.462 11.953,3.39 11.908,3.316 C11.876,3.264 11.846,3.212 11.813,3.165 C11.813,3.163 11.812,3.163 11.812,3.161 C11.811,3.16 11.811,3.159 11.81,3.157 C11.795,3.134 11.781,3.11 11.765,3.087 L11.765,3.084 C11.667,2.938 11.561,2.802 11.452,2.667 L11.452,2.665 L11.446,2.66 C11.417,2.622 11.384,2.588 11.352,2.55 L11.351,2.55 C11.267,2.45 11.178,2.354 11.087,2.26 C11.069,2.244 11.055,2.228 11.039,2.212 C11.015,2.187 10.991,2.162 10.967,2.139 C10.946,2.121 10.926,2.104 10.905,2.084 C10.826,2.01 10.746,1.934 10.662,1.861 C10.631,1.836 10.6,1.807 10.568,1.781 C10.501,1.724 10.426,1.675 10.356,1.622 C10.286,1.568 10.217,1.513 10.145,1.464 C10.113,1.441 10.08,1.421 10.047,1.4 C9.962,1.343 9.873,1.292 9.785,1.241 C9.753,1.22 9.722,1.2 9.69,1.181 C9.64,1.153 9.59,1.126 9.541,1.1 C9.43,1.043 9.314,0.99 9.199,0.938 C9.193,0.935 9.188,0.932 9.182,0.928 C9.139,0.909 9.095,0.888 9.049,0.869 C8.928,0.818 8.804,0.775 8.679,0.731 C8.635,0.716 8.59,0.697 8.545,0.682 C8.518,0.673 8.492,0.667 8.466,0.661 C8.319,0.617 8.168,0.578 8.017,0.546 C7.963,0.533 7.907,0.523 7.852,0.512 C7.781,0.498 7.707,0.491 7.636,0.479 C7.574,0.47 7.514,0.458 7.452,0.451 C7.396,0.444 7.343,0.435 7.288,0.43 L7.288,0.43 L7.269,0.43 C7.089,0.414 6.91,0.402 6.726,0.402 L6.719,0.402 C6.516,0.402 6.318,0.415 6.121,0.433 C6.053,0.439 5.987,0.454 5.922,0.462 C5.791,0.478 5.659,0.497 5.53,0.522 C5.453,0.539 5.377,0.56 5.299,0.581 C5.193,0.604 5.087,0.632 4.984,0.662 C4.976,0.665 4.969,0.666 4.963,0.669 L4.962,0.669 C4.88,0.693 4.8,0.724 4.719,0.753 C4.619,0.79 4.518,0.823 4.42,0.862 C4.42,0.863 4.417,0.863 4.417,0.863 C4.336,0.897 4.259,0.935 4.18,0.972 C4.132,0.994 4.084,1.018 4.035,1.041 C3.987,1.063 3.939,1.086 3.893,1.11 C3.815,1.152 3.739,1.197 3.664,1.244 C3.58,1.292 3.497,1.342 3.417,1.393 C3.41,1.396 3.404,1.4 3.398,1.403 C3.325,1.453 3.252,1.507 3.18,1.557 C3.099,1.615 3.018,1.674 2.94,1.737 C2.937,1.739 2.937,1.741 2.934,1.741 C2.867,1.796 2.799,1.855 2.732,1.915 C2.711,1.932 2.691,1.951 2.67,1.968 C2.613,2.018 2.559,2.068 2.505,2.119 C2.446,2.175 2.39,2.232 2.335,2.292 C2.331,2.297 2.325,2.304 2.319,2.308 C2.248,2.382 2.178,2.458 2.111,2.537 C2.067,2.587 2.028,2.64 1.985,2.689 C1.972,2.707 1.958,2.723 1.943,2.742 L1.943,2.742 C1.912,2.782 1.882,2.825 1.851,2.866 C1.819,2.907 1.789,2.946 1.759,2.988 L1.759,2.99 C1.732,3.027 1.707,3.065 1.68,3.104 C1.659,3.138 1.635,3.171 1.613,3.207 C1.565,3.279 1.52,3.354 1.476,3.431 C1.468,3.445 1.458,3.458 1.452,3.473 L1.452,3.473 L1.446,3.476 C1.403,3.551 1.36,3.627 1.319,3.706 L1.319,3.707 C1.301,3.74 1.288,3.775 1.269,3.811 C1.242,3.871 1.212,3.928 1.183,3.988 C1.182,3.99 1.182,3.99 1.182,3.993 C1.146,4.07 1.111,4.149 1.079,4.228 L1.078,4.232 C1.038,4.329 1.003,4.429 0.969,4.528 C0.968,4.531 0.968,4.533 0.967,4.535 C0.94,4.616 0.911,4.696 0.888,4.778 C0.887,4.779 0.887,4.779 0.887,4.783 C0.871,4.837 0.858,4.892 0.843,4.949 C0.832,4.998 0.818,5.048 0.805,5.095 L0.805,5.101 C0.794,5.15 0.777,5.199 0.767,5.247 C0.759,5.281 0.756,5.315 0.749,5.349 L0.749,5.352 L0.749,5.352 C0.743,5.379 0.74,5.408 0.735,5.434 C0.721,5.516 0.71,5.596 0.698,5.68 C0.697,5.682 0.697,5.687 0.697,5.69 C0.685,5.773 0.673,5.856 0.666,5.939 L0.666,5.942 C0.662,5.968 0.663,5.995 0.662,6.021 C0.649,6.175 0.638,6.332 0.638,6.492 C0.638,6.68 0.649,6.866 0.666,7.049 C0.669,7.093 0.675,7.137 0.681,7.182 C0.7,7.346 0.724,7.508 0.754,7.668 C0.758,7.688 0.761,7.708 0.765,7.727 C0.801,7.901 0.848,8.075 0.899,8.245 C0.913,8.287 0.926,8.33 0.94,8.37 C0.986,8.511 1.038,8.648 1.093,8.785 C1.107,8.816 1.118,8.848 1.132,8.883 C1.201,9.041 1.276,9.196 1.358,9.348 C1.379,9.386 1.4,9.423 1.421,9.459 C1.454,9.519 1.491,9.576 1.526,9.633 C1.565,9.696 1.603,9.764 1.644,9.825 C1.665,9.855 1.684,9.887 1.705,9.918 C1.801,10.059 1.901,10.192 2.011,10.325 C2.035,10.354 2.06,10.384 2.086,10.413 C2.181,10.526 2.281,10.636 2.385,10.742 C2.406,10.763 2.428,10.788 2.451,10.81 C2.572,10.931 2.699,11.044 2.83,11.154 C2.858,11.178 2.889,11.204 2.92,11.227 C3.039,11.324 3.162,11.416 3.289,11.503 C3.309,11.518 3.33,11.533 3.349,11.547 C3.493,11.643 3.641,11.733 3.793,11.818 C3.827,11.838 3.859,11.855 3.893,11.873 C4.039,11.95 4.185,12.021 4.336,12.087 C4.349,12.092 4.361,12.098 4.376,12.105 C4.54,12.174 4.708,12.236 4.878,12.291 C4.913,12.303 4.947,12.312 4.982,12.322 C5.154,12.375 5.329,12.422 5.504,12.458 C5.504,12.458 5.505,12.459 5.507,12.459 C5.688,12.497 5.872,12.522 6.057,12.543 C6.093,12.547 6.128,12.552 6.164,12.554 C6.35,12.573 6.537,12.583 6.727,12.583 C6.934,12.583 7.14,12.571 7.34,12.551 C7.371,12.549 7.399,12.542 7.429,12.537 C7.598,12.517 7.766,12.495 7.93,12.46 C7.985,12.451 8.037,12.432 8.091,12.421 C8.228,12.388 8.365,12.356 8.499,12.315 C8.562,12.294 8.625,12.271 8.687,12.249 C8.807,12.208 8.929,12.165 9.045,12.116 C9.113,12.089 9.178,12.056 9.244,12.025 C9.352,11.975 9.462,11.924 9.566,11.869 C9.635,11.834 9.701,11.792 9.766,11.754 C9.867,11.695 9.964,11.637 10.06,11.574 C10.126,11.529 10.191,11.482 10.256,11.436 C10.347,11.371 10.435,11.305 10.523,11.236 C10.587,11.185 10.647,11.131 10.711,11.077 C10.793,11.006 10.874,10.932 10.951,10.857 C11.012,10.8 11.07,10.738 11.128,10.677 C11.202,10.6 11.274,10.522 11.343,10.441 C11.399,10.377 11.453,10.309 11.506,10.241 C11.571,10.159 11.633,10.076 11.694,9.99 C11.746,9.919 11.795,9.845 11.84,9.772 C11.897,9.686 11.952,9.596 12.003,9.507 C12.047,9.429 12.091,9.351 12.131,9.274 C12.179,9.182 12.224,9.089 12.265,8.995 C12.303,8.913 12.34,8.83 12.375,8.748 C12.413,8.652 12.447,8.556 12.479,8.457 C12.509,8.37 12.539,8.284 12.564,8.195 C12.592,8.096 12.619,7.997 12.642,7.896 C12.663,7.804 12.686,7.714 12.704,7.623 C12.723,7.52 12.737,7.418 12.751,7.312 C12.765,7.218 12.779,7.124 12.786,7.029 C12.79,6.993 12.79,6.954 12.793,6.916 C12.802,6.775 12.814,6.634 12.814,6.491 C12.816,6.296 12.806,6.101 12.788,5.908 L12.788,5.908 Z" id="Shape"></path>
                <path d="M1.41,15.068 L1.41,15.474 L1.41,15.984 L1.41,49.521 L1.41,63.27 L1.869,63.27 L12.044,63.27 L12.044,16.77 L12.044,16.768 L12.044,16.561 L12.044,16.561 L12.044,15.871 L12.044,15.669 L12.044,15.669 L1.41,15.068 Z" id="Shape"></path>
            </g>
        </g>
    </g>
</svg>