<svg class="zalert-svg" xmlns="http://www.w3.org/2000/svg" width="18" height="17" viewBox="0 0 18 17"><style>.style0{fill:none;fill-rule:evenodd}.style1{fill:#777}</style><title>Shape</title><g class="style0"><path d="M18 13.9c-1.5-1.5-2.2-3.9-3-7.7C14.4 2.8 12.3 0 9 0S3.6 2.8 3 6.2c-.8 3.8-1.5 6.2-3 7.7h6.9c-.1.3-.1.5-.1.8C6.8 16 7.8 17 9 17c1.2 0 2.2-1 2.2-2.3 0-.3 0-.5-.1-.8H18zM4.5 6.5c.2-1.2 1.2-5 4.5-5s4.3 3.8 4.5 5c.5 2.4 1 4.3 1.7 5.9H2.8c.7-1.6 1.2-3.5 1.7-5.9zm5.3 8.2c0 .4-.4.8-.8.8s-.8-.4-.8-.8.4-.8.8-.8.8.4.8.8z" class="style1"/></g></svg>