<?xml version="1.0" encoding="UTF-8"?>
<svg width="234px" height="28px" viewBox="0 0 234 28" version="1.1" xmlns="http://www.w3.org/2000/svg" xmlns:xlink="http://www.w3.org/1999/xlink">
    <!-- Generator: Sketch 55.2 (78181) - https://sketchapp.com -->
    <title>cfw_white</title>
    <desc>Created with Sketch.</desc>
    <g id="New-user" stroke="none" stroke-width="1" fill="none" fill-rule="evenodd">
        <g id="cfw_white">
            <path d="M119.97407,15.6504504 C119.97407,16.0143214 120.00509,16.347581 120.066544,16.6814181 C120.466877,18.1969696 121.788444,19.2891601 123.416114,19.2891601 C125.81343,19.2891601 127.225716,17.3179035 127.225716,14.4075134 C127.225716,11.7991939 125.935754,9.67603564 123.508589,9.67603564 C121.940618,9.67603564 120.497897,10.7988375 120.097564,12.4368344 C120.035524,12.7389051 119.97407,13.0727422 119.97407,13.375968 L119.97407,15.6504504 Z M116.195488,11.9805518 C116.195488,10.0404842 116.133448,8.46370998 116.071993,7.0682937 L119.391129,7.0682937 L119.575492,9.34277604 L119.637532,9.34277604 C120.742545,7.67474531 122.49488,6.7350341 124.768116,6.7350341 C128.210161,6.7350341 131.067508,9.64600184 131.067508,14.2550341 C131.067508,19.5918083 127.657654,22.170094 124.246044,22.170094 C122.372556,22.170094 120.804585,21.3805518 120.035524,20.1988375 L119.97407,20.1988375 L119.97407,27.8395502 L116.195488,27.8395502 L116.195488,11.9805518 Z M108.974861,21.8362568 L108.974861,7.0682937 L112.754029,7.0682937 L112.754029,21.8362568 L108.974861,21.8362568 Z M110.848935,4.94629063 C109.589408,4.94629063 108.758892,4.03719078 108.758892,2.94500031 C108.758892,1.79216467 109.620428,0.913098618 110.879955,0.913098618 C112.169917,0.913098618 112.968827,1.79216467 112.999847,2.94500031 C112.999847,4.03719078 112.169917,4.94629063 110.879955,4.94629063 L110.848935,4.94629063 Z M98.7733929,11.8298052 C98.7733929,9.8285149 98.7429582,8.37245346 98.6510689,7.0682937 L101.908164,7.0682937 L102.061508,9.85912627 L102.152812,9.85912627 C102.890268,7.79661321 104.642603,6.7350341 106.270858,6.7350341 C106.639586,6.7350341 106.854384,6.76564547 107.162828,6.8268682 L107.162828,10.3130986 C106.823364,10.2524535 106.486242,10.2229972 106.024454,10.2229972 C104.24227,10.2229972 102.982742,11.3440664 102.645035,13.0421309 C102.584751,13.375968 102.553731,13.7704504 102.553731,14.1637776 L102.553731,21.8362568 L98.7733929,21.8362568 L98.7733929,11.8298052 Z M93.0581123,3.27883748 L93.0581123,7.0682937 L96.6540861,7.0682937 L96.6540861,9.85912627 L93.0581123,9.85912627 L93.0581123,16.347581 C93.0581123,18.1663582 93.5509199,19.0760356 94.9936405,19.0760356 C95.6702267,19.0760356 96.0389545,19.0454243 96.4691369,18.9252891 L96.5305915,21.7450003 C95.9786704,21.9569696 94.9632058,22.1394826 93.7955679,22.1394826 C92.3821114,22.1394826 91.2460786,21.6837776 90.5390578,20.9265794 C89.7091276,20.0769696 89.3409851,18.7121647 89.3409851,16.7709419 L89.3409851,9.85912627 L87.2205077,9.85912627 L87.2205077,7.0682937 L89.3409851,7.0682937 L89.3409851,4.30980522 L93.0581123,3.27883748 Z M77.6950401,11.8298052 C77.6950401,9.8285149 77.6640202,8.37245346 77.5715456,7.0682937 L80.8298115,7.0682937 L80.9831554,9.85912627 L81.0744595,9.85912627 C81.811915,7.79661321 83.5636646,6.7350341 85.192505,6.7350341 C85.5612327,6.7350341 85.7760313,6.76564547 86.0838897,6.8268682 L86.0838897,10.3130986 C85.7450113,10.2524535 85.4078888,10.2229972 84.9466864,10.2229972 C83.1639169,10.2229972 81.9043896,11.3440664 81.5660965,13.0421309 C81.5046419,13.375968 81.4747925,13.7704504 81.4747925,14.1637776 L81.4747925,21.8362568 L77.6950401,21.8362568 L77.6950401,11.8298052 Z M70.7202323,14.6194826 C68.0466632,14.5888713 65.4965887,15.1335226 65.4965887,17.3785487 C65.4965887,18.8340326 66.4488428,19.5005518 67.648086,19.5005518 C69.1826959,19.5005518 70.2596152,18.5302292 70.6271724,17.4686501 C70.7202323,17.1960356 70.7202323,16.9234212 70.7202323,16.6508068 L70.7202323,14.6194826 Z M74.40751,18.2882261 C74.40751,19.6224197 74.4677941,20.9265794 74.6527433,21.8362568 L71.2417187,21.8362568 L70.9654655,20.1988375 L70.8735762,20.1988375 C69.9821914,21.3499404 68.415391,22.170094 66.4488428,22.170094 C63.437566,22.170094 61.747271,20.0163244 61.747271,17.7724535 C61.747271,14.0736762 65.096841,12.1636424 70.6271724,12.1930986 L70.6271724,11.950518 C70.6271724,10.9801954 70.2291805,9.37280983 67.5860461,9.37280983 C66.111135,9.37280983 64.574184,9.8285149 63.5604752,10.4650003 L62.823605,8.03861628 C63.929203,7.37151951 65.8647312,6.7350341 68.2316124,6.7350341 C73.0244882,6.7350341 74.40751,9.73725837 74.40751,12.9814857 L74.40751,18.2882261 Z M56.769446,12.8902292 C56.8004659,11.5260018 56.1859196,9.28213088 53.6662798,9.28213088 C51.3310039,9.28213088 50.3477298,11.3746777 50.1938006,12.8902292 L56.769446,12.8902292 Z M50.1938006,15.4979711 C50.2862752,18.1663582 52.4067525,19.3197714 54.8028978,19.3197714 C56.5546474,19.3197714 57.78374,19.0454243 58.951378,18.6520971 L59.5038844,21.1991939 C58.2139224,21.7450003 56.4317382,22.1394826 54.2808261,22.1394826 C49.4259103,22.1394826 46.5685627,19.1979035 46.5685627,14.6801278 C46.5685627,10.5851355 49.0882025,6.7350341 53.8816637,6.7350341 C58.7365794,6.7350341 60.3338145,10.6769696 60.3338145,13.9217745 C60.3338145,14.6194826 60.2729452,15.1641339 60.2109053,15.4979711 L50.1938006,15.4979711 Z M40.2071306,21.8362568 L40.2071306,0.27661321 L43.986883,0.27661321 L43.986883,21.8362568 L40.2071306,21.8362568 Z M38.0568038,21.3805518 C37.2578936,21.7450003 35.6905079,22.1394826 33.8158491,22.1394826 C29.1458825,22.1394826 26.1035857,19.1672922 26.1035857,14.5888713 C26.1035857,10.1623521 29.1769024,6.7350341 34.4309807,6.7350341 C35.8134172,6.7350341 37.2268737,7.03825991 38.0866532,7.40213088 L37.4118228,10.2229972 C36.7966913,9.91861628 35.9058918,9.64600184 34.5538899,9.64600184 C31.664937,9.64600184 29.9442074,11.7385487 29.9752273,14.4375472 C29.9752273,17.4686501 31.9727955,19.1979035 34.5538899,19.1979035 C35.8438519,19.1979035 36.7966913,18.9252891 37.5341468,18.6220633 L38.0568038,21.3805518 Z M147.723084,0.695225806 L147.518241,2.53780645 C146.786661,2.30382796 145.996555,2.21608602 145.235712,2.21608602 C143.011708,2.21608602 142.016759,3.50296774 142.016759,6.31070968 L142.016759,7.39286022 L146.31845,7.39286022 L146.31845,9.11845161 L142.016759,9.11845161 L142.016759,21.9287742 L139.822019,21.9287742 L139.822019,9.11845161 L136.661594,9.11845161 L136.661594,7.39286022 L139.822019,7.39286022 L139.822019,6.3692043 C139.822019,2.30382796 141.84118,0.432 145.323501,0.432 C146.142871,0.432 146.932977,0.519741935 147.723084,0.695225806 Z M160.511103,14.4122151 C160.511103,18.7408172 157.848151,22.192 153.546461,22.192 C149.654455,22.192 147.13782,19.8229677 147.13782,14.7339355 C147.13782,10.5808172 149.712981,7.12963441 154.073198,7.12963441 C157.614046,7.12963441 160.511103,9.0892043 160.511103,14.4122151 Z M158.228573,14.5584516 C158.228573,11.0487742 156.765413,8.94296774 153.868356,8.94296774 C151.585826,8.94296774 149.420349,10.6685591 149.420349,14.5584516 C149.420349,18.2728602 151.029825,20.320172 153.868356,20.320172 C156.150886,20.320172 158.228573,18.5653333 158.228573,14.5584516 Z M169.654227,7.15888172 L169.566438,9.3231828 C166.347486,8.76748387 164.825799,11.2242581 164.825799,16.1085591 L164.825799,21.9287742 L162.631059,21.9287742 L162.631059,7.39286022 L164.796536,7.39286022 C164.796536,8.35802151 164.679483,9.79113978 164.474641,11.0487742 L164.503904,11.0780215 C165.089168,8.94296774 166.610854,6.80791398 169.654227,7.15888172 Z M197.342004,7.39286022 L192.601365,21.9287742 L190.055467,21.9287742 L186.865778,12.5403871 C186.543883,11.6337204 186.309777,10.7270538 186.046408,9.76189247 L186.017145,9.76189247 C185.724513,11.0195269 185.344091,12.1894194 184.96367,13.4178065 L182.300718,21.9287742 L179.75482,21.9287742 L175.248287,7.39286022 L177.706396,7.39286022 L180.193768,16.0500645 C180.574189,17.3369462 180.954611,18.623828 181.188717,19.6182366 L181.21798,19.6182366 C181.510612,18.4483441 181.832507,17.219957 182.212929,16.0500645 L184.992933,7.39286022 L187.480305,7.39286022 L190.289572,16.0208172 C190.874836,17.8341505 191.108942,18.6823226 191.343048,19.6474839 L191.401574,19.6474839 C191.664943,18.5068387 191.957575,17.5416774 192.396523,16.0793118 L195.000948,7.39286022 L197.342004,7.39286022 Z M211.424107,14.4122151 C211.424107,18.7408172 208.761155,22.192 204.459465,22.192 C200.567459,22.192 198.050824,19.8229677 198.050824,14.7339355 C198.050824,10.5808172 200.625985,7.12963441 204.986202,7.12963441 C208.52705,7.12963441 211.424107,9.0892043 211.424107,14.4122151 Z M209.141577,14.5584516 C209.141577,11.0487742 207.678417,8.94296774 204.78136,8.94296774 C202.49883,8.94296774 200.333353,10.6685591 200.333353,14.5584516 C200.333353,18.2728602 201.942829,20.320172 204.78136,20.320172 C207.06389,20.320172 209.141577,18.5653333 209.141577,14.5584516 Z M220.567231,7.15888172 L220.479442,9.3231828 C217.26049,8.76748387 215.738803,11.2242581 215.738803,16.1085591 L215.738803,21.9287742 L213.544063,21.9287742 L213.544063,7.39286022 L215.70954,7.39286022 C215.70954,8.35802151 215.592487,9.79113978 215.387645,11.0487742 L215.416908,11.0780215 C216.002172,8.94296774 217.523858,6.80791398 220.567231,7.15888172 Z M233.683648,21.9287742 L230.845118,21.9287742 L225.10953,14.2952258 L225.10953,21.9287742 L222.91479,21.9287742 L222.91479,0.578236559 L225.10953,0.578236559 L225.10953,13.9150108 L230.581749,7.39286022 L233.2447,7.39286022 L227.450587,14.0027527 L233.683648,21.9287742 Z" id="Combined-Shape" fill="#FFFFFF"></path>
            <rect id="Combined-Shape" fill="#F26822" x="-9.9475983e-14" y="0" width="22.374502" height="22.4" rx="3.24587247"></rect>
            <polygon id="Fill-6" fill="#FFFFFF" points="3.19635743 11.7283194 5.17705015 8.54431311 7.9508406 13.3200282 16.8660095 5.76 18.846116 9.14179256 7.55458482 16.3027162"></polygon>
        </g>
    </g>
</svg>