<?xml version="1.0" encoding="UTF-8" standalone="no"?>
<svg width="35px" height="21px" viewBox="0 0 35 21" version="1.1" xmlns="http://www.w3.org/2000/svg" xmlns:xlink="http://www.w3.org/1999/xlink">
    <!-- Generator: Sketch 3.6.1 (26313) - http://www.bohemiancoding.com/sketch -->
    <title>ua-logo</title>
    <desc>Created with Sketch.</desc>
    <defs></defs>
    <g id="Page-1" stroke="none" stroke-width="1" fill="none" fill-rule="evenodd">
        <g id="ua-logo" fill="#231F20">
            <path d="M28.1,10.9 C31.8,9.3 34.3,6.8 34.4,4.1 C34.4,4.1 33.4,3.3 30.2,2.2 C27.4,1.2 25.3,0.9 25.3,0.9 L25.3,7 C25.3,7.9 24.9,8.8 24.2,9.7 C22.1,9.2 19.8,8.9 17.3,8.9 L17.3,8.9 L17.3,8.9 C14.8,8.9 12.5,9.2 10.4,9.7 C9.7,8.9 9.3,7.9 9.3,7 L9.3,0.9 C9.3,0.9 7.2,1.1 4.4,2.2 C1.3,3.3 0.3,4 0.3,4 C0.4,6.7 2.9,9.2 6.6,10.8 C2.9,12.4 0.4,14.9 0.3,17.6 C0.3,17.6 1.3,18.4 4.5,19.5 C7.3,20.5 9.4,20.8 9.4,20.8 L9.4,14.7 C9.4,13.8 9.8,12.9 10.5,12 C12.6,12.5 14.9,12.8 17.4,12.8 L17.4,12.8 L17.4,12.8 C19.9,12.8 22.2,12.5 24.3,12 C25,12.8 25.4,13.8 25.4,14.7 L25.4,20.8 C25.4,20.8 27.5,20.6 30.3,19.5 C33.5,18.3 34.5,17.6 34.5,17.6 C34.3,15 31.8,12.5 28.1,10.9 L28.1,10.9 Z M17.4,12.2 L17.4,12.2 L17.4,12.2 C15.1,12.2 13.3,11.7 12,10.8 C13.3,10 15.1,9.4 17.3,9.4 L17.4,9.4 L17.4,9.4 L17.5,9.4 C19.7,9.4 21.5,9.9 22.8,10.8 C21.4,11.7 19.6,12.2 17.4,12.2 L17.4,12.2 L17.4,12.2 Z" id="Shape"></path>
        </g>
    </g>
</svg>