<?xml version="1.0" encoding="utf-8"?>
<!-- Generator: Adobe Illustrator 18.1.1, SVG Export Plug-In . SVG Version: 6.00 Build 0)  -->
<!DOCTYPE svg PUBLIC "-//W3C//DTD SVG 1.1//EN" "http://www.w3.org/Graphics/SVG/1.1/DTD/svg11.dtd">
<svg version="1.1" id="mnemonic" xmlns="http://www.w3.org/2000/svg" xmlns:xlink="http://www.w3.org/1999/xlink" x="0px" y="0px"
	 viewBox="0 0 240 234" enable-background="new 0 0 240 234" xml:space="preserve">
<radialGradient id="tile_1_" cx="93.6604" cy="-17.9998" r="383.6399" gradientUnits="userSpaceOnUse">
	<stop  offset="0" style="stop-color:#EC202B"/>
	<stop  offset="0.1463" style="stop-color:#E2202A"/>
	<stop  offset="0.3994" style="stop-color:#C51E26"/>
	<stop  offset="0.7265" style="stop-color:#981C20"/>
	<stop  offset="1" style="stop-color:#6D1A1B"/>
</radialGradient>
<rect id="tile" x="0" y="0" fill-rule="evenodd" clip-rule="evenodd" fill="url(#tile_1_)" width="240" height="234"/>
<linearGradient id="SVGID_1_" gradientUnits="userSpaceOnUse" x1="120.0002" y1="25.3396" x2="120.0002" y2="218.0139">
	<stop  offset="0.14" style="stop-color:#FFFFFF"/>
	<stop  offset="1" style="stop-color:#EBEDEB"/>
</linearGradient>
<path fill="url(#SVGID_1_)" d="M201.7,141.1c-4.8-5.2-15-7.9-29.4-7.9c-8,0-17.1,0.8-27.2,2.5c-5.8-5.4-11.4-11.9-16.8-19.3
	c-3.8-5.3-7.3-10.8-10.4-16.3c5.1-15.7,8.6-30.8,8.6-42.3c0-8.6-2.8-22.8-15.6-22.8c-3.3,0-6.9,2.1-8.7,5.2
	c-5.4,9.3-2.9,30.3,6.9,51.7c-3.4,10.3-7.3,20.6-12.1,32.3c-4,9.7-8.8,19.6-13.9,28.7c-27.8,11-45.5,23.5-47.3,33.5
	c-0.6,3.3,0.4,6.5,3.1,9.1c1.6,1.5,5,3.5,10,3.5c16,0,33.8-23.4,47.1-47.3c7.4-2.6,15.2-4.9,23.2-7.1c8.7-2.3,17-4.1,24.9-5.5
	c19.3,17.5,36.4,20.1,44.9,20.1c10.6,0,13.6-4.4,14.7-7.2C205.3,147.9,203.9,143.5,201.7,141.1z M105.1,41.8
	c1.3-2.2,3.4-3.6,5.8-3.6c4.7,0,7.4,4.2,7.4,11.9c0,8.3-2.6,21.8-7.6,37.3C101.4,65.7,101.3,48.4,105.1,41.8z M38.9,187
	c1.6-8.3,17.4-19.5,41.6-29.6c-13.5,23.1-26.8,37.3-35.2,37.3c-1.6,0-3.2-0.5-4.4-1.6C39.2,191.4,38.5,189.3,38.9,187z M141.2,136.4
	c-7.2,1.3-14.9,3-22.7,5.1c-6.9,1.8-13.6,3.9-20.1,6c3.8-7.1,7.1-14,9.6-20.3c3.1-7.5,6.1-15.3,8.7-23.1c2.8,4.8,5.8,9.5,9.1,14.1
	C130.7,125.1,135.9,131.2,141.2,136.4L141.2,136.4L141.2,136.4z M148.2,138.4c16.3-3,30.6-2.4,36.7-1.1c6.3,1.3,9.6,5.1,8.5,10.7
	c-1.1,5.7-7.9,8.4-15.4,6.6C166,151.7,156.1,145.2,148.2,138.4z"/>
</svg>
