<svg width="166" height="80" viewBox="0 0 166 80" fill="none" xmlns="http://www.w3.org/2000/svg">
<path d="M125.669 0.964951H117.877V20.2642H125.669V0.964951Z" fill="#AEC7FF"/>
<path d="M113.753 40.2987H125.669C139.326 40.2987 150.417 51.4187 150.417 65.112C150.417 66.7203 151.701 68.0069 153.305 68.0069H154.084C160.684 68.0069 166 73.3372 166 79.954H113.753V40.2987Z" fill="#83DDC5"/>
<path d="M149.959 0.964951H147.209V20.2642H149.959V0.964951Z" fill="#AEC7FF"/>
<path d="M149.945 3.6958V0.938766L117.863 0.938766V3.6958L149.945 3.6958Z" fill="#AEC7FF"/>
<path d="M64.4842 13.1878H69.4798C71.1297 13.1878 72.4588 11.8552 72.4588 10.201C72.4588 8.5468 71.1297 7.21423 69.4798 7.21423H59.8553C58.6179 7.21423 57.6096 6.20332 57.6096 4.96265C57.6096 3.72199 56.6013 2.71107 55.3639 2.71107H46.1518C44.2727 2.71107 42.7603 4.22744 42.7603 6.11142C42.7603 7.99539 44.2727 9.51176 46.1518 9.51176H52.0182C52.339 9.51176 52.5682 9.74152 52.5682 10.0632C52.5682 10.3848 52.339 10.6146 52.0182 10.6146H40.3313C39.2313 10.6146 38.3605 11.4876 38.3605 12.5905C38.3605 13.6933 39.2313 14.5663 40.3313 14.5663H58.572C59.0762 14.5663 59.4886 14.9799 59.4886 15.4853C59.4886 15.9908 59.0762 16.4044 58.572 16.4044H50.5974V18.2424H68.4257C68.4257 16.8179 67.2799 15.6232 65.8133 15.6232H64.5301C63.7968 15.6232 63.2468 15.0258 63.2468 14.3366C63.201 13.7852 63.7509 13.1878 64.4842 13.1878Z" fill="#3E70DD"/>
<path d="M66.4322 3.95964L64.3762 2.94528L55.5743 20.879L57.6302 21.8933L66.4322 3.95964Z" fill="#FF9A15"/>
<path d="M67.8073 9.0139L65.7513 7.99954L56.9494 25.9332L59.0054 26.9476L67.8073 9.0139Z" fill="#FF9A15"/>
<path d="M48.0767 31.4302C53.3163 31.4302 57.5638 27.1717 57.5638 21.9185C57.5638 16.6652 53.3163 12.4067 48.0767 12.4067C42.8372 12.4067 38.5897 16.6652 38.5897 21.9185C38.5897 27.1717 42.8372 31.4302 48.0767 31.4302Z" fill="#FFD836"/>
<path d="M48.0767 29.3165C52.1519 29.3165 55.4555 26.0043 55.4555 21.9184C55.4555 17.8326 52.1519 14.5204 48.0767 14.5204C44.0015 14.5204 40.6979 17.8326 40.6979 21.9184C40.6979 26.0043 44.0015 29.3165 48.0767 29.3165Z" fill="#202225"/>
<path d="M48.0767 27.2028C50.9876 27.2028 53.3473 24.8369 53.3473 21.9184C53.3473 19 50.9876 16.6341 48.0767 16.6341C45.1659 16.6341 42.8062 19 42.8062 21.9184C42.8062 24.8369 45.1659 27.2028 48.0767 27.2028Z" fill="#FFD836"/>
<path d="M27.3611 2.98678L26.4903 4.8248C26.307 5.23836 26.7195 5.69786 27.1778 5.51406L29.0111 4.641C29.1485 4.59505 29.286 4.59505 29.4235 4.641L31.2568 5.51406C31.6692 5.69786 32.1276 5.28431 31.9442 4.8248L31.0734 2.98678C31.0276 2.84893 31.0276 2.71108 31.0734 2.57322L31.9442 0.7352C32.0817 0.275694 31.6234 -0.137862 31.2109 0.0459407L29.3777 0.919002C29.2402 0.964953 29.1027 0.964953 28.9652 0.919002L27.132 0.0459407C26.7195 -0.137862 26.2612 0.275694 26.4445 0.7352L27.3153 2.57322C27.407 2.66512 27.407 2.84893 27.3611 2.98678Z" fill="#D4E4FF"/>
<path d="M159.355 41.5853L158.484 43.4233C158.3 43.8369 158.713 44.2964 159.171 44.1126L161.004 43.2395C161.142 43.1936 161.279 43.1936 161.417 43.2395L163.25 44.1126C163.663 44.2964 164.121 43.8828 163.938 43.4233L163.067 41.5853C163.021 41.4474 163.021 41.3096 163.067 41.1717L163.938 39.3337C164.121 38.9202 163.708 38.4606 163.25 38.6445L161.417 39.5175C161.279 39.5635 161.142 39.5635 161.004 39.5175L159.171 38.6445C158.759 38.4606 158.3 38.8742 158.484 39.3337L159.355 41.1717C159.4 41.2636 159.4 41.4474 159.355 41.5853Z" fill="#7196FF"/>
<path d="M117.889 79.9593H143.554V18.3855H117.889V79.9593Z" fill="#3E70DD"/>
<path d="M117.877 18.4262H36.2982V36.8064H105.045V80H117.877V18.4262Z" fill="#AEC7FF"/>
<path d="M97.9867 69.9828C98.1242 68.2366 98.1701 66.4446 98.1701 64.5606C98.1701 46.4101 91.4787 31.7059 83.275 31.7059C75.0712 31.7059 68.3799 46.4101 68.3799 64.5606C68.3799 66.3986 68.4715 68.1907 68.5632 69.9828H97.9867Z" fill="#FF9A15"/>
<path d="M79.8377 46.456C82.622 46.456 84.8791 44.193 84.8791 41.4015C84.8791 38.6099 82.622 36.3469 79.8377 36.3469C77.0534 36.3469 74.7963 38.6099 74.7963 41.4015C74.7963 44.193 77.0534 46.456 79.8377 46.456Z" fill="#FCFCFC"/>
<path d="M79.8376 44.1585C81.3563 44.1585 82.5875 42.9241 82.5875 41.4015C82.5875 39.8788 81.3563 38.6444 79.8376 38.6444C78.3189 38.6444 77.0878 39.8788 77.0878 41.4015C77.0878 42.9241 78.3189 44.1585 79.8376 44.1585Z" fill="#202225"/>
<path d="M105.045 59.7817H31.7151V80H105.045V59.7817Z" fill="#7196FF"/>
<path d="M105.045 56.1057H29.8818V59.7817H105.045V56.1057Z" fill="#D4E4FF"/>
<path d="M109.628 23.0212H31.7151V40.023H109.628V23.0212Z" fill="white"/>
<path d="M102.753 25.3188H34.0066V37.7254H102.753V25.3188Z" fill="#D4E4FF"/>
<path d="M109.628 23.0212H105.045V40.023H109.628V23.0212Z" fill="#D4E4FF"/>
<path d="M33.5483 65.7553H30.7984V80H33.5483V65.7553Z" fill="white"/>
<path d="M34.9232 64.8363H29.4235V70.3504H34.9232V64.8363Z" fill="#202225"/>
<path d="M36.7565 68.9719H27.5903C26.582 68.9719 25.757 68.1447 25.757 67.1338V63.4578H38.5897V67.1338C38.5897 68.1447 37.7647 68.9719 36.7565 68.9719Z" fill="#F47FFF"/>
<path d="M28.5069 80L32.1734 76.3239L35.8399 80H28.5069Z" fill="white"/>
<path d="M51.8807 65.7553H49.1309V80H51.8807V65.7553Z" fill="white"/>
<path d="M53.2556 64.8363H47.7559V70.3504H53.2556V64.8363Z" fill="#202225"/>
<path d="M55.0889 68.9719H45.9227C44.9144 68.9719 44.0894 68.1447 44.0894 67.1338V63.4578H56.9221V67.1338C56.9221 68.1447 56.0971 68.9719 55.0889 68.9719Z" fill="#F47FFF"/>
<path d="M46.8393 80L50.5058 76.3239L54.1723 80H46.8393Z" fill="white"/>
<path d="M70.2132 65.7553H67.4633V80H70.2132V65.7553Z" fill="white"/>
<path d="M71.5881 64.8363H66.0884V70.3504H71.5881V64.8363Z" fill="#202225"/>
<path d="M73.4213 68.9719H64.2551C63.2468 68.9719 62.4219 68.1447 62.4219 67.1338V63.4578H75.2546V67.1338C75.2546 68.1447 74.4296 68.9719 73.4213 68.9719Z" fill="#F47FFF"/>
<path d="M65.1718 80L68.8382 76.3239L72.5047 80H65.1718Z" fill="white"/>
<path d="M88.5455 65.7553H85.7957V80H88.5455V65.7553Z" fill="white"/>
<path d="M89.9205 64.8363H84.4208V70.3504H89.9205V64.8363Z" fill="#202225"/>
<path d="M91.7537 68.9719H82.5875C81.5792 68.9719 80.7543 68.1447 80.7543 67.1338V63.4578H93.587V67.1338C93.587 68.1447 92.762 68.9719 91.7537 68.9719Z" fill="#F47FFF"/>
<path d="M83.5042 80L87.1706 76.3239L90.8371 80H83.5042Z" fill="white"/>
<path d="M134.835 23.0212H125.669V30.3733H134.835V23.0212Z" fill="#AEC7FF"/>
<path d="M134.835 33.1304H125.669V40.4825H134.835V33.1304Z" fill="#AEC7FF"/>
<path d="M124.294 80H113.294L117.877 52.4296H124.294V80Z" fill="#202225"/>
<path d="M139.876 80H122.461L117.877 52.4296H135.293L139.876 80Z" fill="white"/>
<path d="M122.644 64.3768H134.514L134.193 62.5388H122.369L122.644 64.3768Z" fill="#7196FF"/>
<path d="M123.285 68.0528H135.11L134.789 66.2148H122.965L123.285 68.0528Z" fill="#7196FF"/>
<path d="M123.881 71.7289H135.706L135.431 69.8909H123.56L123.881 71.7289Z" fill="#7196FF"/>
<path d="M124.477 75.4049H136.347L136.026 73.5669H124.202L124.477 75.4049Z" fill="#7196FF"/>
<path d="M133.735 59.7817L133.139 56.1057H121.269L121.911 59.7817H133.735Z" fill="#7196FF"/>
<path d="M57.3346 34.2791H47.3893C41.2937 34.2791 36.344 29.3165 36.344 23.205V18.4262H68.4257V23.205C68.3799 29.3165 63.4301 34.2791 57.3346 34.2791Z" fill="white"/>
<path d="M84.4208 51.9701H75.2546C73.9713 51.9701 72.963 50.9592 72.963 49.6726C72.963 48.386 73.9713 47.3751 75.2546 47.3751H84.4208C85.704 47.3751 86.7123 48.386 86.7123 49.6726C86.7123 50.9133 85.704 51.9701 84.4208 51.9701Z" fill="#FFD836"/>
<path d="M83.9624 50.1321H75.7128C75.4378 50.1321 75.2545 49.9023 75.2545 49.6726C75.2545 49.3969 75.4378 49.2131 75.7128 49.2131H83.9624C84.2374 49.2131 84.4207 49.3969 84.4207 49.6726C84.4207 49.9023 84.2374 50.1321 83.9624 50.1321Z" fill="#202225"/>
<path d="M82.1292 26.6973H78.921V29.9138H82.1292V26.6973Z" fill="#202225"/>
<path d="M82.1292 29.9138H78.921V33.1304H82.1292V29.9138Z" fill="#202225"/>
<path d="M78.9211 29.9138H75.7129V33.1304H78.9211V29.9138Z" fill="#202225"/>
<path d="M75.7129 29.9138H72.5047V33.1304H75.7129V29.9138Z" fill="#202225"/>
<path d="M75.7129 33.1304H72.5047V36.3469H75.7129V33.1304Z" fill="#202225"/>
<path d="M78.9211 33.1304H75.7129V36.3469H78.9211V33.1304Z" fill="#202225"/>
<path d="M85.3374 33.1304H82.1292V36.3469H85.3374V33.1304Z" fill="#202225"/>
<path d="M85.3374 26.6973H82.1292V29.9138H85.3374V26.6973Z" fill="#202225"/>
<path d="M94.9619 33.1304H91.7537V36.3469H94.9619V33.1304Z" fill="#202225"/>
<path d="M94.9619 26.6973H91.7537V29.9138H94.9619V26.6973Z" fill="#202225"/>
<path d="M98.1701 26.6973H94.9619V29.9138H98.1701V26.6973Z" fill="#202225"/>
<path d="M98.1701 29.9138H94.9619V33.1304H98.1701V29.9138Z" fill="#202225"/>
<path d="M98.1701 33.1304H94.9619V36.3469H98.1701V33.1304Z" fill="#202225"/>
<path d="M91.7538 33.1304H88.5456V36.3469H91.7538V33.1304Z" fill="#202225"/>
<path d="M91.7538 26.6973H88.5456V29.9138H91.7538V26.6973Z" fill="#202225"/>
<path d="M19.249 22.7456H19.1573C18.8824 22.7456 18.699 22.5158 18.699 22.2861V21.1373C18.699 20.8616 18.9282 20.6778 19.1573 20.6778H19.249C19.524 20.6778 19.7073 20.9075 19.7073 21.1373V22.2861C19.7073 22.5158 19.4782 22.7456 19.249 22.7456Z" fill="#7196FF"/>
<path d="M19.249 27.9839H19.1573C18.8824 27.9839 18.699 27.7542 18.699 27.5244V26.3756C18.699 26.0999 18.9282 25.9161 19.1573 25.9161H19.249C19.524 25.9161 19.7073 26.1459 19.7073 26.3756V27.5244C19.7073 27.8001 19.4782 27.9839 19.249 27.9839Z" fill="#7196FF"/>
<path d="M20.7614 24.3538V24.2619C20.7614 23.9862 20.9906 23.8024 21.2197 23.8024H22.3655C22.6405 23.8024 22.8238 24.0322 22.8238 24.2619V24.3538C22.8238 24.6295 22.5947 24.8133 22.3655 24.8133H21.2197C20.9447 24.8593 20.7614 24.6295 20.7614 24.3538Z" fill="#7196FF"/>
<path d="M15.5367 24.3538V24.2619C15.5367 23.9862 15.7658 23.8024 15.995 23.8024H17.1408C17.4158 23.8024 17.5991 24.0322 17.5991 24.2619V24.3538C17.5991 24.6295 17.3699 24.8133 17.1408 24.8133H15.995C15.72 24.8593 15.5367 24.6295 15.5367 24.3538Z" fill="#7196FF"/>
<path d="M152.617 47.5589H152.526C152.251 47.5589 152.067 47.3291 152.067 47.0994V45.9506C152.067 45.6749 152.297 45.4911 152.526 45.4911H152.617C152.892 45.4911 153.076 45.7209 153.076 45.9506V47.0994C153.076 47.3291 152.847 47.5589 152.617 47.5589Z" fill="#D4E4FF"/>
<path d="M152.617 52.7972H152.526C152.251 52.7972 152.067 52.5675 152.067 52.3377V51.189C152.067 50.9133 152.297 50.7295 152.526 50.7295H152.617C152.892 50.7295 153.076 50.9592 153.076 51.189V52.3377C153.076 52.6134 152.847 52.7972 152.617 52.7972Z" fill="#D4E4FF"/>
<path d="M154.13 49.1672V49.0753C154.13 48.7996 154.359 48.6158 154.588 48.6158H155.734C156.009 48.6158 156.192 48.8455 156.192 49.0753V49.1672C156.192 49.4429 155.963 49.6267 155.734 49.6267H154.588C154.313 49.6726 154.13 49.4429 154.13 49.1672Z" fill="#D4E4FF"/>
<path d="M148.905 49.1672V49.0753C148.905 48.7996 149.134 48.6158 149.363 48.6158H150.509C150.784 48.6158 150.967 48.8455 150.967 49.0753V49.1672C150.967 49.4429 150.738 49.6267 150.509 49.6267H149.363C149.088 49.6726 148.905 49.4429 148.905 49.1672Z" fill="#D4E4FF"/>
<path d="M7.3788 1.838C7.3788 1.24065 7.42463 0.68924 7.51629 0.137833C3.254 0.918993 0 4.68694 0 9.23605C0 14.3366 4.12479 18.5181 9.25787 18.5181C13.7951 18.5181 17.5533 15.2556 18.3324 10.9362C17.7824 11.0281 17.2325 11.0741 16.6367 11.0741C11.5494 11.0741 7.3788 6.93852 7.3788 1.838Z" fill="#FFD836"/>
<path d="M153.626 9.23605H143.543V11.9931H153.626V9.23605Z" fill="#7196FF"/>
<path d="M153.626 34.0494H143.543V36.8064H153.626V34.0494Z" fill="#7196FF"/>
<path d="M157.75 11.9931H139.418V13.8311H157.75V11.9931Z" fill="white"/>
<path d="M157.75 13.8311H139.418V15.6691H157.75V13.8311Z" fill="#F47FFF"/>
<path d="M157.75 15.6691H139.418V17.5071H157.75V15.6691Z" fill="white"/>
<path d="M157.75 17.5072H139.418V19.3452H157.75V17.5072Z" fill="#F47FFF"/>
<path d="M157.75 19.3452H139.418V21.1832H157.75V19.3452Z" fill="white"/>
<path d="M157.75 21.1832H139.418V23.0212H157.75V21.1832Z" fill="#F47FFF"/>
<path d="M157.75 23.0212H139.418V24.8592H157.75V23.0212Z" fill="white"/>
<path d="M157.75 24.8593H139.418V26.6973H157.75V24.8593Z" fill="#F47FFF"/>
<path d="M157.75 26.6973H139.418V28.5353H157.75V26.6973Z" fill="white"/>
<path d="M157.75 28.5353H139.418V30.3733H157.75V28.5353Z" fill="#F47FFF"/>
<path d="M157.75 30.3733H139.418V32.2113H157.75V30.3733Z" fill="white"/>
<path d="M157.75 32.2113H139.418V34.0494H157.75V32.2113Z" fill="#F47FFF"/>
</svg>
