
<svg
  width="13px"
  height="16px"
  viewBox="0 0 13 16"
  version="1.1"
  xmlns="http://www.w3.org/2000/svg"
  xmlns:xlink="http://www.w3.org/1999/xlink"
>
  <g
    id="Symbols"
    stroke="none"
    strokeWidth="1"
    fill="none"
    fillRule="evenodd"
  >
    <g
      id="TOPBAR"
      transform="translate(-1114.000000, -23.000000)"
      fill="#ffffff"
    >
      <g id="logo">
        <g id="Group">
          <path
            d="M1122.83308,25.5496373 C1122.26346,26.2317564 1121.35336,26.7431348 1120.468,26.6847591 C1120.33851,25.7731861 1120.79035,24.8042497 1121.31082,24.2167803 C1121.88857,23.53483 1122.8585,23.0298627 1123.67302,23 C1123.77556,23.9399173 1123.3783,24.8720736 1122.83308,25.5496373 Z M1125.1915,32.957408 C1125.47385,33.5855463 1126.28074,34.5285131 1127,34.73165 C1126.97814,34.7991373 1126.94712,34.8921011 1126.92645,34.9523336 L1126.9239,34.9523336 C1126.73968,35.5237826 1126.21854,36.4863207 1125.88636,36.9865706 C1125.20777,37.9573759 1124.53003,38.9261566 1123.43639,38.9728915 C1122.3636,38.9683362 1122.02481,38.3260254 1120.80068,38.3359798 C1119.57586,38.3260254 1119.20148,38.960069 1118.18462,38.9985367 C1117.13199,39.0454404 1116.33358,37.9560261 1115.65533,36.9865706 L1115.65177,36.9865706 L1115.65177,36.9828588 C1115.31604,36.4751853 1114.79574,35.4819404 1114.60966,34.9523336 L1114.61067,34.9523336 L1114.61067,34.9481156 C1114.41662,34.4689556 1114.158,33.4888707 1114.10207,32.9817034 L1114.10054,32.9827157 C1114.09987,32.9754608 1114.09919,32.96635 1114.09614,32.957408 C1114.02445,32.4485535 1113.96293,31.3905208 1114.02665,30.9935265 L1114.02665,30.960289 C1114.07377,30.3346814 1114.38984,29.345992 1114.65338,28.9218341 L1114.65338,28.9257146 L1114.65745,28.9257146 L1114.65745,28.9218341 C1115.3235,27.744855 1116.49645,26.9685819 1117.81956,26.936188 C1117.81956,26.936188 1117.99938,26.9262336 1118.02175,26.9262336 L1118.03158,26.9277521 C1119.0298,26.8806796 1119.97583,27.6257398 1120.60205,27.6068434 C1121.24928,27.6257398 1122.44969,26.800201 1123.60638,26.8968766 C1124.7534,26.9144233 1125.87975,27.4578651 1126.56766,28.465451 C1126.38141,28.5990759 1126.10567,28.8194221 1126.00889,28.9257146 L1126.00771,28.9257146 L1126.00771,28.9275705 C1126.00178,28.9322946 1125.99584,28.9366813 1125.99059,28.9403931 C1125.55436,29.2535343 1125.00864,30.1166973 1124.90695,30.960289 L1124.90627,30.960289 L1124.90627,30.984247 C1124.80916,31.6284136 1124.92475,32.4235832 1125.17845,32.9322689 L1125.1915,32.957408 Z"
            id="apple"
          />
        </g>
      </g>
    </g>
  </g>
</svg>
