<?xml version="1.0" encoding="utf-8"?>
<!-- Generator: Adobe Illustrator 19.1.0, SVG Export Plug-In . SVG Version: 6.00 Build 0)  -->
<svg version="1.1" id="Layer_1" xmlns="http://www.w3.org/2000/svg" xmlns:xlink="http://www.w3.org/1999/xlink" x="0px" y="0px"
	 viewBox="0 0 75 75" style="enable-background:new 0 0 75 75;" xml:space="preserve">
<style type="text/css">
	.st0{enable-background:new    ;}
	.st1{clip-path:url(#SVGID_2_);}
	.st2{clip-path:url(#SVGID_4_);fill:#2475AC;}
	.st3{fill:none;stroke:#2475AC;stroke-width:2;stroke-miterlimit:10;}
	.st4{clip-path:url(#SVGID_6_);}
	.st5{clip-path:url(#SVGID_8_);fill:#2475AC;}
	.st6{clip-path:url(#SVGID_10_);}
	.st7{clip-path:url(#SVGID_12_);fill:#2475AC;}
	.st8{clip-path:url(#SVGID_14_);}
	.st9{clip-path:url(#SVGID_16_);fill:#2475AC;}
	.st10{fill:#FFFFFF;stroke:#FFFFFF;stroke-width:4;stroke-miterlimit:10;}
	.st11{fill:#FFFFFF;stroke:#2475AC;stroke-width:1.453;stroke-miterlimit:10;}
	.st12{fill:#FFFFFF;stroke:#FFFFFF;stroke-width:5;stroke-miterlimit:10;}
	.st13{fill:#FFFFFF;stroke:#2475AC;stroke-width:1.3716;stroke-miterlimit:10;}
	.st14{clip-path:url(#SVGID_18_);}
	.st15{clip-path:url(#SVGID_20_);fill:#2475AC;}
	.st16{fill:#2475AC;}
	.st17{fill:#FFFFFF;}
	.st18{fill:#FFFFFF;stroke:#FFFFFF;stroke-width:2;stroke-miterlimit:10;}
	.st19{fill:#FFFFFF;stroke:#FFFFFF;stroke-width:0.5;stroke-miterlimit:10;}
	.st20{clip-path:url(#SVGID_22_);}
	.st21{clip-path:url(#SVGID_24_);fill:#2475AC;stroke:#FFFFFF;stroke-miterlimit:10;}
	.st22{fill:none;stroke:#2475AC;stroke-width:0.6225;stroke-miterlimit:10;}
	.st23{clip-path:url(#SVGID_26_);}
	.st24{clip-path:url(#SVGID_28_);fill:#2475AC;}
	.st25{fill:none;stroke:#2475AC;stroke-miterlimit:10;}
</style>
<g>
	<g class="st0">
		<g>
			<g>
				<defs>
					<path id="SVGID_9_" d="M47.7,58.6H16.3V16.9h31.5V58.6z M32,68.9c-1.8,0-3.2-1.3-3.2-3c0-1.7,1.4-3,3.2-3c1.8,0,3.2,1.3,3.2,3
						C35.2,67.5,33.8,68.9,32,68.9z M24.8,11.8h14.3c0.4,0,0.7,0.5,0.7,1.1c0,0.6-0.3,1.1-0.7,1.1H24.8c-0.4,0-0.7-0.5-0.7-1.1
						C24.2,12.3,24.5,11.8,24.8,11.8z M46.5,8.9h-29c-2.8,0-5,2.1-5,4.7v55.2c0,2.6,2.2,4.7,5,4.7h29c2.8,0,5-2.1,5-4.7V13.6
						C51.5,11,49.3,8.9,46.5,8.9z"/>
				</defs>
				<use xlink:href="#SVGID_9_"  style="overflow:visible;fill:#2475AC;"/>
				<clipPath id="SVGID_2_">
					<use xlink:href="#SVGID_9_"  style="overflow:visible;"/>
				</clipPath>
				<g class="st1">
					<defs>
						<rect id="SVGID_11_" x="-175.4" y="2" width="227.7" height="71.9"/>
					</defs>
					<use xlink:href="#SVGID_11_"  style="overflow:visible;fill:#2475AC;"/>
					<clipPath id="SVGID_4_">
						<use xlink:href="#SVGID_11_"  style="overflow:visible;"/>
					</clipPath>
					<rect x="5" y="1.4" class="st2" width="54" height="79.6"/>
				</g>
			</g>
		</g>
	</g>
	<line class="st3" x1="19" y1="28" x2="29" y2="28"/>
	<line class="st3" x1="19" y1="37" x2="35" y2="37"/>
	<line class="st3" x1="19" y1="45" x2="41" y2="45"/>
	<line class="st3" x1="19" y1="53" x2="42" y2="53"/>
</g>
<g>
	<g class="st0">
		<g>
			<g>
				<defs>
					<path id="SVGID_13_" d="M201.3,58.2h-31.5V16.5h31.5V58.2z M185.5,68.5c-1.8,0-3.2-1.3-3.2-3c0-1.7,1.4-3,3.2-3
						c1.8,0,3.2,1.3,3.2,3C188.7,67.1,187.3,68.5,185.5,68.5z M178.4,11.4h14.3c0.4,0,0.7,0.5,0.7,1.1c0,0.6-0.3,1.1-0.7,1.1h-14.3
						c-0.4,0-0.7-0.5-0.7-1.1C177.7,11.9,178,11.4,178.4,11.4z M200,8.5h-29c-2.8,0-5,2.1-5,4.7v55.2c0,2.6,2.2,4.7,5,4.7h29
						c2.8,0,5-2.1,5-4.7V13.2C205,10.6,202.8,8.5,200,8.5z"/>
				</defs>
				<use xlink:href="#SVGID_13_"  style="overflow:visible;fill:#2475AC;"/>
				<clipPath id="SVGID_6_">
					<use xlink:href="#SVGID_13_"  style="overflow:visible;"/>
				</clipPath>
				<g class="st4">
					<defs>
						<rect id="SVGID_15_" x="-21.8" y="1.7" width="227.7" height="71.9"/>
					</defs>
					<use xlink:href="#SVGID_15_"  style="overflow:visible;fill:#2475AC;"/>
					<clipPath id="SVGID_8_">
						<use xlink:href="#SVGID_15_"  style="overflow:visible;"/>
					</clipPath>
				</g>
			</g>
		</g>
	</g>
</g>
<circle class="st12" cx="52.9" cy="22.1" r="19.1"/>
<circle class="st13" cx="52.9" cy="22.1" r="19.1"/>
<g>
	<g class="st0">
		<g>
			<g>
				<defs>
					<path id="SVGID_17_" d="M124.7,58.6H93.3V16.9h31.5V58.6z M109,68.9c-1.8,0-3.2-1.3-3.2-3c0-1.7,1.4-3,3.2-3
						c1.8,0,3.2,1.3,3.2,3C112.2,67.5,110.8,68.9,109,68.9z M101.8,11.8h14.3c0.4,0,0.7,0.5,0.7,1.1c0,0.6-0.3,1.1-0.7,1.1h-14.3
						c-0.4,0-0.7-0.5-0.7-1.1C101.2,12.3,101.5,11.8,101.8,11.8z M123.5,8.9h-29c-2.8,0-5,2.1-5,4.7v55.2c0,2.6,2.2,4.7,5,4.7h29
						c2.8,0,5-2.1,5-4.7V13.6C128.5,11,126.3,8.9,123.5,8.9z"/>
				</defs>
				<use xlink:href="#SVGID_17_"  style="overflow:visible;fill:#2475AC;"/>
				<clipPath id="SVGID_10_">
					<use xlink:href="#SVGID_17_"  style="overflow:visible;"/>
				</clipPath>
				<g class="st6">
					<defs>
						<rect id="SVGID_19_" x="-98.4" y="2" width="227.7" height="71.9"/>
					</defs>
					<use xlink:href="#SVGID_19_"  style="overflow:visible;fill:#2475AC;"/>
					<clipPath id="SVGID_12_">
						<use xlink:href="#SVGID_19_"  style="overflow:visible;"/>
					</clipPath>
				</g>
			</g>
		</g>
	</g>
</g>
<g>
	<g>
		<g>
			<path class="st16" d="M59.4,19.5c-2.6-5.6-4-7.8-8.3-7.7c-1.5,0-1.2-1.1-2.3-0.7c-1.2,0.4-0.2,1.1-1.4,2c-3.3,2.7-3,5.3-1.5,11.3
				c0.7,2.5-1.6,2.7-0.7,5.1c0.6,1.8,5.4,2.5,10.4,0.7c5-1.9,8.1-5.5,7.5-7.3C62.3,20.5,60.5,21.9,59.4,19.5L59.4,19.5z M55.1,28.8
				c-4.5,1.7-8.1,0.7-8.3,0.2c-0.3-0.7,1.4-3.2,6.5-5.1s7.9-1.2,8.2-0.4C61.8,24.1,59.6,27.2,55.1,28.8L55.1,28.8z M53.7,24.8
				c-2.3,0.9-4,1.9-5,2.7c0.7,0.7,2.1,0.8,3.5,0.3c1.8-0.7,2.8-2.1,2.4-3.3c0,0,0,0,0,0C54.3,24.6,54,24.7,53.7,24.8L53.7,24.8z
				 M53.7,24.8"/>
		</g>
	</g>
</g>
</svg>
