<?xml version="1.0" encoding="utf-8"?>
<!-- Generator: Adobe Illustrator 19.1.0, SVG Export Plug-In . SVG Version: 6.00 Build 0)  -->
<svg version="1.1" id="Layer_1" xmlns="http://www.w3.org/2000/svg" xmlns:xlink="http://www.w3.org/1999/xlink" x="0px" y="0px"
	 viewBox="0 0 75 75" style="enable-background:new 0 0 75 75;" xml:space="preserve">
<style type="text/css">
	.st0{enable-background:new    ;}
	.st1{clip-path:url(#SVGID_2_);}
	.st2{clip-path:url(#SVGID_4_);fill:#2475AC;}
	.st3{fill:none;stroke:#2475AC;stroke-width:2;stroke-miterlimit:10;}
	.st4{clip-path:url(#SVGID_6_);}
	.st5{clip-path:url(#SVGID_8_);fill:#2475AC;}
	.st6{clip-path:url(#SVGID_10_);}
	.st7{clip-path:url(#SVGID_12_);fill:#2475AC;}
	.st8{clip-path:url(#SVGID_14_);}
	.st9{clip-path:url(#SVGID_16_);fill:#2475AC;}
	.st10{fill:#FFFFFF;stroke:#FFFFFF;stroke-width:4;stroke-miterlimit:10;}
	.st11{fill:#FFFFFF;stroke:#2475AC;stroke-width:1.453;stroke-miterlimit:10;}
	.st12{fill:#FFFFFF;stroke:#FFFFFF;stroke-width:5;stroke-miterlimit:10;}
	.st13{fill:#FFFFFF;stroke:#2475AC;stroke-width:1.3716;stroke-miterlimit:10;}
	.st14{clip-path:url(#SVGID_18_);}
	.st15{clip-path:url(#SVGID_20_);fill:#2475AC;}
	.st16{fill:#2475AC;}
	.st17{fill:#FFFFFF;}
	.st18{fill:#FFFFFF;stroke:#FFFFFF;stroke-width:2;stroke-miterlimit:10;}
	.st19{fill:#FFFFFF;stroke:#FFFFFF;stroke-width:0.5;stroke-miterlimit:10;}
	.st20{clip-path:url(#SVGID_22_);}
	.st21{clip-path:url(#SVGID_24_);fill:#2475AC;stroke:#FFFFFF;stroke-miterlimit:10;}
	.st22{fill:none;stroke:#2475AC;stroke-width:0.6225;stroke-miterlimit:10;}
	.st23{clip-path:url(#SVGID_26_);}
	.st24{clip-path:url(#SVGID_28_);fill:#2475AC;}
	.st25{fill:none;stroke:#2475AC;stroke-miterlimit:10;}
</style>
<g>
	<g class="st0">
		<g>
			<g>
				<defs>
					<path id="SVGID_13_" d="M124.3,58.2H92.8V16.5h31.5V58.2z M108.5,68.5c-1.8,0-3.2-1.3-3.2-3c0-1.7,1.4-3,3.2-3
						c1.8,0,3.2,1.3,3.2,3C111.7,67.1,110.3,68.5,108.5,68.5z M101.4,11.4h14.3c0.4,0,0.7,0.5,0.7,1.1c0,0.6-0.3,1.1-0.7,1.1h-14.3
						c-0.4,0-0.7-0.5-0.7-1.1C100.7,11.9,101,11.4,101.4,11.4z M123,8.5H94c-2.8,0-5,2.1-5,4.7v55.2c0,2.6,2.2,4.7,5,4.7h29
						c2.8,0,5-2.1,5-4.7V13.2C128,10.6,125.8,8.5,123,8.5z"/>
				</defs>
				<use xlink:href="#SVGID_13_"  style="overflow:visible;fill:#2475AC;"/>
				<clipPath id="SVGID_2_">
					<use xlink:href="#SVGID_13_"  style="overflow:visible;"/>
				</clipPath>
				<g class="st1">
					<defs>
						<rect id="SVGID_15_" x="-98.8" y="1.7" width="227.7" height="71.9"/>
					</defs>
					<use xlink:href="#SVGID_15_"  style="overflow:visible;fill:#2475AC;"/>
					<clipPath id="SVGID_4_">
						<use xlink:href="#SVGID_15_"  style="overflow:visible;"/>
					</clipPath>
				</g>
			</g>
		</g>
	</g>
</g>
<g>
	<g class="st0">
		<g>
			<g>
				<defs>
					<path id="SVGID_17_" d="M47.7,58.6H16.3V16.9h31.5V58.6z M32,68.9c-1.8,0-3.2-1.3-3.2-3c0-1.7,1.4-3,3.2-3c1.8,0,3.2,1.3,3.2,3
						C35.2,67.5,33.8,68.9,32,68.9z M24.8,11.8h14.3c0.4,0,0.7,0.5,0.7,1.1c0,0.6-0.3,1.1-0.7,1.1H24.8c-0.4,0-0.7-0.5-0.7-1.1
						C24.2,12.3,24.5,11.8,24.8,11.8z M46.5,8.9h-29c-2.8,0-5,2.1-5,4.7v55.2c0,2.6,2.2,4.7,5,4.7h29c2.8,0,5-2.1,5-4.7V13.6
						C51.5,11,49.3,8.9,46.5,8.9z"/>
				</defs>
				<use xlink:href="#SVGID_17_"  style="overflow:visible;fill:#2475AC;"/>
				<clipPath id="SVGID_6_">
					<use xlink:href="#SVGID_17_"  style="overflow:visible;"/>
				</clipPath>
				<g class="st4">
					<defs>
						<rect id="SVGID_19_" x="-175.4" y="2" width="227.7" height="71.9"/>
					</defs>
					<use xlink:href="#SVGID_19_"  style="overflow:visible;fill:#2475AC;"/>
					<clipPath id="SVGID_8_">
						<use xlink:href="#SVGID_19_"  style="overflow:visible;"/>
					</clipPath>
					<rect x="5" y="1.4" class="st5" width="54" height="79.6"/>
				</g>
			</g>
		</g>
	</g>
	<line class="st3" x1="19" y1="28" x2="29" y2="28"/>
	<line class="st3" x1="19" y1="37" x2="35" y2="37"/>
	<line class="st3" x1="19" y1="45" x2="41" y2="45"/>
	<line class="st3" x1="19" y1="53" x2="42" y2="53"/>
</g>
<circle class="st12" cx="52.9" cy="22.1" r="19.1"/>
<circle class="st13" cx="52.9" cy="22.1" r="19.1"/>
<g>
	<g>
		<g>
			<path class="st16" d="M54.3,24l-1.1-0.9c0.3-0.6,0.5-1.2,0.6-1.9l1.4-0.1c0.3,0,0.5-0.3,0.4-0.5l-0.1-1.4c0-0.1-0.1-0.2-0.2-0.3
				c-0.1-0.1-0.2-0.1-0.4-0.1l-1.4,0.1c-0.2-0.6-0.5-1.3-0.9-1.8l0.9-1.1c0.1-0.1,0.1-0.2,0.1-0.4c0-0.1-0.1-0.2-0.2-0.3l-1-0.9
				c-0.2-0.2-0.5-0.1-0.7,0.1L51,15.6c-0.6-0.3-1.2-0.5-1.9-0.6L49,13.6c0-0.3-0.3-0.5-0.5-0.4l-1.4,0.1c-0.1,0-0.2,0.1-0.3,0.2
				c-0.1,0.1-0.1,0.2-0.1,0.4l0.1,1.4c-0.7,0.2-1.3,0.5-1.8,0.9l-1.1-0.9C43.8,15,43.7,15,43.5,15c-0.1,0-0.2,0.1-0.3,0.2l-0.9,1
				c-0.2,0.2-0.1,0.5,0.1,0.7l1.1,0.9c-0.3,0.6-0.5,1.2-0.6,1.9l-1.4,0.1c-0.1,0-0.2,0.1-0.3,0.2C41,20.1,41,20.2,41,20.3l0.1,1.3
				c0,0.3,0.3,0.5,0.5,0.4L43,22c0.2,0.6,0.5,1.3,0.9,1.8L43,24.9c-0.1,0.1-0.1,0.2-0.1,0.4c0,0.1,0.1,0.2,0.2,0.3l1,0.9
				c0.1,0.1,0.2,0.1,0.4,0.1c0.1,0,0.2-0.1,0.3-0.2l0.9-1.1c0.6,0.3,1.2,0.5,1.9,0.6l0.1,1.4c0,0.3,0.3,0.5,0.5,0.4l1.4-0.1
				c0.1,0,0.1,0,0.2,0c0.1,0,0.1-0.1,0.2-0.1c0.1-0.1,0.1-0.2,0.1-0.4l-0.1-1.4c0.7-0.2,1.3-0.5,1.8-0.9l1.1,0.9
				c0.1,0.1,0.2,0.1,0.4,0.1c0.1,0,0.2-0.1,0.3-0.2l0.9-1C54.5,24.5,54.5,24.2,54.3,24L54.3,24z M51.6,20.2c0.1,1.3-0.6,2.6-1.9,3.2
				c-0.4,0.2-0.7,0.3-1.1,0.3c-0.9,0.1-1.7-0.2-2.4-0.8c-0.7-0.6-1.1-1.4-1.1-2.2c-0.1-1.3,0.6-2.6,1.9-3.2c0.4-0.2,0.7-0.3,1.1-0.3
				c0.9-0.1,1.7,0.2,2.4,0.8C51.1,18.5,51.5,19.3,51.6,20.2L51.6,20.2z M64.1,21.6c-0.1,0-0.3,0-0.4,0L62.9,22
				c-0.3-0.4-0.6-0.7-0.9-0.9l0.3-0.8c0.1-0.2,0-0.5-0.3-0.6l-0.9-0.4c-0.1,0-0.3,0-0.4,0c-0.1,0.1-0.2,0.1-0.3,0.3l-0.3,0.8
				c-0.4-0.1-0.9-0.1-1.3,0l-0.4-0.8c-0.1-0.2-0.4-0.4-0.6-0.3L57,19.6c-0.2,0.1-0.4,0.4-0.3,0.6l0.4,0.8c-0.4,0.3-0.7,0.6-0.9,0.9
				l-0.8-0.3c-0.1,0-0.3,0-0.4,0c-0.1,0-0.2,0.1-0.3,0.3l-0.4,0.9c-0.1,0.2,0,0.5,0.3,0.6l0.8,0.3c-0.1,0.4-0.1,0.9,0,1.3l-0.8,0.4
				c-0.2,0.1-0.4,0.4-0.3,0.6l0.4,0.9c0,0.1,0.1,0.2,0.3,0.3c0.1,0,0.3,0,0.4,0l0.8-0.4c0.3,0.4,0.6,0.7,0.9,0.9l-0.3,0.8
				c0,0.1,0,0.3,0,0.4c0,0.1,0.1,0.2,0.3,0.3l0.9,0.4c0.1,0,0.3,0,0.4,0c0.1,0,0.2-0.1,0.3-0.3l0.3-0.8c0.4,0.1,0.9,0.1,1.3,0
				l0.4,0.8c0.1,0.2,0.4,0.4,0.6,0.3l0.9-0.4c0,0,0,0,0,0c0.1-0.1,0.2-0.1,0.2-0.3c0-0.1,0-0.3,0-0.4L62,27.8
				c0.4-0.3,0.7-0.6,0.9-0.9l0.8,0.3c0.1,0,0.3,0,0.4,0c0.1,0,0.2-0.1,0.3-0.3l0.4-0.9c0.1-0.2,0-0.5-0.3-0.6l-0.8-0.3
				c0.1-0.4,0.1-0.9,0-1.3l0.8-0.4c0.2-0.1,0.4-0.4,0.3-0.6l-0.4-0.9C64.3,21.8,64.2,21.7,64.1,21.6L64.1,21.6z M60.4,26.5
				c-1.1,0.5-2.5-0.1-2.9-1.2c-0.5-1.1,0-2.4,1.1-2.9c0,0,0.1,0,0.1,0c1.1-0.5,2.5,0.1,2.9,1.2C62.1,24.7,61.6,26,60.4,26.5
				L60.4,26.5z M60.4,26.5"/>
		</g>
	</g>
</g>
</svg>
