<svg xmlns="http://www.w3.org/2000/svg" viewBox="0 0 250 38" height="38" width="250"><defs><linearGradient id="a" x2="0" y2="100%"><stop offset="0" stop-color="#00d7e5"/><stop offset="1" stop-color="#0066ae"/></linearGradient><linearGradient id="b" x2="0" y2="100%"><stop offset="0" stop-color="#ff30ae"/><stop offset="1" stop-color="#d1003a"/></linearGradient><linearGradient id="c" x2="0" y2="100%"><stop offset="0" stop-color="#ffba00"/><stop offset="1" stop-color="#f02e00"/></linearGradient></defs><path fill="url(#a)" d="M23.2 15.5c2.5-2.7 6-4.4 9.9-4.4 8.7 0 13.4 6 13.4 13.4v12.8c0 .3-.3.5-.5.5h-6c-.3 0-.5-.2-.5-.5V24.5c0-4.6-3.1-5.9-6.4-5.9-3.2 0-6.4 1.3-6.4 5.9v12.8c0 .3-.3.5-.5.5h-5.9c-.3 0-.5-.2-.5-.5V24.5c0-4.6-3.1-5.9-6.4-5.9-3.2 0-6.4 1.3-6.4 5.9v12.8c0 .3-.3.5-.5.5h-6c-.3 0-.5-.2-.5-.5V24.5c0-7.4 4.7-13.4 13.3-13.4 4 0 7.5 1.7 9.9 4.4m54.3 9.1c0 7.5-5.2 13.4-14 13.4s-14-5.9-14-13.4c0-7.6 5.2-13.4 14-13.4 8.8-.1 14 5.9 14 13.4zm-6.7 0c0-3.7-2.4-6.8-7.3-6.8-5.2 0-7.3 3.1-7.3 6.8 0 3.7 2.1 6.8 7.3 6.8 5.1-.1 7.3-3.1 7.3-6.8z"/><path fill="url(#b)" d="M103.8 15.5c2.5-2.7 6-4.4 9.9-4.4 8.7 0 13.4 6 13.4 13.4v12.8c0 .3-.3.5-.5.5h-5.9c-.3 0-.5-.2-.5-.5V24.5c0-4.6-3.1-5.9-6.4-5.9-3.2 0-6.4 1.3-6.4 5.9v12.8c0 .3-.3.5-.5.5H101c-.3 0-.5-.2-.5-.5V24.5c0-4.6-3.1-5.9-6.4-5.9-3.2 0-6.4 1.3-6.4 5.9v12.8c0 .3-.3.5-.5.5h-5.9c-.3 0-.5-.2-.5-.5V24.5c0-7.4 4.7-13.4 13.3-13.4 3.8 0 7.3 1.7 9.7 4.4m54.3 9.1c0 7.5-5.2 13.4-14 13.4s-14-5.9-14-13.4c0-7.6 5.2-13.4 14-13.4 8.7-.1 14 5.9 14 13.4zm-6.7 0c0-3.7-2.3-6.8-7.3-6.8-5.2 0-7.3 3.1-7.3 6.8 0 3.7 2.1 6.8 7.3 6.8 5.1-.1 7.3-3.1 7.3-6.8zm9.8-.1v12.8c0 .3.2.5.5.5h5.9c.3 0 .5-.2.5-.5V24.5c0-4.6 3.1-5.9 6.4-5.9 3.3 0 6.4 1.3 6.4 5.9v12.8c0 .3.2.5.5.5h5.9c.3 0 .5-.2.5-.5V24.5c0-7.4-4.5-13.4-13.4-13.4-8.7 0-13.2 6-13.2 13.4"/><path fill="url(#c)" d="M218.4 0h-5.9c-.3 0-.5.2-.5.5v13c-1.3-1.2-4.3-2.4-7-2.4-8.8 0-14 5.9-14 13.4s5.2 13.4 14 13.4c8.7 0 14-5.2 14-14.6V.4c-.1-.2-.3-.4-.6-.4zm-13.5 31.3c-5.2 0-7.3-3-7.3-6.8 0-3.7 2.1-6.8 7.3-6.8 4.9 0 7.3 3 7.3 6.8s-2.2 6.8-7.3 6.8z"/><path fill="url(#c)" d="M236 11.1c-8.8 0-14 5.9-14 13.4s5.2 13.4 14 13.4 14-5.9 14-13.4c0-7.4-5.3-13.4-14-13.4zm0 20.2c-5.2 0-7.3-3.1-7.3-6.8 0-3.7 2.1-6.8 7.3-6.8 4.9 0 7.3 3.1 7.3 6.8 0 3.8-2.2 6.8-7.3 6.8z"/></svg>