<?xml version="1.0" encoding="utf-8"?>
<!-- Generator: Adobe Illustrator 19.2.1, SVG Export Plug-In . SVG Version: 6.00 Build 0)  -->
<svg version="1.1" id="Layer_1" xmlns:sketch="http://www.bohemiancoding.com/sketch/ns"
	 xmlns="http://www.w3.org/2000/svg" xmlns:xlink="http://www.w3.org/1999/xlink" x="0px" y="0px" viewBox="0 0 952 129"
	 style="enable-background:new 0 0 952 129;" xml:space="preserve">
<style type="text/css">
	.st0{fill:#87AA14;}
</style>
<path class="st0" d="M152.1,69.2c19.5-8.4,32.2-20.9,32.9-34.8c0,0-5.1-3.9-21.8-9.8c-14.6-5.2-25.7-6.4-25.7-6.4l0,31
	c0,4.6-1.9,9.4-5.5,13.6c-11-2.6-23.2-4.1-36-4.1c0,0,0,0,0,0c0,0,0,0,0,0c-12.8,0-25,1.5-36.1,4.1c-3.6-4.2-5.5-8.9-5.5-13.6l0-31
	c0,0-11.1,1.2-25.7,6.4C12.1,30.5,7,34.4,7,34.4c0.7,13.9,13.4,26.5,33,34.8C20.5,77.5,7.7,90.1,7,104c0,0,5.1,3.9,21.8,9.8
	c14.6,5.2,25.7,6.4,25.7,6.4l-0.1-31c0-4.6,1.9-9.4,5.5-13.6c11,2.6,23.2,4.1,36,4.1h0h0c12.8,0,25-1.5,36.1-4.1
	c3.6,4.2,5.5,8.9,5.5,13.6l0,31c0,0,11.1-1.2,25.7-6.4c16.6-6,21.8-9.8,21.8-9.8C184.4,90.1,171.6,77.5,152.1,69.2z M96,76.2
	L96,76.2l-0.4,0c-11.6,0-21-2.8-27.9-7c6.9-4.2,16.3-7,27.9-7l0.4,0h0l0.4,0c11.6,0,21,2.8,27.9,7c-6.9,4.2-16.3,7-27.9,7L96,76.2z"
	/>
<path class="st0" d="M292.4,81.7c-1.3,7.7-4.4,13.5-9.5,17.4c-5,4-12.4,5.9-22.1,5.9c-11.6,0-20.4-3.1-26.2-9.4
	c-5.9-6.3-8.8-15.1-8.8-26.6c0-5.7,0.8-10.9,2.5-15.3c1.7-4.5,4.1-8.3,7.2-11.4c3.1-3.1,6.8-5.5,11.1-7.1c4.3-1.6,9-2.4,14.2-2.4
	c10.7,0,18.8,3,24.2,9c5.4,6,8.1,14.1,8.1,24.3v7.3h-48.5c0.2,5.5,1.6,9.8,4.3,12.8c2.7,3.1,6.7,4.6,12.1,4.6c7.4,0,11.8-3,13.1-9.1
	H292.4z M275.1,61.3c0-4.7-1.2-8.3-3.6-11c-2.4-2.6-6.1-3.9-11.1-3.9c-2.5,0-4.7,0.4-6.6,1.2c-1.9,0.8-3.5,1.9-4.8,3.2
	c-1.3,1.4-2.3,2.9-3,4.7c-0.7,1.8-1.1,3.7-1.2,5.8H275.1z"/>
<path class="st0" d="M304.6,34.8h18.2v9.4c2.8-4,6.1-6.9,9.9-8.7c3.8-1.8,7.8-2.7,11.9-2.7c8,0,13.9,2,17.7,6.1
	c3.8,4,5.8,10.4,5.8,19.1v45h-18.8V60.4c0-4.8-0.9-8-2.8-9.8c-1.9-1.7-4.4-2.6-7.5-2.6c-2.4,0-4.5,0.3-6.2,1c-1.7,0.7-3.4,1.7-4.9,3
	c-1.3,1.2-2.3,2.7-3.1,4.4c-0.9,1.7-1.3,3.5-1.3,5.5v41h-18.8V34.8z"/>
<path class="st0" d="M427.1,93.9c-5.4,7.4-12.6,11.1-21.7,11.1c-9.8,0-17.2-3.2-22-9.7c-4.8-6.4-7.2-15.3-7.2-26.7
	c0-5.3,0.7-10.2,2.1-14.5c1.4-4.4,3.4-8.2,6-11.3c2.6-3.2,5.8-5.6,9.5-7.4c3.8-1.7,8-2.6,12.7-2.6c3.5,0,6.9,0.6,10.4,1.8
	c3.4,1.2,6.7,3.6,9.7,7V9.8h18.8v93.1h-18.2V93.9z M426.7,68.1c0-4.3-0.4-7.8-1.1-10.4c-0.8-2.6-2-4.7-3.7-6.4
	c-1.6-1.6-3.4-2.6-5.3-3.1c-1.9-0.5-3.8-0.7-5.7-0.7c-2.1,0-4,0.4-5.8,1.2c-1.8,0.8-3.4,2-4.8,3.7c-1.4,1.7-2.5,3.8-3.3,6.5
	c-0.8,2.7-1.2,5.9-1.2,9.7c0,4.1,0.4,7.5,1.1,10.2c0.8,2.7,1.8,5,3.2,6.7c1.3,1.7,2.9,2.9,4.7,3.7c1.8,0.7,3.7,1.1,5.8,1.1
	c4.5,0,8.1-1.3,11-3.8c1.8-1.7,3.1-3.8,4-6.3c0.8-2.5,1.3-5.7,1.3-9.6V68.1z"/>
<path class="st0" d="M489.5,105c-11.3,0-20-3.1-26.1-9.4c-6.2-6.3-9.2-15.2-9.2-26.9c0-5.6,0.8-10.6,2.5-15.1
	c1.7-4.5,4-8.3,7.1-11.4c3.1-3.1,6.8-5.5,11.2-7.1c4.4-1.7,9.3-2.5,14.6-2.5c5.5,0,10.4,0.8,14.7,2.5c4.4,1.7,8.1,4,11.2,7.1
	c3.1,3.1,5.4,6.9,7,11.4c1.6,4.5,2.4,9.5,2.4,15.1c0,5.7-0.8,10.7-2.5,15.2c-1.7,4.5-4,8.3-7.1,11.4c-3.1,3.1-6.8,5.5-11.2,7.2
	C499.8,104.2,494.9,105,489.5,105z M489.5,90.4c5.4,0,9.4-1.9,12-5.6s4-9.1,4-16c0-7-1.3-12.3-4-15.9c-2.6-3.7-6.6-5.5-12-5.5
	c-5.4,0-9.4,1.8-12,5.5c-2.6,3.7-4,9-4,15.9c0,7,1.3,12.4,3.9,16.1C480.1,88.5,484.1,90.4,489.5,90.4z"/>
<path class="st0" d="M533.8,34.8H552V44c2.6-3.8,5.6-6.7,9.1-8.5c3.5-1.8,7.1-2.7,11-2.7c5.1,0,9.3,1,12.5,3c3.2,2,5.5,4.9,6.8,8.7
	c3.2-4.2,6.6-7.2,10.2-9c3.6-1.8,7.5-2.7,11.8-2.7c7.2,0,12.7,1.9,16.3,5.8c3.6,3.9,5.4,10.2,5.4,18.9v45.5h-18.8V59.9
	c0-2.4-0.2-4.4-0.7-5.9c-0.4-1.5-1.1-2.7-1.8-3.6c-0.8-0.9-1.7-1.5-2.7-1.8c-1.1-0.3-2.2-0.5-3.4-0.5c-1.9,0-3.6,0.3-5.2,0.9
	c-1.6,0.6-3.1,1.7-4.6,3.1c-1.3,1.2-2.3,2.6-3,4.2c-0.8,1.6-1.1,3.2-1.1,5v41.7h-18.8V59.9c0-2.4-0.2-4.4-0.7-5.9
	c-0.4-1.5-1-2.7-1.8-3.6c-0.8-0.9-1.7-1.5-2.7-1.8c-1.1-0.3-2.2-0.5-3.4-0.5c-1.9,0-3.6,0.3-5.2,0.9c-1.6,0.6-3.1,1.7-4.6,3.1
	c-1.3,1.2-2.3,2.7-3,4.4c-0.8,1.7-1.1,3.5-1.1,5.5v41h-18.8V34.8z"/>
<path class="st0" d="M678.7,105c-11.3,0-20-3.1-26.1-9.4c-6.2-6.3-9.3-15.2-9.3-26.9c0-5.6,0.8-10.6,2.5-15.1
	c1.7-4.5,4-8.3,7.1-11.4c3.1-3.1,6.8-5.5,11.2-7.1s9.3-2.5,14.6-2.5c5.4,0,10.4,0.8,14.7,2.5c4.4,1.7,8.1,4,11.2,7.1
	c3.1,3.1,5.4,6.9,7,11.4c1.6,4.5,2.4,9.5,2.4,15.1c0,5.7-0.8,10.7-2.5,15.2c-1.7,4.5-4,8.3-7.1,11.4c-3.1,3.1-6.8,5.5-11.2,7.2
	C688.9,104.2,684.1,105,678.7,105z M678.7,90.4c5.4,0,9.4-1.9,12-5.6c2.6-3.7,4-9.1,4-16c0-7-1.3-12.3-4-15.9
	c-2.6-3.7-6.6-5.5-12-5.5c-5.4,0-9.4,1.8-12,5.5c-2.6,3.7-4,9-4,15.9c0,7,1.3,12.4,3.9,16.1C669.2,88.5,673.2,90.4,678.7,90.4z"/>
<path class="st0" d="M722.9,34.8h18.2v9.4c2.8-4,6.1-6.9,9.9-8.7c3.8-1.8,7.8-2.7,11.9-2.7c8,0,13.9,2,17.7,6.1
	c3.8,4,5.8,10.4,5.8,19.1v45h-18.8V60.4c0-4.8-0.9-8-2.8-9.8c-1.9-1.7-4.4-2.6-7.5-2.6c-2.4,0-4.5,0.3-6.2,1c-1.7,0.7-3.4,1.7-4.9,3
	c-1.3,1.2-2.3,2.7-3.2,4.4c-0.9,1.7-1.3,3.5-1.3,5.5v41h-18.8V34.8z"/>
<path class="st0" d="M848.1,93.9c-5.4,7.4-12.6,11.1-21.7,11.1c-9.8,0-17.2-3.2-22-9.7c-4.8-6.4-7.2-15.3-7.2-26.7
	c0-5.3,0.7-10.2,2.1-14.5c1.4-4.4,3.4-8.2,6-11.3c2.6-3.2,5.8-5.6,9.5-7.4c3.8-1.7,8-2.6,12.7-2.6c3.5,0,6.9,0.6,10.4,1.8
	c3.4,1.2,6.7,3.6,9.7,7V9.8h18.8v93.1h-18.2V93.9z M847.7,68.1c0-4.3-0.4-7.8-1.1-10.4c-0.8-2.6-2-4.7-3.7-6.4
	c-1.6-1.6-3.4-2.6-5.3-3.1c-1.9-0.5-3.8-0.7-5.7-0.7c-2.1,0-4,0.4-5.8,1.2c-1.8,0.8-3.4,2-4.8,3.7c-1.4,1.7-2.5,3.8-3.3,6.5
	c-0.8,2.7-1.2,5.9-1.2,9.7c0,4.1,0.4,7.5,1.1,10.2c0.8,2.7,1.8,5,3.2,6.7c1.3,1.7,2.9,2.9,4.7,3.7c1.8,0.7,3.7,1.1,5.8,1.1
	c4.5,0,8.1-1.3,11-3.8c1.8-1.7,3.1-3.8,4-6.3c0.8-2.5,1.3-5.7,1.3-9.6V68.1z"/>
<path class="st0" d="M910.6,105c-11.3,0-20-3.1-26.1-9.4c-6.2-6.3-9.3-15.2-9.3-26.9c0-5.6,0.8-10.6,2.5-15.1
	c1.7-4.5,4-8.3,7.1-11.4c3.1-3.1,6.8-5.5,11.2-7.1c4.4-1.7,9.2-2.5,14.6-2.5c5.4,0,10.4,0.8,14.7,2.5c4.4,1.7,8.1,4,11.2,7.1
	c3.1,3.1,5.4,6.9,7,11.4c1.6,4.5,2.4,9.5,2.4,15.1c0,5.7-0.8,10.7-2.5,15.2c-1.7,4.5-4,8.3-7.1,11.4c-3.1,3.1-6.8,5.5-11.2,7.2
	C920.8,104.2,916,105,910.6,105z M910.6,90.4c5.4,0,9.4-1.9,12-5.6c2.6-3.7,4-9.1,4-16c0-7-1.3-12.3-4-15.9c-2.6-3.7-6.6-5.5-12-5.5
	c-5.4,0-9.4,1.8-12,5.5c-2.6,3.7-4,9-4,15.9c0,7,1.3,12.4,3.9,16.1C901.1,88.5,905.2,90.4,910.6,90.4z"/>
</svg>
