<?xml version="1.0" encoding="utf-8"?>
<!-- Generator: Adobe Illustrator 18.1.0, SVG Export Plug-In . SVG Version: 6.00 Build 0)  -->
<svg version="1.1" id="SemiBold" xmlns="http://www.w3.org/2000/svg" xmlns:xlink="http://www.w3.org/1999/xlink" x="0px" y="0px"
	 viewBox="0 0 229.5 91.5" enable-background="new 0 0 229.5 91.5" xml:space="preserve">
<path stroke="#FFFFFF" stroke-width="1.5" stroke-miterlimit="10" d="M222,71c0,6.5-4.8,10.6-11.3,10.6H18.8
	C12.3,81.6,7,76.3,7,69.8v-50C7,13.3,12.3,8,18.8,8h191.8c6.5,0,11.3,5.3,11.3,11.8V71z"/>
<g>
	<g>
		<path fill="#FFFFFF" d="M153.9,60.9l-1.6,1.5c-0.4,0.2-0.7,0.4-1.1,0.6c-1.1,0.5-2.3,0.6-3.3,0.6c-1.1,0-2.8-0.1-4.5-1.3
			c-2.4-1.7-3.4-4.6-3.4-7.1c0-5.2,4.3-7.8,7.7-7.8c1.2,0,2.5,0.3,3.5,0.9c1.7,1.1,2.1,2.6,2.4,3.3l-7.9,3.2l-2.6,0.2
			c0.8,4.3,3.7,6.8,7,6.8C151.6,61.9,152.8,61.4,153.9,60.9C153.9,60.8,154.1,60.7,153.9,60.9z M149.1,52.3c0.6-0.2,1-0.4,1-0.9
			c0-1.3-1.5-2.9-3.3-2.9c-1.3,0-3.9,1-3.9,4.7c0,0.6,0.1,1.2,0.1,1.8L149.1,52.3z"/>
		<path fill="#FFFFFF" d="M137.3,60.6c0,1.3,0.2,1.5,1.3,1.6c0.6,0.1,1.2,0.1,1.7,0.2l-1.2,0.7h-5.9c0.8-1,0.9-1.1,0.9-1.8v-0.8
			l0-20.1h-2.6l2.5-1.2h4.8c-1,0.6-1.4,1-1.5,2.2L137.3,60.6z"/>
		<path fill="#FFFFFF" d="M128.1,49.1c0.8,0.6,2.4,2,2.4,4.6c0,2.5-1.4,3.7-2.8,4.8c-0.4,0.4-0.9,0.9-0.9,1.7c0,0.7,0.5,1.2,0.9,1.5
			l1.2,0.9c1.5,1.3,2.8,2.4,2.8,4.7c0,3.2-3.1,6.4-8.9,6.4c-4.9,0-7.3-2.3-7.3-4.8c0-1.2,0.6-2.9,2.6-4.1c2.1-1.3,4.9-1.5,6.4-1.5
			c-0.5-0.6-1-1.3-1-2.3c0-0.6,0.2-0.9,0.3-1.3c-0.4,0-0.7,0.1-1.1,0.1c-3.6,0-5.6-2.7-5.6-5.3c0-1.6,0.7-3.3,2.2-4.5
			c1.9-1.6,4.2-1.9,6-1.9h7l-2.2,1.2H128.1z M125.7,64c-0.3,0-0.4,0-0.8,0c-0.3,0-2.1,0.1-3.5,0.5c-0.7,0.3-2.9,1.1-2.9,3.5
			c0,2.4,2.3,4.1,5.9,4.1c3.2,0,5-1.6,5-3.6C129.4,66.8,128.3,65.9,125.7,64z M126.7,57.6c0.8-0.8,0.8-1.9,0.8-2.5
			c0-2.4-1.4-6.2-4.3-6.2c-0.9,0-1.8,0.4-2.4,1.1c-0.6,0.7-0.7,1.6-0.7,2.5c0,2.3,1.3,6,4.2,6C125.3,58.6,126.2,58.2,126.7,57.6z"/>
		<path fill="#FFFFFF" d="M107.2,63.6c-5.4,0-8.2-4.2-8.2-8c0-4.4,3.6-8.2,8.7-8.2c5,0,8.1,3.9,8.1,8
			C115.8,59.4,112.7,63.6,107.2,63.6z M111.4,60.8c0.8-1.1,1-2.4,1-3.7c0-3-1.4-8.6-5.6-8.6c-1.1,0-2.2,0.4-3,1.1
			c-1.3,1.2-1.6,2.7-1.6,4.1c0,3.3,1.6,8.8,5.7,8.8C109.3,62.6,110.6,61.9,111.4,60.8z"/>
		<path fill="#FFFFFF" d="M89.2,63.6c-5.4,0-8.2-4.2-8.2-8c0-4.4,3.6-8.2,8.7-8.2c5,0,8.1,3.9,8.1,8C97.8,59.4,94.7,63.6,89.2,63.6z
			 M93.5,60.8c0.8-1.1,1-2.4,1-3.7c0-3-1.4-8.6-5.6-8.6c-1.1,0-2.2,0.4-3,1.1c-1.3,1.2-1.6,2.7-1.6,4.1c0,3.3,1.7,8.8,5.7,8.8
			C91.3,62.6,92.7,61.9,93.5,60.8z"/>
		<path fill="#FFFFFF" d="M78.9,62.4l-4.5,1c-1.8,0.3-3.5,0.5-5.2,0.5c-8.7,0-12.1-6.4-12.1-11.5c0-6.1,4.7-11.8,12.8-11.8
			c1.7,0,3.3,0.3,4.8,0.7c2.4,0.7,3.5,1.5,4.2,2l-2.6,2.5l-1.1,0.2l0.8-1.3c-1.1-1-3-3-6.8-3c-5,0-8.8,3.8-8.8,9.3
			c0,5.9,4.3,11.5,11.2,11.5c2,0,3.1-0.4,4-0.8v-5.1l-4.8,0.3l2.5-1.4h6.7l-0.8,0.8C79,56.7,79,56.8,78.9,57c0,0.3-0.1,1.2-0.1,1.5
			V62.4z"/>
	</g>
	<g>
		<path fill="#FFFFFF" d="M163.7,61v8.6h-1.7V47.7h1.7v2.5c1.1-1.6,3.1-2.9,5.5-2.9c4.2,0,7.1,3.2,7.1,8.3c0,5-2.9,8.3-7.1,8.3
			C166.9,64,164.9,62.8,163.7,61z M174.4,55.6c0-3.8-2-6.8-5.5-6.8c-2.2,0-4.3,1.7-5.2,3.2v7c0.9,1.5,3,3.3,5.2,3.3
			C172.4,62.4,174.4,59.5,174.4,55.6z"/>
		<path fill="#FFFFFF" d="M178.6,63.6V41.7h1.7v21.9H178.6z"/>
		<path fill="#FFFFFF" d="M199.4,68.2c0.4,0.2,1,0.3,1.4,0.3c1,0,1.8-0.4,2.4-1.9l1.2-2.8l-6.7-16h1.9l5.8,13.8l5.7-13.8h1.9
			L204.9,67c-0.9,2-2.2,2.9-4,2.9c-0.6,0-1.3-0.1-1.7-0.2L199.4,68.2z"/>
		<path fill="#FFFFFF" d="M194.4,63.5c-0.1-0.5-0.2-1-0.3-1.4c-0.1-0.4-0.1-0.8-0.1-1.2c-0.6,0.9-1.4,1.6-2.5,2.1
			c-1.1,0.6-2.1,0.8-3.4,0.8c-1.7,0-3-0.4-3.9-1.2c-0.9-0.8-1.4-2-1.4-3.4c0-1.4,0.7-2.6,2-3.5c1.3-0.9,3.1-1.3,5.2-1.3h4v-2
			c0-1.1-0.4-2-1.2-2.7c-0.8-0.6-1.9-1-3.3-1c-1.3,0-2.3,0.3-3.1,0.9c-0.8,0.6-1.2,1.3-1.2,2.2h-1.7l0-0.1c-0.1-1.2,0.5-2.2,1.6-3.2
			c1.2-0.9,2.7-1.4,4.5-1.4c1.9,0,3.4,0.4,4.5,1.3c1.1,0.9,1.7,2.2,1.7,3.8v7.8c0,0.6,0,1.1,0.1,1.6c0.1,0.5,0.2,1.1,0.3,1.6H194.4z
			 M188.4,62.3c1.5,0,2.5-0.3,3.6-1c1.1-0.6,1.8-1.5,2.2-2.5v-3h-4c-1.5,0-2.8,0.3-3.8,1c-1,0.7-1.5,1.5-1.5,2.5
			c0,0.9,0.3,1.6,1,2.2C186.4,62,187.3,62.3,188.4,62.3z"/>
	</g>
</g>
<g>
	<polygon fill="none" points="34.8,54.7 40.3,49.3 40.3,49.3 34.8,54.7 17.3,37.3 17.3,37.3 34.8,54.7 17.3,72.3 17.3,72.3 
		34.8,54.7 40.3,60.2 40.3,60.2 	"/>
	
		<linearGradient id="SVGID_1_" gradientUnits="userSpaceOnUse" x1="519.5719" y1="-432.9987" x2="496.4955" y2="-447.4409" gradientTransform="matrix(0.7071 0.7071 -0.7071 0.7071 -642.4706 -7.8798)">
		<stop  offset="0" style="stop-color:#D6FFA1"/>
		<stop  offset="0.3264" style="stop-color:#93E2A7"/>
		<stop  offset="1" style="stop-color:#00A3B5"/>
	</linearGradient>
	<path fill="url(#SVGID_1_)" d="M40.3,49.3L18.9,37.5c-0.6-0.3-1.2-0.4-1.6-0.3l17.5,17.5L40.3,49.3z"/>
	
		<linearGradient id="SVGID_2_" gradientUnits="userSpaceOnUse" x1="506.1548" y1="-445.3357" x2="536.0744" y2="-437.5144" gradientTransform="matrix(0.7071 0.7071 -0.7071 0.7071 -642.4706 -7.8798)">
		<stop  offset="0" style="stop-color:#FF177B"/>
		<stop  offset="0.6721" style="stop-color:#FFA976"/>
		<stop  offset="1" style="stop-color:#FFEC73"/>
	</linearGradient>
	<path fill="url(#SVGID_2_)" d="M40.3,60.2l7.3-4c1.5-0.8,1.5-2.1,0-3l-7.3-4l-5.5,5.5L40.3,60.2z"/>
	
		<linearGradient id="SVGID_3_" gradientUnits="userSpaceOnUse" x1="522.8575" y1="-422.0439" x2="490.4135" y2="-441.132" gradientTransform="matrix(0.7071 0.7071 -0.7071 0.7071 -642.4706 -7.8798)">
		<stop  offset="0" style="stop-color:#63FFD4"/>
		<stop  offset="0.4854" style="stop-color:#32A0BA"/>
		<stop  offset="0.8349" style="stop-color:#1262A9"/>
		<stop  offset="1" style="stop-color:#064AA2"/>
	</linearGradient>
	<path fill="url(#SVGID_3_)" d="M17.3,37.3c-0.6,0.2-1.1,0.9-1.1,1.9l0,31.3c0,1,0.4,1.6,1,1.8l17.5-17.5L17.3,37.3z"/>
	
		<linearGradient id="SVGID_4_" gradientUnits="userSpaceOnUse" x1="534.6367" y1="-437.1995" x2="514.6602" y2="-410.8814" gradientTransform="matrix(0.7071 0.7071 -0.7071 0.7071 -642.4706 -7.8798)">
		<stop  offset="0" style="stop-color:#FF4521"/>
		<stop  offset="0.3411" style="stop-color:#D43E65"/>
		<stop  offset="0.7935" style="stop-color:#9F36B9"/>
		<stop  offset="1" style="stop-color:#8A33DB"/>
	</linearGradient>
	<path fill="url(#SVGID_4_)" d="M17.3,72.3c0.5,0.2,1,0.1,1.6-0.3l21.4-11.7l-5.5-5.5L17.3,72.3z"/>
</g>
<g>
	<g>
		<path fill="#FFFFFF" d="M57,23.8c0-3.4,2.5-5.5,5.6-5.5c2.1,0,3.4,1,4.3,2.2l-1.5,0.9c-0.6-0.8-1.6-1.4-2.8-1.4
			c-2.1,0-3.7,1.6-3.7,3.9c0,2.2,1.6,3.9,3.7,3.9c1.1,0,2-0.5,2.5-1V25H62v-1.6H67v4c-1,1.2-2.5,2-4.4,2C59.5,29.3,57,27.1,57,23.8z
			"/>
		<path fill="#FFFFFF" d="M69.3,29.1V18.4h7.3v1.6h-5.4v2.8h5.3v1.6h-5.3v3h5.4v1.6H69.3z"/>
		<path fill="#FFFFFF" d="M81.8,29.1v-9h-3.2v-1.6h8.3v1.6h-3.2v9H81.8z"/>
		<path fill="#FFFFFF" d="M93.4,29.1V18.4h1.9v10.7H93.4z"/>
		<path fill="#FFFFFF" d="M100.5,29.1v-9h-3.2v-1.6h8.3v1.6h-3.2v9H100.5z"/>
		<path fill="#FFFFFF" d="M111.7,23.8c0-3.2,2.3-5.5,5.5-5.5c3.2,0,5.5,2.3,5.5,5.5c0,3.2-2.3,5.5-5.5,5.5
			C113.9,29.3,111.7,26.9,111.7,23.8z M120.7,23.8c0-2.2-1.4-3.9-3.5-3.9c-2.2,0-3.5,1.6-3.5,3.9c0,2.2,1.4,3.9,3.5,3.9
			C119.3,27.6,120.7,25.9,120.7,23.8z"/>
		<path fill="#FFFFFF" d="M132.2,29.1l-5.6-7.6v7.6h-1.9V18.4h1.9l5.5,7.4v-7.4h1.9v10.7H132.2z"/>
	</g>
</g>
</svg>
