<?xml version="1.0" encoding="utf-8"?>
<!-- Generator: Adobe Illustrator 18.1.1, SVG Export Plug-In . SVG Version: 6.00 Build 0)  -->
<svg version="1.1" id="Layer_1" xmlns="http://www.w3.org/2000/svg" xmlns:xlink="http://www.w3.org/1999/xlink" x="0px" y="0px"
	 viewBox="-743 745 512 512" enable-background="new -743 745 512 512" xml:space="preserve">
<g>
	<g>
		<path fill="#FFFFFF" d="M-599,1013.4v89.6c0,6.9,4.5,14,11.4,14h28.6v52c0,13.3,10.7,24,24,24s24-10.7,24-24v-52h49v52
			c0,7.5,3.4,14.2,8.8,18.6c3.9,3.4,9.1,5.4,14.7,5.4c0.1,0,0.2,0,0.3,0c0.1,0,0.1,0,0.2,0c13.3,0,24-10.7,24-24v-52h27.6
			c7,0,11.4-7.1,11.4-13.9v-89.6V937h-224V1013.4z"/>
		<path fill="#FFFFFF" d="M-335,921c-13.3,0-24,10.7-24,24v96c0,13.3,10.7,24,24,24s24-10.7,24-24v-96C-311,931.7-321.7,921-335,921
			z"/>
		<path fill="#FFFFFF" d="M-639,921c-13.3,0-24,10.7-24,24v96c0,13.3,10.7,24,24,24s24-10.7,24-24v-96C-615,931.7-625.7,921-639,921
			z"/>
	</g>
	<g>
		<path fill="#FFFFFF" d="M-431.8,834.1l18.5-21.9c0.4-0.5-0.2-1.6-1.3-2.5c-1.1-0.8-2.4-1-2.7-0.4l-19.2,22.8
			c-13.6-5.4-30.2-8.8-50.6-8.8c-20.5-0.1-37.2,3.2-50.8,8.5l-19-22.4c-0.4-0.5-1.6-0.4-2.7,0.4c-1.1,0.8-1.7,1.8-1.3,2.5l18.3,21.6
			c-48.2,20.9-55.4,72.2-56.4,87.2h223.6C-376.3,906-383.4,855.4-431.8,834.1z M-536.2,883.9c-7.4,0-13.5-6-13.5-13.3
			c0-7.3,6-13.3,13.5-13.3c7.4,0,13.5,6,13.5,13.3C-522.7,877.9-528.7,883.9-536.2,883.9z M-437.8,883.9c-7.4,0-13.5-6-13.5-13.3
			c0-7.3,6-13.3,13.5-13.3c7.4,0,13.5,6,13.5,13.3C-424.3,877.9-430.4,883.9-437.8,883.9z"/>
	</g>
</g>
</svg>
