<svg id="Layer_1" data-name="Layer 1" xmlns="http://www.w3.org/2000/svg" viewBox="0 0 71.76 65.73"><defs><style>.cls-1{fill:#2675ac;}</style></defs><title>save-time</title><path class="cls-1" d="M577.25,534c.06.81.05,4.32,0,5.25a27.7,27.7,0,1,1-28.64,37.55l4.54-.09a3.08,3.08,0,0,0,2.08-5.3l-7.34-7.06a3.08,3.08,0,0,0-4.36.09l-7.06,7.34a3.08,3.08,0,0,0,2.28,5.22l4.34-.09A32.93,32.93,0,1,0,577.25,534Z" transform="translate(-535.57 -534.01)"/><path class="cls-1" d="M564.66,583.3l12-12.36a3.16,3.16,0,0,0,1.29-2.87v-20c0-1.87-1.13-3.4-3-3.4s-3,1.53-3,3.4v18.48l-12.05,12a3.41,3.41,0,0,0,0,4.81A3.35,3.35,0,0,0,564.66,583.3Z" transform="translate(-535.57 -534.01)"/><circle class="cls-1" cx="57.68" cy="20.66" r="2.69"/><circle class="cls-1" cx="61.46" cy="32" r="2.69"/><circle class="cls-1" cx="586.44" cy="586.42" r="2.69" transform="translate(-713.03 375.29) rotate(-67.91)"/><circle class="cls-1" cx="39.54" cy="54.68" r="2.69"/><circle class="cls-1" cx="594" cy="577.35" r="2.69" transform="translate(-699.91 376.63) rotate(-67.91)"/><circle class="cls-1" cx="48.61" cy="12.35" r="2.69"/></svg>