<?xml version="1.0" encoding="utf-8"?>
<!-- Generator: Adobe Illustrator 19.1.0, SVG Export Plug-In . SVG Version: 6.00 Build 0)  -->
<svg version="1.1" id="Layer_1" xmlns="http://www.w3.org/2000/svg" xmlns:xlink="http://www.w3.org/1999/xlink" x="0px" y="0px"
	 viewBox="0 0 75 75" style="enable-background:new 0 0 75 75;" xml:space="preserve">
<style type="text/css">
	.st0{enable-background:new    ;}
	.st1{clip-path:url(#SVGID_2_);}
	.st2{clip-path:url(#SVGID_4_);fill:#2475AC;}
	.st3{fill:none;stroke:#2475AC;stroke-width:2;stroke-miterlimit:10;}
	.st4{clip-path:url(#SVGID_6_);}
	.st5{clip-path:url(#SVGID_8_);fill:#2475AC;}
	.st6{clip-path:url(#SVGID_10_);}
	.st7{clip-path:url(#SVGID_12_);fill:#2475AC;}
	.st8{clip-path:url(#SVGID_14_);}
	.st9{fill:#FFFFFF;stroke:#FFFFFF;stroke-width:4;stroke-miterlimit:10;}
	.st10{fill:#FFFFFF;stroke:#2475AC;stroke-width:1.453;stroke-miterlimit:10;}
	.st11{fill:#FFFFFF;stroke:#FFFFFF;stroke-width:5;stroke-miterlimit:10;}
	.st12{fill:#FFFFFF;stroke:#2475AC;stroke-width:1.3716;stroke-miterlimit:10;}
	.st13{clip-path:url(#SVGID_18_);}
	.st14{clip-path:url(#SVGID_20_);fill:#2475AC;}
	.st15{fill:#2475AC;}
	.st16{fill:#FFFFFF;}
	.st17{fill:#FFFFFF;stroke:#FFFFFF;stroke-width:2;stroke-miterlimit:10;}
	.st18{clip-path:url(#SVGID_22_);}
	.st19{clip-path:url(#SVGID_24_);fill:#2475AC;stroke:#FFFFFF;stroke-miterlimit:10;}
	.st20{fill:none;stroke:#2475AC;stroke-width:0.6225;stroke-miterlimit:10;}
	.st21{clip-path:url(#SVGID_26_);}
	.st22{clip-path:url(#SVGID_28_);fill:#2475AC;}
	.st23{fill:none;stroke:#2475AC;stroke-miterlimit:10;}
	.st24{fill:#1D1D1B;}
</style>
<g>
	<g class="st0">
		<g>
			<g>
				<defs>
					<path id="SVGID_9_" d="M139.7,58.6h-31.5V16.9h31.5V58.6z M124,68.9c-1.8,0-3.2-1.3-3.2-3c0-1.7,1.4-3,3.2-3
						c1.8,0,3.2,1.3,3.2,3C127.2,67.5,125.8,68.9,124,68.9z M116.8,11.8h14.3c0.4,0,0.7,0.5,0.7,1.1c0,0.6-0.3,1.1-0.7,1.1h-14.3
						c-0.4,0-0.7-0.5-0.7-1.1C116.2,12.3,116.5,11.8,116.8,11.8z M138.5,8.9h-29c-2.8,0-5,2.1-5,4.7v55.2c0,2.6,2.2,4.7,5,4.7h29
						c2.8,0,5-2.1,5-4.7V13.6C143.5,11,141.3,8.9,138.5,8.9z"/>
				</defs>
				<use xlink:href="#SVGID_9_"  style="overflow:visible;fill:#2475AC;"/>
				<clipPath id="SVGID_2_">
					<use xlink:href="#SVGID_9_"  style="overflow:visible;"/>
				</clipPath>
				<g class="st1">
					<defs>
						<rect id="SVGID_11_" x="-83.4" y="2" width="227.7" height="71.9"/>
					</defs>
					<use xlink:href="#SVGID_11_"  style="overflow:visible;fill:#2475AC;"/>
					<clipPath id="SVGID_4_">
						<use xlink:href="#SVGID_11_"  style="overflow:visible;"/>
					</clipPath>
				</g>
			</g>
		</g>
	</g>
</g>
<g>
	<g class="st0">
		<g>
			<g>
				<defs>
					<path id="SVGID_13_" d="M293.3,58.2h-31.5V16.5h31.5V58.2z M277.5,68.5c-1.8,0-3.2-1.3-3.2-3c0-1.7,1.4-3,3.2-3
						c1.8,0,3.2,1.3,3.2,3C280.7,67.1,279.3,68.5,277.5,68.5z M270.4,11.4h14.3c0.4,0,0.7,0.5,0.7,1.1c0,0.6-0.3,1.1-0.7,1.1h-14.3
						c-0.4,0-0.7-0.5-0.7-1.1C269.7,11.9,270,11.4,270.4,11.4z M292,8.5h-29c-2.8,0-5,2.1-5,4.7v55.2c0,2.6,2.2,4.7,5,4.7h29
						c2.8,0,5-2.1,5-4.7V13.2C297,10.6,294.8,8.5,292,8.5z"/>
				</defs>
				<use xlink:href="#SVGID_13_"  style="overflow:visible;fill:#2475AC;"/>
				<clipPath id="SVGID_6_">
					<use xlink:href="#SVGID_13_"  style="overflow:visible;"/>
				</clipPath>
				<g class="st4">
					<defs>
						<rect id="SVGID_15_" x="70.2" y="1.7" width="227.7" height="71.9"/>
					</defs>
					<use xlink:href="#SVGID_15_"  style="overflow:visible;fill:#2475AC;"/>
					<clipPath id="SVGID_8_">
						<use xlink:href="#SVGID_15_"  style="overflow:visible;"/>
					</clipPath>
				</g>
			</g>
		</g>
	</g>
</g>
<g>
	<g class="st0">
		<g>
			<g>
				<defs>
					<path id="SVGID_17_" d="M216.7,58.6h-31.5V16.9h31.5V58.6z M201,68.9c-1.8,0-3.2-1.3-3.2-3c0-1.7,1.4-3,3.2-3
						c1.8,0,3.2,1.3,3.2,3C204.2,67.5,202.8,68.9,201,68.9z M193.8,11.8h14.3c0.4,0,0.7,0.5,0.7,1.1c0,0.6-0.3,1.1-0.7,1.1h-14.3
						c-0.4,0-0.7-0.5-0.7-1.1C193.2,12.3,193.5,11.8,193.8,11.8z M215.5,8.9h-29c-2.8,0-5,2.1-5,4.7v55.2c0,2.6,2.2,4.7,5,4.7h29
						c2.8,0,5-2.1,5-4.7V13.6C220.5,11,218.3,8.9,215.5,8.9z"/>
				</defs>
				<use xlink:href="#SVGID_17_"  style="overflow:visible;fill:#2475AC;"/>
				<clipPath id="SVGID_10_">
					<use xlink:href="#SVGID_17_"  style="overflow:visible;"/>
				</clipPath>
				<g class="st6">
					<defs>
						<rect id="SVGID_19_" x="-6.4" y="2" width="227.7" height="71.9"/>
					</defs>
					<use xlink:href="#SVGID_19_"  style="overflow:visible;fill:#2475AC;"/>
					<clipPath id="SVGID_12_">
						<use xlink:href="#SVGID_19_"  style="overflow:visible;"/>
					</clipPath>
				</g>
			</g>
		</g>
	</g>
</g>
<g>
	<g>
		<g>
			<path class="st15" d="M7.3,71.2h50.9c0.7,0,1.3-0.3,1.7-0.8c0.4-0.4,0.5-1,0.5-1.5c-1.2-9.3-6.9-17-14.7-21.2
				c-3.3,3.3-7.9,5.4-12.9,5.4c-5,0-9.6-2-12.9-5.4C12.1,51.9,6.3,59.7,5.1,68.9c-0.1,0.5,0.1,1.1,0.5,1.5C6,70.9,6.7,71.2,7.3,71.2
				L7.3,71.2z M7.3,71.2"/>
		</g>
		<path class="st15" d="M21.3,45.8c0.3,0.3,0.6,0.6,0.9,0.9c2.8,2.5,6.5,4.1,10.5,4.1c4,0,7.7-1.5,10.5-4.1c0.3-0.3,0.6-0.6,0.9-0.9
			c0.3-0.3,0.6-0.6,0.9-1c2.2-2.7,3.5-6.2,3.5-9.9c0-8.7-7.1-15.8-15.8-15.8C24.1,19,17,26.1,17,34.9c0,3.8,1.3,7.2,3.5,9.9
			C20.7,45.1,21,45.4,21.3,45.8L21.3,45.8z M21.3,45.8"/>
	</g>
</g>
<circle class="st11" cx="52.9" cy="22.1" r="19.1"/>
<circle class="st12" cx="52.9" cy="22.1" r="19.1"/>
<g>
	<path class="st15" d="M54.5,12.7v7.2h6.9V23h-6.9v7.3h-3.3V23h-6.9v-3.1h6.9v-7.2H54.5z"/>
</g>
</svg>
