<svg id="Layer_1" data-name="Layer 1" xmlns="http://www.w3.org/2000/svg" viewBox="0 0 89.71 89.71"><defs><style>.cls-1{fill:#2675ac;}</style></defs><title>stay-organized</title><path class="cls-1" d="M561,455V443.8a2.8,2.8,0,1,1,5.61,0V455a2.8,2.8,0,1,1-5.61,0Zm47.66,2.8a2.8,2.8,0,0,0,2.8-2.8V443.8a2.8,2.8,0,1,0-5.61,0V455a2.8,2.8,0,0,0,2.8,2.8Zm30.84,50.46A22.43,22.43,0,1,1,617,485.85a22.43,22.43,0,0,1,22.43,22.43Zm-5.61,0A16.82,16.82,0,1,0,617,525.1a16.84,16.84,0,0,0,16.82-16.82Zm-61.68-33.64H561v11.21h11.21Zm-11.21,28h11.21V491.46H561Zm16.82-16.82H589V474.64H577.78Zm0,16.82H589V491.46H577.78Zm-22.43,5V469H617v11.21h5.61V458.38a6.12,6.12,0,0,0-6.07-6.17h-2.34V455A5.61,5.61,0,1,1,603,455v-2.8H569.37V455a5.61,5.61,0,1,1-11.21,0v-2.8h-2.33a6.12,6.12,0,0,0-6.08,6.17v49.34a6.13,6.13,0,0,0,6.08,6.17H589v-5.61H555.82a.53.53,0,0,1-.47-.56Zm50.46-21.87V474.64H594.6v11.21Zm19.62,22.43" transform="translate(-549.75 -441)"/><path class="cls-1" d="M619.09,506.27h6.56a2.15,2.15,0,0,1,1.53.56,1.9,1.9,0,0,1,.6,1.45,1.93,1.93,0,0,1-.6,1.46,2.13,2.13,0,0,1-1.53.57h-6.56v6.83a2.11,2.11,0,0,1-.58,1.53,2,2,0,0,1-1.49.6,1.93,1.93,0,0,1-1.45-.63,2.1,2.1,0,0,1-.6-1.5v-6.83h-6.56a2.13,2.13,0,0,1-1.53-.57,1.93,1.93,0,0,1-.6-1.46,1.89,1.89,0,0,1,.62-1.42,2.11,2.11,0,0,1,1.51-.59H615v-6.83a2.16,2.16,0,0,1,.57-1.55,2.12,2.12,0,0,1,3,0,2.15,2.15,0,0,1,.58,1.54Z" transform="translate(-549.75 -441)"/></svg>