<?xml version="1.0" encoding="utf-8"?>
<!-- Generator: Adobe Illustrator 19.1.0, SVG Export Plug-In . SVG Version: 6.00 Build 0)  -->
<svg version="1.1" id="Layer_1" xmlns="http://www.w3.org/2000/svg" xmlns:xlink="http://www.w3.org/1999/xlink" x="0px" y="0px"
	 viewBox="0 0 75 75" style="enable-background:new 0 0 75 75;" xml:space="preserve">
<style type="text/css">
	.st0{enable-background:new    ;}
	.st1{clip-path:url(#SVGID_2_);}
	.st2{clip-path:url(#SVGID_4_);fill:#2475AC;}
	.st3{fill:none;stroke:#2475AC;stroke-width:2;stroke-miterlimit:10;}
	.st4{clip-path:url(#SVGID_6_);}
	.st5{clip-path:url(#SVGID_8_);fill:#2475AC;}
	.st6{clip-path:url(#SVGID_10_);}
	.st7{clip-path:url(#SVGID_12_);fill:#2475AC;}
	.st8{clip-path:url(#SVGID_14_);}
	.st9{clip-path:url(#SVGID_16_);fill:#2475AC;}
	.st10{fill:#FFFFFF;stroke:#FFFFFF;stroke-width:4;stroke-miterlimit:10;}
	.st11{fill:#FFFFFF;stroke:#2475AC;stroke-width:1.453;stroke-miterlimit:10;}
	.st12{fill:#FFFFFF;stroke:#FFFFFF;stroke-width:5;stroke-miterlimit:10;}
	.st13{fill:#FFFFFF;stroke:#2475AC;stroke-width:1.3716;stroke-miterlimit:10;}
	.st14{clip-path:url(#SVGID_18_);}
	.st15{clip-path:url(#SVGID_20_);fill:#2475AC;}
	.st16{fill:#2475AC;}
	.st17{fill:#FFFFFF;}
	.st18{fill:#FFFFFF;stroke:#FFFFFF;stroke-width:2;stroke-miterlimit:10;}
	.st19{fill:#FFFFFF;stroke:#FFFFFF;stroke-width:0.5;stroke-miterlimit:10;}
	.st20{clip-path:url(#SVGID_22_);}
	.st21{clip-path:url(#SVGID_24_);fill:#2475AC;stroke:#FFFFFF;stroke-miterlimit:10;}
	.st22{fill:none;stroke:#2475AC;stroke-width:0.6225;stroke-miterlimit:10;}
	.st23{clip-path:url(#SVGID_26_);}
	.st24{clip-path:url(#SVGID_28_);fill:#2475AC;}
	.st25{fill:none;stroke:#2475AC;stroke-miterlimit:10;}
</style>
<g>
	<g class="st0">
		<g>
			<g>
				<defs>
					<path id="SVGID_1_" d="M47.7,58.6H16.3V16.9h31.5V58.6z M32,68.9c-1.8,0-3.2-1.3-3.2-3c0-1.7,1.4-3,3.2-3c1.8,0,3.2,1.3,3.2,3
						C35.2,67.5,33.8,68.9,32,68.9z M24.8,11.8h14.3c0.4,0,0.7,0.5,0.7,1.1c0,0.6-0.3,1.1-0.7,1.1H24.8c-0.4,0-0.7-0.5-0.7-1.1
						C24.2,12.3,24.5,11.8,24.8,11.8z M46.5,8.9h-29c-2.8,0-5,2.1-5,4.7v55.2c0,2.6,2.2,4.7,5,4.7h29c2.8,0,5-2.1,5-4.7V13.6
						C51.5,11,49.3,8.9,46.5,8.9z"/>
				</defs>
				<use xlink:href="#SVGID_1_"  style="overflow:visible;fill:#2475AC;"/>
				<clipPath id="SVGID_2_">
					<use xlink:href="#SVGID_1_"  style="overflow:visible;"/>
				</clipPath>
				<g class="st1">
					<defs>
						<rect id="SVGID_3_" x="-175.4" y="2" width="227.7" height="71.9"/>
					</defs>
					<use xlink:href="#SVGID_3_"  style="overflow:visible;fill:#2475AC;"/>
					<clipPath id="SVGID_4_">
						<use xlink:href="#SVGID_3_"  style="overflow:visible;"/>
					</clipPath>
					<rect x="5" y="1.4" class="st2" width="54" height="79.6"/>
				</g>
			</g>
		</g>
	</g>
	<line class="st3" x1="19" y1="27" x2="29" y2="27"/>
	<line class="st3" x1="19" y1="36" x2="35" y2="36"/>
	<line class="st3" x1="19" y1="44" x2="41" y2="44"/>
	<line class="st3" x1="19" y1="52" x2="42" y2="52"/>
</g>
<g class="st0">
	<circle class="st12" cx="52.9" cy="22.1" r="19.1"/>
	<circle class="st13" cx="52.9" cy="22.1" r="19.1"/>
	<g>
		<g>
			<defs>
				<path id="SVGID_21_" d="M50,41.2c0.2,0,0.4-0.2,0.6-0.4c0.1-0.2,0.2-0.4,0.1-0.7c0-0.3-0.2-0.4-0.4-0.6l-1.6-1.1l1.4-2
					c0.1-0.2,0.2-0.4,0.1-0.7c0-0.3-0.2-0.4-0.4-0.6l-8-5.6c-0.2-0.1-0.4-0.2-0.7-0.1c-0.3,0-0.4,0.2-0.6,0.4l-1.4,2l-1.6-1.1
					c-0.2-0.1-0.4-0.2-0.7-0.1c-0.3,0-0.4,0.2-0.6,0.4c-0.1,0.2-0.2,0.4-0.1,0.7l1.8,10.8c0,0.3,0.2,0.4,0.4,0.6
					c0.2,0.1,0.4,0.2,0.7,0.1L50,41.2z"/>
			</defs>
			<use xlink:href="#SVGID_21_"  style="overflow:visible;fill-rule:evenodd;clip-rule:evenodd;fill:#2475AC;"/>
			<clipPath id="SVGID_6_">
				<use xlink:href="#SVGID_21_"  style="overflow:visible;"/>
			</clipPath>
			<g class="st4">
				<defs>
					
						<rect id="SVGID_23_" x="8.7" y="12" transform="matrix(0.5732 -0.8194 0.8194 0.5732 1.1044 53.9806)" width="87.3" height="27.9"/>
				</defs>
				<use xlink:href="#SVGID_23_"  style="overflow:visible;fill:#2475AC;"/>
				<clipPath id="SVGID_8_">
					<use xlink:href="#SVGID_23_"  style="overflow:visible;"/>
				</clipPath>
				
					<rect x="33.3" y="26.6" transform="matrix(0.5732 -0.8194 0.8194 0.5732 -12.9078 50.7892)" style="clip-path:url(#SVGID_8_);fill:#2475AC;stroke:#FFFFFF;stroke-miterlimit:10;" width="18.1" height="22.3"/>
				<use xlink:href="#SVGID_23_"  style="overflow:visible;fill:none;stroke:#FFFFFF;stroke-miterlimit:10;"/>
			</g>
			
				<use xlink:href="#SVGID_21_"  style="overflow:visible;fill-rule:evenodd;clip-rule:evenodd;fill:none;stroke:#FFFFFF;stroke-miterlimit:10;"/>
		</g>
		<g>
			<path class="st22" d="M42.9,28.8v-8.7c0-0.2,0.2-0.2,0.3-0.2l6.2,4.5L43.2,29C43.1,29.1,42.9,29,42.9,28.8z"/>
			<path class="st22" d="M60.9,28.8v-8.7c0-0.2-0.2-0.2-0.3-0.2l-6.2,4.5l6.2,4.5C60.7,29.1,60.9,29,60.9,28.8z"/>
			<path class="st22" d="M49.1,24.5h5.3H49.1z"/>
			<polygon class="st22" points="44.7,14.7 44.7,21.1 49.4,24.5 54.4,24.5 59.1,21.1 59.1,14.7 			"/>
			<path class="st22" d="M52.5,12.3c-0.3-0.3-0.8-0.3-1.2,0l-2.8,2.4h6.7L52.5,12.3z"/>
			<polygon class="st22" points="59.1,21.1 54.4,24.5 49.4,24.5 44.7,21.1 44.7,18.1 42.9,19.7 42.9,29.2 60.9,29.2 60.9,19.7 
				59.1,18.1 			"/>
		</g>
		<g>
			<defs>
				<path id="SVGID_25_" d="M55.2,16.7c-0.1-0.1-0.4-0.1-0.5,0l-3.8,3.6l-2-1.9c-0.1-0.1-0.4-0.1-0.5,0l-0.4,0.3
					c-0.1,0.1-0.1,0.4,0,0.5l2.6,2.5c0.1,0.1,0.2,0.1,0.3,0.1c0.1,0,0.2,0,0.3-0.1l4.4-4.2c0.2-0.1,0.2-0.4,0-0.5L55.2,16.7z"/>
			</defs>
			<use xlink:href="#SVGID_25_"  style="overflow:visible;fill-rule:evenodd;clip-rule:evenodd;fill:#2475AC;"/>
			<clipPath id="SVGID_10_">
				<use xlink:href="#SVGID_25_"  style="overflow:visible;"/>
			</clipPath>
			<g class="st6">
				<defs>
					<rect id="SVGID_27_" x="33.1" y="9.4" width="58.2" height="18.6"/>
				</defs>
				<use xlink:href="#SVGID_27_"  style="overflow:visible;fill:#2475AC;"/>
				<clipPath id="SVGID_12_">
					<use xlink:href="#SVGID_27_"  style="overflow:visible;"/>
				</clipPath>
				<rect x="50.7" y="13.7" class="st7" width="8.2" height="6.6"/>
			</g>
		</g>
		<g>
			<line class="st25" x1="65.7" y1="18.1" x2="61.5" y2="22.5"/>
			<line class="st25" x1="65.3" y1="14.1" x2="62.4" y2="17.1"/>
			<line class="st25" x1="65.2" y1="9.7" x2="60.1" y2="15"/>
			<line class="st25" x1="59.9" y1="10.3" x2="56.3" y2="14"/>
		</g>
	</g>
</g>
</svg>
