<svg class="bui-banner__image" width="31" height="32" version="1.1" xmlns="http://www.w3.org/2000/svg"><path d="M22.9 14.6c3.6 0 6.5-3 6.5-6.9 0-3.8-3-6.8-6.5-6.8-3.6 0-6.6 3-6.6 6.8s3 6.9 6.6 6.9zm-4.4-7.7c0-.2.1-.3.3-.3h2.7c.1 0 .3-.1.3-.3V3.4c0-.1 0-.2.2-.2h1.7c.1 0 .2 0 .2.2v2.9c0 .2.2.3.3.3H27c.2 0 .3.1.3.3v1.7c0 .1-.1.3-.3.3h-2.7c-.1 0-.3.1-.3.3V12c0 .2 0 .3-.2.3H22a.3.3 0 0 1-.2-.3V9.2c0-.2-.2-.3-.3-.3h-2.7a.3.3 0 0 1-.3-.3V6.9zm11.9 10.7a1 1 0 0 1-1 .7H26v13.4h-6.5v-9.1h-8.7v9.1H4.4V18.3H1a1 1 0 0 1-1-.7c-.2-.4-.1-.9.2-1.2L14.4.4c.2-.3.5-.4.8-.4.4 0 .7.1.9.4l.7.8a9.5 9.5 0 0 0-.1 12.6c3.1 3.5 8.3 3.9 11.9.8l1.6 1.8c.3.3.4.8.2 1.2z" fill="#003480" fill-rule="nonzero" stroke="none" stroke-width="1"/></svg>