<svg xmlns="http://www.w3.org/2000/svg" xmlns:xlink="http://www.w3.org/1999/xlink" width="29" height="22" viewBox="0 0 29 22">
    <defs>
        <path id="a" d="M10.787 0H0v22h21.574V0H10.787z"/>
    </defs>
    <g fill="none" fill-rule="evenodd">
        <g>
            <mask id="b" fill="#fff">
                <use xlink:href="#a"/>
            </mask>
            <path fill="#FFF" d="M20.29 20.711H1.285c-.089-1.443.041-3.32.638-3.866 1.396-1.28 4.11-2.867 6.451-3.775l.885-.343-.65-.702c-1.158-1.25-1.904-3.38-1.904-5.432 0-3.074 1.716-5.304 4.081-5.304 2.366 0 4.083 2.231 4.083 5.304 0 2.051-.749 4.183-1.906 5.432l-.65.702.884.343c2.344.907 5.057 2.495 6.452 3.776.596.543.726 2.42.64 3.865m-5.836-8.514c1.049-1.491 1.677-3.555 1.677-5.604 0-3.82-2.247-6.593-5.344-6.593-3.096 0-5.343 2.773-5.343 6.593 0 2.048.629 4.113 1.675 5.604-2.264.984-4.702 2.463-6.04 3.69C-.345 17.194.034 20.999.08 21.428L.144 22H21.43l.064-.572c.047-.429.426-4.234-1-5.541-1.337-1.227-3.774-2.706-6.04-3.69" mask="url(#b)"/>
        </g>
        <path fill="#FFF" d="M18.958 4.705h9.107c.348 0 .63-.288.63-.643a.637.637 0 0 0-.63-.644h-9.107a.637.637 0 0 0-.63.644c-.002.355.282.643.63.643M28.065 8.608h-9.107a.638.638 0 0 0-.63.644c0 .355.282.644.63.644h9.107c.348 0 .63-.289.63-.644a.638.638 0 0 0-.63-.644M28.065 13.798h-5.55a.638.638 0 0 0-.63.644c0 .356.282.644.63.644h5.55c.348 0 .63-.288.63-.644a.638.638 0 0 0-.63-.644"/>
    </g>
</svg>
