<svg id="Layer_1" data-name="Layer 1" xmlns="http://www.w3.org/2000/svg" viewBox="0 0 30 16"><title>us</title><path d="M0,0H30V1.23H0ZM0,2.46H30V3.69H0ZM0,4.92H30V6.16H0ZM0,7.38H30V8.62H0ZM0,9.85H30v1.23H0Zm0,2.46H30v1.23H0Zm0,2.46H30V16H0Z" style="fill:#b22234"/><path d="M0,1.23H30V2.46H0ZM0,3.69H30V4.92H0ZM0,6.15H30V7.38H0ZM0,8.62H30V9.85H0Zm0,2.46H30v1.23H0Zm0,2.46H30v1.23H0Z" style="fill:#fff"/><path d="M0,0H12.16V8.62H0Z" style="fill:#192f5d"/><path d="M1,.37l.11.34h.36L1.19.92l.11.34L1,1.05l-.28.21L.83.92.54.71H.91Zm2,0,.11.34h.36L3.22.92l.11.34L3,1.05l-.29.21L2.86.92,2.57.71h.36Zm2,0,.11.34h.35L5.24.92l.11.34-.29-.21-.29.21L4.88.92,4.59.71H5Zm2,0L7.2.71h.36L7.27.92l.11.34-.29-.21-.29.21L6.91.92,6.62.71H7Zm2,0,.11.34h.36L9.3.92l.11.34-.29-.21-.29.21L8.94.92,8.65.71H9Zm2,0,.11.34h.36l-.3.21.12.34-.29-.21-.29.21L11,.92,10.68.71H11ZM2,1.23l.11.34H2.5l-.29.21.11.34L2,1.91l-.29.21.1-.34-.28-.21h.36Zm2,0,.12.34h.35l-.29.21.11.34-.29-.21-.29.21.11-.34-.29-.21h.36Zm2,0,.11.34h.36l-.29.21.11.34-.29-.21-.29.21.11-.34-.29-.21H6Zm2,0,.11.34h.35l-.29.21.12.34-.29-.21-.29.21.11-.34-.29-.21H8Zm2,0,.11.34h.36l-.29.21.11.34-.29-.21-.29.21L10,1.78l-.29-.21H10ZM1,2.09l.11.35h.36l-.29.21L1.3,3,1,2.78.72,3l.11-.35L.54,2.43H.91Zm2,0,.11.34h.36l-.29.21L3.33,3,3,2.77,2.75,3l.11-.34-.29-.21h.36Zm2,0,.11.34h.35l-.29.21L5.35,3l-.29-.21L4.77,3l.11-.34-.29-.21H5Zm2,0,.11.34h.36l-.29.21L7.38,3l-.29-.21L6.8,3l.11-.34-.29-.21H7Zm2,0,.11.34h.36l-.29.21L9.41,3l-.29-.21L8.83,3l.11-.34-.29-.21H9Zm2,0,.11.34h.36l-.3.21.12.34-.29-.21L10.86,3,11,2.64l-.29-.21H11ZM2,3l.11.34H2.5l-.29.21.11.34L2,3.63l-.29.21.11-.34-.29-.21h.36Zm2,0,.12.34h.35l-.29.21.11.34-.29-.21-.29.21.12-.34-.3-.21h.36Zm2,0,.11.34h.36l-.29.21.11.34-.29-.21-.29.21L5.9,3.5l-.29-.21H6Zm2,0,.11.34h.35l-.28.21.11.34-.29-.21-.29.21.11-.34-.29-.21H8Zm2,0,.11.34h.36l-.29.21.11.35-.29-.22-.29.21L10,3.5l-.28-.21H10ZM1,3.82l.11.34h.36l-.29.21.11.34L1,4.5l-.28.21.1-.34L.54,4.16H.91Zm2,0,.11.34h.36l-.29.21.11.34L3,4.5l-.29.21.11-.34-.29-.21h.36Zm2,0,.11.34h.35l-.29.21.11.34L5.06,4.5l-.29.21.11-.34-.29-.21H5Zm2,0,.11.34h.36l-.29.21.11.34L7.09,4.5l-.29.21.11-.34-.29-.21H7Zm2,0,.11.34h.36l-.29.21.11.34L9.12,4.5l-.29.21.11-.34-.29-.21H9Zm2,0,.11.34h.36l-.3.21.12.34-.29-.21-.29.21L11,4.37l-.29-.21H11ZM2,4.68,2.14,5H2.5l-.29.21.11.34L2,5.36l-.29.21.11-.34L1.56,5h.36Zm2,0L4.17,5h.35l-.29.21.11.34-.29-.21-.29.21.11-.34L3.58,5h.36Zm2,0L6.19,5h.36l-.29.21.11.34-.29-.21-.29.21.11-.35L5.61,5H6Zm2,0L8.22,5h.35l-.28.21.11.34-.29-.21-.29.21.11-.34L7.64,5H8Zm2,0,.11.34h.36l-.29.21.11.34-.29-.21-.29.21L10,5.23,9.66,5H10ZM1,5.54l.11.34h.36l-.29.21.11.34L1,6.22l-.29.21.11-.34L.54,5.88H.91Zm2,0,.11.34h.36l-.29.21.11.34L3,6.22l-.29.21.11-.34-.29-.21h.36Zm2,0,.11.34h.35l-.29.21.11.34-.29-.21-.29.21.11-.34-.29-.21H5Zm2,0,.11.34h.36l-.29.21.11.34-.29-.21-.29.21.11-.34-.29-.21H7Zm2,0,.11.34h.36l-.29.21.11.34-.29-.21-.29.21.11-.34-.29-.21H9Zm2,0,.11.34h.36l-.3.21.12.34-.29-.21-.29.21L11,6.09l-.29-.21H11ZM2,6.4l.11.34H2.5L2.21,7l.11.34L2,7.08l-.29.21L1.85,7l-.29-.21h.36Zm2,0,.12.34h.35L4.23,7l.11.34-.29-.21-.29.21L3.88,7l-.3-.21h.36Zm2,0,.11.34h.36L6.26,7l.11.34-.29-.21-.29.21L5.9,7l-.29-.21H6Zm2,0,.11.34h.36L8.29,7l.11.34-.29-.21-.29.21L7.93,7l-.29-.21H8Zm2,0,.11.34h.36L10.31,7l.11.34-.29-.21-.29.21L10,7l-.29-.21H10ZM1,7.26l.12.34h.35l-.29.21.11.34L1,7.94l-.28.21.1-.34L.54,7.6H.91Zm2,0,.11.34h.36l-.29.21.11.34L3,7.94l-.29.21.11-.34L2.57,7.6h.36Zm2,0,.11.34h.35l-.28.21.11.34-.29-.21-.29.21.11-.34L4.6,7.6H5Zm2,0,.11.34h.36l-.29.21.11.34-.29-.21-.29.21.11-.34L6.62,7.6H7Zm2,0,.11.34h.36l-.29.21.11.34-.29-.21-.29.21.11-.34L8.65,7.6H9Zm2,0,.11.34h.36l-.29.21.11.34-.29-.21-.29.21L11,7.81l-.29-.21H11Z" style="fill:#fff"/></svg>