<?xml version="1.0" encoding="utf-8"?>
<!-- Generator: Adobe Illustrator 18.1.1, SVG Export Plug-In . SVG Version: 6.00 Build 0)  -->
<svg version="1.1" id="Layer_1" xmlns="http://www.w3.org/2000/svg" xmlns:xlink="http://www.w3.org/1999/xlink" x="0px" y="0px"
	 viewBox="0 0 67.5 56.3" enable-background="new 0 0 67.5 56.3" xml:space="preserve">
<g>
	<path fill="#FFFFFF" d="M5.6,11.3h56.3c3.1,0,5.6-2.5,5.6-5.6S65,0,61.9,0H5.6C2.5,0,0,2.5,0,5.6S2.5,11.3,5.6,11.3z"/>
	<path fill="#FFFFFF" d="M61.9,22.5H5.6C2.5,22.5,0,25,0,28.1s2.5,5.6,5.6,5.6h56.3c3.1,0,5.6-2.5,5.6-5.6S65,22.5,61.9,22.5z"/>
	<path fill="#FFFFFF" d="M61.9,45H5.6C2.5,45,0,47.5,0,50.6s2.5,5.6,5.6,5.6h56.3c3.1,0,5.6-2.5,5.6-5.6S65,45,61.9,45z"/>
</g>
</svg>
